G04 (created by PCBNEW (2013-jul-07)-stable) date Sat 01 Nov 2014 03:24:29 PM PDT*
%MOIN*%
G04 Gerber Fmt 3.4, Leading zero omitted, Abs format*
%FSLAX34Y34*%
G01*
G70*
G90*
G04 APERTURE LIST*
%ADD10C,0.00590551*%
%ADD11C,0.011811*%
%ADD12C,0.0075*%
%ADD13C,0.01*%
%ADD14C,0.00787402*%
%ADD15C,0.01375*%
%ADD16C,0.00625*%
%ADD17C,0.0125*%
%ADD18C,0.005*%
%ADD19C,0.00393701*%
%ADD20C,0.006*%
%ADD21C,0.0026*%
%ADD22C,0.004*%
%ADD23C,0.002*%
%ADD24C,0.0047*%
%ADD25C,0.012*%
%ADD26C,0.008*%
%ADD27C,0.0045*%
G04 APERTURE END LIST*
G54D10*
X70608Y-47473D02*
X70713Y-47788D01*
X70818Y-47473D01*
X71103Y-47758D02*
X71088Y-47773D01*
X71043Y-47788D01*
X71013Y-47788D01*
X70968Y-47773D01*
X70938Y-47743D01*
X70923Y-47713D01*
X70908Y-47653D01*
X70908Y-47608D01*
X70923Y-47548D01*
X70938Y-47518D01*
X70968Y-47488D01*
X71013Y-47473D01*
X71043Y-47473D01*
X71088Y-47488D01*
X71103Y-47503D01*
X71418Y-47758D02*
X71403Y-47773D01*
X71358Y-47788D01*
X71328Y-47788D01*
X71283Y-47773D01*
X71253Y-47743D01*
X71238Y-47713D01*
X71223Y-47653D01*
X71223Y-47608D01*
X71238Y-47548D01*
X71253Y-47518D01*
X71283Y-47488D01*
X71328Y-47473D01*
X71358Y-47473D01*
X71403Y-47488D01*
X71418Y-47503D01*
X71538Y-47698D02*
X71688Y-47698D01*
X71508Y-47788D02*
X71613Y-47473D01*
X71718Y-47788D01*
X71823Y-47473D02*
X71823Y-47728D01*
X71838Y-47758D01*
X71853Y-47773D01*
X71883Y-47788D01*
X71943Y-47788D01*
X71973Y-47773D01*
X71988Y-47758D01*
X72003Y-47728D01*
X72003Y-47473D01*
X72123Y-47473D02*
X72333Y-47788D01*
X72333Y-47473D02*
X72123Y-47788D01*
X70608Y-48473D02*
X70788Y-48473D01*
X70698Y-48788D02*
X70698Y-48473D01*
X70893Y-48788D02*
X70893Y-48473D01*
X70998Y-48698D01*
X71103Y-48473D01*
X71103Y-48788D01*
X71238Y-48773D02*
X71283Y-48788D01*
X71358Y-48788D01*
X71388Y-48773D01*
X71403Y-48758D01*
X71418Y-48728D01*
X71418Y-48698D01*
X71403Y-48668D01*
X71388Y-48653D01*
X71358Y-48638D01*
X71298Y-48623D01*
X71268Y-48608D01*
X71253Y-48593D01*
X71238Y-48563D01*
X71238Y-48533D01*
X71253Y-48503D01*
X71268Y-48488D01*
X71298Y-48473D01*
X71373Y-48473D01*
X71418Y-48488D01*
X70608Y-49473D02*
X70788Y-49473D01*
X70698Y-49788D02*
X70698Y-49473D01*
X71073Y-49758D02*
X71058Y-49773D01*
X71013Y-49788D01*
X70983Y-49788D01*
X70938Y-49773D01*
X70908Y-49743D01*
X70893Y-49713D01*
X70878Y-49653D01*
X70878Y-49608D01*
X70893Y-49548D01*
X70908Y-49518D01*
X70938Y-49488D01*
X70983Y-49473D01*
X71013Y-49473D01*
X71058Y-49488D01*
X71073Y-49503D01*
X71208Y-49788D02*
X71208Y-49473D01*
X71388Y-49788D02*
X71253Y-49608D01*
X71388Y-49473D02*
X71208Y-49653D01*
X70608Y-50473D02*
X70788Y-50473D01*
X70698Y-50788D02*
X70698Y-50473D01*
X70893Y-50788D02*
X70893Y-50473D01*
X70968Y-50473D01*
X71013Y-50488D01*
X71043Y-50518D01*
X71058Y-50548D01*
X71073Y-50608D01*
X71073Y-50653D01*
X71058Y-50713D01*
X71043Y-50743D01*
X71013Y-50773D01*
X70968Y-50788D01*
X70893Y-50788D01*
X71268Y-50473D02*
X71328Y-50473D01*
X71358Y-50488D01*
X71388Y-50518D01*
X71403Y-50578D01*
X71403Y-50683D01*
X71388Y-50743D01*
X71358Y-50773D01*
X71328Y-50788D01*
X71268Y-50788D01*
X71238Y-50773D01*
X71208Y-50743D01*
X71193Y-50683D01*
X71193Y-50578D01*
X71208Y-50518D01*
X71238Y-50488D01*
X71268Y-50473D01*
X70608Y-51473D02*
X70788Y-51473D01*
X70698Y-51788D02*
X70698Y-51473D01*
X70893Y-51788D02*
X70893Y-51473D01*
X70968Y-51473D01*
X71013Y-51488D01*
X71043Y-51518D01*
X71058Y-51548D01*
X71073Y-51608D01*
X71073Y-51653D01*
X71058Y-51713D01*
X71043Y-51743D01*
X71013Y-51773D01*
X70968Y-51788D01*
X70893Y-51788D01*
X71208Y-51788D02*
X71208Y-51473D01*
G54D11*
X90580Y-52064D02*
X90861Y-52064D01*
X90861Y-52654D01*
X90383Y-52064D02*
X90383Y-52457D01*
X90383Y-52654D02*
X90411Y-52626D01*
X90383Y-52598D01*
X90355Y-52626D01*
X90383Y-52654D01*
X90383Y-52598D01*
X89849Y-52092D02*
X89905Y-52064D01*
X90017Y-52064D01*
X90074Y-52092D01*
X90102Y-52120D01*
X90130Y-52176D01*
X90130Y-52345D01*
X90102Y-52401D01*
X90074Y-52429D01*
X90017Y-52457D01*
X89905Y-52457D01*
X89849Y-52429D01*
X89371Y-52092D02*
X89427Y-52064D01*
X89539Y-52064D01*
X89596Y-52092D01*
X89624Y-52148D01*
X89624Y-52373D01*
X89596Y-52429D01*
X89539Y-52457D01*
X89427Y-52457D01*
X89371Y-52429D01*
X89343Y-52373D01*
X89343Y-52317D01*
X89624Y-52260D01*
X89089Y-52457D02*
X89089Y-52064D01*
X89089Y-52401D02*
X89061Y-52429D01*
X89005Y-52457D01*
X88921Y-52457D01*
X88865Y-52429D01*
X88836Y-52373D01*
X88836Y-52064D01*
X88583Y-52092D02*
X88527Y-52064D01*
X88415Y-52064D01*
X88358Y-52092D01*
X88330Y-52148D01*
X88330Y-52176D01*
X88358Y-52232D01*
X88415Y-52260D01*
X88499Y-52260D01*
X88555Y-52289D01*
X88583Y-52345D01*
X88583Y-52373D01*
X88555Y-52429D01*
X88499Y-52457D01*
X88415Y-52457D01*
X88358Y-52429D01*
X87852Y-52092D02*
X87908Y-52064D01*
X88021Y-52064D01*
X88077Y-52092D01*
X88105Y-52148D01*
X88105Y-52373D01*
X88077Y-52429D01*
X88021Y-52457D01*
X87908Y-52457D01*
X87852Y-52429D01*
X87824Y-52373D01*
X87824Y-52317D01*
X88105Y-52260D01*
X87571Y-52120D02*
X87543Y-52092D01*
X87571Y-52064D01*
X87599Y-52092D01*
X87571Y-52120D01*
X87571Y-52064D01*
X87571Y-52429D02*
X87543Y-52401D01*
X87571Y-52373D01*
X87599Y-52401D01*
X87571Y-52429D01*
X87571Y-52373D01*
X86502Y-52120D02*
X86530Y-52092D01*
X86615Y-52064D01*
X86671Y-52064D01*
X86755Y-52092D01*
X86812Y-52148D01*
X86840Y-52204D01*
X86868Y-52317D01*
X86868Y-52401D01*
X86840Y-52514D01*
X86812Y-52570D01*
X86755Y-52626D01*
X86671Y-52654D01*
X86615Y-52654D01*
X86530Y-52626D01*
X86502Y-52598D01*
X85912Y-52120D02*
X85940Y-52092D01*
X86024Y-52064D01*
X86080Y-52064D01*
X86165Y-52092D01*
X86221Y-52148D01*
X86249Y-52204D01*
X86277Y-52317D01*
X86277Y-52401D01*
X86249Y-52514D01*
X86221Y-52570D01*
X86165Y-52626D01*
X86080Y-52654D01*
X86024Y-52654D01*
X85940Y-52626D01*
X85912Y-52598D01*
X85012Y-52373D02*
X84928Y-52345D01*
X84899Y-52317D01*
X84871Y-52260D01*
X84871Y-52176D01*
X84899Y-52120D01*
X84928Y-52092D01*
X84984Y-52064D01*
X85209Y-52064D01*
X85209Y-52654D01*
X85012Y-52654D01*
X84956Y-52626D01*
X84928Y-52598D01*
X84899Y-52542D01*
X84899Y-52485D01*
X84928Y-52429D01*
X84956Y-52401D01*
X85012Y-52373D01*
X85209Y-52373D01*
X84506Y-52345D02*
X84506Y-52064D01*
X84703Y-52654D02*
X84506Y-52345D01*
X84309Y-52654D01*
X84112Y-52289D02*
X83662Y-52289D01*
X83409Y-52092D02*
X83325Y-52064D01*
X83184Y-52064D01*
X83128Y-52092D01*
X83100Y-52120D01*
X83071Y-52176D01*
X83071Y-52232D01*
X83100Y-52289D01*
X83128Y-52317D01*
X83184Y-52345D01*
X83296Y-52373D01*
X83353Y-52401D01*
X83381Y-52429D01*
X83409Y-52485D01*
X83409Y-52542D01*
X83381Y-52598D01*
X83353Y-52626D01*
X83296Y-52654D01*
X83156Y-52654D01*
X83071Y-52626D01*
X82847Y-52232D02*
X82565Y-52232D01*
X82903Y-52064D02*
X82706Y-52654D01*
X82509Y-52064D01*
X81919Y-52654D02*
X81553Y-52654D01*
X81750Y-52429D01*
X81665Y-52429D01*
X81609Y-52401D01*
X81581Y-52373D01*
X81553Y-52317D01*
X81553Y-52176D01*
X81581Y-52120D01*
X81609Y-52092D01*
X81665Y-52064D01*
X81834Y-52064D01*
X81890Y-52092D01*
X81919Y-52120D01*
X81300Y-52120D02*
X81272Y-52092D01*
X81300Y-52064D01*
X81328Y-52092D01*
X81300Y-52120D01*
X81300Y-52064D01*
X80906Y-52654D02*
X80850Y-52654D01*
X80794Y-52626D01*
X80766Y-52598D01*
X80737Y-52542D01*
X80709Y-52429D01*
X80709Y-52289D01*
X80737Y-52176D01*
X80766Y-52120D01*
X80794Y-52092D01*
X80850Y-52064D01*
X80906Y-52064D01*
X80962Y-52092D01*
X80991Y-52120D01*
X81019Y-52176D01*
X81047Y-52289D01*
X81047Y-52429D01*
X81019Y-52542D01*
X80991Y-52598D01*
X80962Y-52626D01*
X80906Y-52654D01*
X90819Y-51428D02*
X90735Y-51400D01*
X90706Y-51372D01*
X90678Y-51316D01*
X90678Y-51231D01*
X90706Y-51175D01*
X90735Y-51147D01*
X90791Y-51119D01*
X91016Y-51119D01*
X91016Y-51709D01*
X90819Y-51709D01*
X90763Y-51681D01*
X90735Y-51653D01*
X90706Y-51597D01*
X90706Y-51541D01*
X90735Y-51484D01*
X90763Y-51456D01*
X90819Y-51428D01*
X91016Y-51428D01*
X90172Y-51119D02*
X90172Y-51428D01*
X90200Y-51484D01*
X90257Y-51512D01*
X90369Y-51512D01*
X90425Y-51484D01*
X90172Y-51147D02*
X90228Y-51119D01*
X90369Y-51119D01*
X90425Y-51147D01*
X90453Y-51203D01*
X90453Y-51259D01*
X90425Y-51316D01*
X90369Y-51344D01*
X90228Y-51344D01*
X90172Y-51372D01*
X89919Y-51147D02*
X89863Y-51119D01*
X89750Y-51119D01*
X89694Y-51147D01*
X89666Y-51203D01*
X89666Y-51231D01*
X89694Y-51287D01*
X89750Y-51316D01*
X89835Y-51316D01*
X89891Y-51344D01*
X89919Y-51400D01*
X89919Y-51428D01*
X89891Y-51484D01*
X89835Y-51512D01*
X89750Y-51512D01*
X89694Y-51484D01*
X89188Y-51147D02*
X89244Y-51119D01*
X89357Y-51119D01*
X89413Y-51147D01*
X89441Y-51203D01*
X89441Y-51428D01*
X89413Y-51484D01*
X89357Y-51512D01*
X89244Y-51512D01*
X89188Y-51484D01*
X89160Y-51428D01*
X89160Y-51372D01*
X89441Y-51316D01*
X88654Y-51119D02*
X88654Y-51709D01*
X88654Y-51147D02*
X88710Y-51119D01*
X88822Y-51119D01*
X88879Y-51147D01*
X88907Y-51175D01*
X88935Y-51231D01*
X88935Y-51400D01*
X88907Y-51456D01*
X88879Y-51484D01*
X88822Y-51512D01*
X88710Y-51512D01*
X88654Y-51484D01*
X87838Y-51119D02*
X87894Y-51147D01*
X87922Y-51175D01*
X87951Y-51231D01*
X87951Y-51400D01*
X87922Y-51456D01*
X87894Y-51484D01*
X87838Y-51512D01*
X87754Y-51512D01*
X87697Y-51484D01*
X87669Y-51456D01*
X87641Y-51400D01*
X87641Y-51231D01*
X87669Y-51175D01*
X87697Y-51147D01*
X87754Y-51119D01*
X87838Y-51119D01*
X87388Y-51512D02*
X87388Y-51119D01*
X87388Y-51456D02*
X87360Y-51484D01*
X87304Y-51512D01*
X87219Y-51512D01*
X87163Y-51484D01*
X87135Y-51428D01*
X87135Y-51119D01*
X86404Y-51119D02*
X86404Y-51709D01*
X86066Y-51119D01*
X86066Y-51709D01*
X85532Y-51512D02*
X85532Y-51119D01*
X85785Y-51512D02*
X85785Y-51203D01*
X85757Y-51147D01*
X85701Y-51119D01*
X85616Y-51119D01*
X85560Y-51147D01*
X85532Y-51175D01*
X85251Y-51119D02*
X85251Y-51512D01*
X85251Y-51456D02*
X85223Y-51484D01*
X85167Y-51512D01*
X85082Y-51512D01*
X85026Y-51484D01*
X84998Y-51428D01*
X84998Y-51119D01*
X84998Y-51428D02*
X84970Y-51484D01*
X84913Y-51512D01*
X84829Y-51512D01*
X84773Y-51484D01*
X84745Y-51428D01*
X84745Y-51119D01*
X84210Y-51119D02*
X84210Y-51428D01*
X84239Y-51484D01*
X84295Y-51512D01*
X84407Y-51512D01*
X84464Y-51484D01*
X84210Y-51147D02*
X84267Y-51119D01*
X84407Y-51119D01*
X84464Y-51147D01*
X84492Y-51203D01*
X84492Y-51259D01*
X84464Y-51316D01*
X84407Y-51344D01*
X84267Y-51344D01*
X84210Y-51372D01*
X84014Y-51512D02*
X83789Y-51512D01*
X83929Y-51709D02*
X83929Y-51203D01*
X83901Y-51147D01*
X83845Y-51119D01*
X83789Y-51119D01*
X83507Y-51119D02*
X83564Y-51147D01*
X83592Y-51175D01*
X83620Y-51231D01*
X83620Y-51400D01*
X83592Y-51456D01*
X83564Y-51484D01*
X83507Y-51512D01*
X83423Y-51512D01*
X83367Y-51484D01*
X83339Y-51456D01*
X83311Y-51400D01*
X83311Y-51231D01*
X83339Y-51175D01*
X83367Y-51147D01*
X83423Y-51119D01*
X83507Y-51119D01*
X82607Y-51119D02*
X82607Y-51709D01*
X82411Y-51287D01*
X82214Y-51709D01*
X82214Y-51119D01*
X81933Y-51119D02*
X81933Y-51512D01*
X81933Y-51709D02*
X81961Y-51681D01*
X81933Y-51653D01*
X81904Y-51681D01*
X81933Y-51709D01*
X81933Y-51653D01*
X81651Y-51119D02*
X81651Y-51512D01*
X81651Y-51456D02*
X81623Y-51484D01*
X81567Y-51512D01*
X81483Y-51512D01*
X81426Y-51484D01*
X81398Y-51428D01*
X81398Y-51119D01*
X81398Y-51428D02*
X81370Y-51484D01*
X81314Y-51512D01*
X81230Y-51512D01*
X81173Y-51484D01*
X81145Y-51428D01*
X81145Y-51119D01*
X80611Y-51119D02*
X80611Y-51428D01*
X80639Y-51484D01*
X80695Y-51512D01*
X80808Y-51512D01*
X80864Y-51484D01*
X80611Y-51147D02*
X80667Y-51119D01*
X80808Y-51119D01*
X80864Y-51147D01*
X80892Y-51203D01*
X80892Y-51259D01*
X80864Y-51316D01*
X80808Y-51344D01*
X80667Y-51344D01*
X80611Y-51372D01*
X80358Y-51147D02*
X80302Y-51119D01*
X80189Y-51119D01*
X80133Y-51147D01*
X80105Y-51203D01*
X80105Y-51231D01*
X80133Y-51287D01*
X80189Y-51316D01*
X80273Y-51316D01*
X80330Y-51344D01*
X80358Y-51400D01*
X80358Y-51428D01*
X80330Y-51484D01*
X80273Y-51512D01*
X80189Y-51512D01*
X80133Y-51484D01*
X68571Y-37117D02*
X68515Y-37089D01*
X68430Y-37089D01*
X68346Y-37117D01*
X68290Y-37173D01*
X68262Y-37230D01*
X68233Y-37342D01*
X68233Y-37426D01*
X68262Y-37539D01*
X68290Y-37595D01*
X68346Y-37651D01*
X68430Y-37679D01*
X68487Y-37679D01*
X68571Y-37651D01*
X68599Y-37623D01*
X68599Y-37426D01*
X68487Y-37426D01*
X68852Y-37679D02*
X68852Y-37089D01*
X69190Y-37679D01*
X69190Y-37089D01*
X69471Y-37679D02*
X69471Y-37089D01*
X69611Y-37089D01*
X69696Y-37117D01*
X69752Y-37173D01*
X69780Y-37230D01*
X69808Y-37342D01*
X69808Y-37426D01*
X69780Y-37539D01*
X69752Y-37595D01*
X69696Y-37651D01*
X69611Y-37679D01*
X69471Y-37679D01*
X68852Y-38624D02*
X68852Y-38034D01*
X69190Y-38624D01*
X69190Y-38034D01*
X69808Y-38568D02*
X69780Y-38596D01*
X69696Y-38624D01*
X69640Y-38624D01*
X69555Y-38596D01*
X69499Y-38540D01*
X69471Y-38484D01*
X69443Y-38371D01*
X69443Y-38287D01*
X69471Y-38174D01*
X69499Y-38118D01*
X69555Y-38062D01*
X69640Y-38034D01*
X69696Y-38034D01*
X69780Y-38062D01*
X69808Y-38090D01*
X68852Y-39569D02*
X68852Y-38979D01*
X69190Y-39569D01*
X69190Y-38979D01*
X69808Y-39513D02*
X69780Y-39541D01*
X69696Y-39569D01*
X69640Y-39569D01*
X69555Y-39541D01*
X69499Y-39485D01*
X69471Y-39429D01*
X69443Y-39316D01*
X69443Y-39232D01*
X69471Y-39119D01*
X69499Y-39063D01*
X69555Y-39007D01*
X69640Y-38979D01*
X69696Y-38979D01*
X69780Y-39007D01*
X69808Y-39035D01*
X68262Y-40289D02*
X68712Y-40289D01*
X68487Y-40514D02*
X68487Y-40064D01*
X69274Y-39924D02*
X68993Y-39924D01*
X68965Y-40205D01*
X68993Y-40177D01*
X69049Y-40149D01*
X69190Y-40149D01*
X69246Y-40177D01*
X69274Y-40205D01*
X69302Y-40261D01*
X69302Y-40402D01*
X69274Y-40458D01*
X69246Y-40486D01*
X69190Y-40514D01*
X69049Y-40514D01*
X68993Y-40486D01*
X68965Y-40458D01*
X69471Y-39924D02*
X69668Y-40514D01*
X69865Y-39924D01*
G54D12*
X69608Y-55245D02*
X69508Y-54945D01*
X69408Y-55245D01*
X69251Y-55245D02*
X69222Y-55245D01*
X69194Y-55231D01*
X69180Y-55216D01*
X69165Y-55188D01*
X69151Y-55131D01*
X69151Y-55059D01*
X69165Y-55002D01*
X69180Y-54974D01*
X69194Y-54959D01*
X69222Y-54945D01*
X69251Y-54945D01*
X69280Y-54959D01*
X69294Y-54974D01*
X69308Y-55002D01*
X69322Y-55059D01*
X69322Y-55131D01*
X69308Y-55188D01*
X69294Y-55216D01*
X69280Y-55231D01*
X69251Y-55245D01*
X69022Y-54974D02*
X69008Y-54959D01*
X69022Y-54945D01*
X69037Y-54959D01*
X69022Y-54974D01*
X69022Y-54945D01*
X68722Y-54945D02*
X68894Y-54945D01*
X68808Y-54945D02*
X68808Y-55245D01*
X68837Y-55202D01*
X68865Y-55174D01*
X68894Y-55159D01*
X68594Y-54945D02*
X68594Y-55245D01*
X68594Y-55131D02*
X68565Y-55145D01*
X68508Y-55145D01*
X68480Y-55131D01*
X68465Y-55116D01*
X68451Y-55088D01*
X68451Y-55002D01*
X68465Y-54974D01*
X68480Y-54959D01*
X68508Y-54945D01*
X68565Y-54945D01*
X68594Y-54959D01*
G54D13*
X91425Y-32124D02*
X91691Y-32124D01*
X91272Y-32219D02*
X91558Y-32314D01*
X91558Y-32067D01*
X91291Y-31838D02*
X91291Y-31800D01*
X91310Y-31762D01*
X91330Y-31743D01*
X91368Y-31724D01*
X91444Y-31705D01*
X91539Y-31705D01*
X91615Y-31724D01*
X91653Y-31743D01*
X91672Y-31762D01*
X91691Y-31800D01*
X91691Y-31838D01*
X91672Y-31876D01*
X91653Y-31895D01*
X91615Y-31914D01*
X91539Y-31933D01*
X91444Y-31933D01*
X91368Y-31914D01*
X91330Y-31895D01*
X91310Y-31876D01*
X91291Y-31838D01*
X91291Y-33383D02*
X91291Y-33136D01*
X91444Y-33269D01*
X91444Y-33212D01*
X91463Y-33174D01*
X91482Y-33155D01*
X91520Y-33136D01*
X91615Y-33136D01*
X91653Y-33155D01*
X91672Y-33174D01*
X91691Y-33212D01*
X91691Y-33326D01*
X91672Y-33364D01*
X91653Y-33383D01*
X91691Y-32945D02*
X91691Y-32869D01*
X91672Y-32831D01*
X91653Y-32812D01*
X91596Y-32774D01*
X91520Y-32755D01*
X91368Y-32755D01*
X91330Y-32774D01*
X91310Y-32793D01*
X91291Y-32831D01*
X91291Y-32907D01*
X91310Y-32945D01*
X91330Y-32964D01*
X91368Y-32983D01*
X91463Y-32983D01*
X91501Y-32964D01*
X91520Y-32945D01*
X91539Y-32907D01*
X91539Y-32831D01*
X91520Y-32793D01*
X91501Y-32774D01*
X91463Y-32755D01*
X70757Y-32904D02*
X70757Y-33133D01*
X70757Y-33018D02*
X70357Y-33018D01*
X70415Y-33057D01*
X70453Y-33095D01*
X70472Y-33133D01*
X70396Y-32111D02*
X70376Y-32092D01*
X70357Y-32054D01*
X70357Y-31958D01*
X70376Y-31920D01*
X70396Y-31901D01*
X70434Y-31882D01*
X70472Y-31882D01*
X70529Y-31901D01*
X70757Y-32130D01*
X70757Y-31882D01*
X70396Y-53524D02*
X70376Y-53505D01*
X70357Y-53467D01*
X70357Y-53371D01*
X70376Y-53333D01*
X70396Y-53314D01*
X70434Y-53295D01*
X70472Y-53295D01*
X70529Y-53314D01*
X70757Y-53543D01*
X70757Y-53295D01*
X91425Y-53544D02*
X91691Y-53544D01*
X91272Y-53639D02*
X91558Y-53734D01*
X91558Y-53487D01*
X91291Y-53258D02*
X91291Y-53220D01*
X91310Y-53182D01*
X91330Y-53163D01*
X91368Y-53144D01*
X91444Y-53125D01*
X91539Y-53125D01*
X91615Y-53144D01*
X91653Y-53163D01*
X91672Y-53182D01*
X91691Y-53220D01*
X91691Y-53258D01*
X91672Y-53296D01*
X91653Y-53315D01*
X91615Y-53334D01*
X91539Y-53353D01*
X91444Y-53353D01*
X91368Y-53334D01*
X91330Y-53315D01*
X91310Y-53296D01*
X91291Y-53258D01*
X91291Y-54859D02*
X91291Y-54612D01*
X91444Y-54745D01*
X91444Y-54688D01*
X91463Y-54650D01*
X91482Y-54631D01*
X91520Y-54612D01*
X91615Y-54612D01*
X91653Y-54631D01*
X91672Y-54650D01*
X91691Y-54688D01*
X91691Y-54802D01*
X91672Y-54840D01*
X91653Y-54859D01*
X91691Y-54421D02*
X91691Y-54345D01*
X91672Y-54307D01*
X91653Y-54288D01*
X91596Y-54250D01*
X91520Y-54231D01*
X91368Y-54231D01*
X91330Y-54250D01*
X91310Y-54269D01*
X91291Y-54307D01*
X91291Y-54383D01*
X91310Y-54421D01*
X91330Y-54440D01*
X91368Y-54459D01*
X91463Y-54459D01*
X91501Y-54440D01*
X91520Y-54421D01*
X91539Y-54383D01*
X91539Y-54307D01*
X91520Y-54269D01*
X91501Y-54250D01*
X91463Y-54231D01*
G54D14*
X71925Y-34750D02*
X71350Y-34750D01*
X71925Y-36250D02*
X71925Y-34750D01*
X71350Y-36250D02*
X71925Y-36250D01*
G54D13*
X70757Y-54299D02*
X70757Y-54528D01*
X70757Y-54413D02*
X70357Y-54413D01*
X70415Y-54452D01*
X70453Y-54490D01*
X70472Y-54528D01*
G54D12*
X69721Y-36042D02*
X70021Y-35942D01*
X69721Y-35842D01*
X69864Y-35742D02*
X69864Y-35642D01*
X70021Y-35599D02*
X70021Y-35742D01*
X69721Y-35742D01*
X69721Y-35599D01*
X69721Y-35499D02*
X70021Y-35299D01*
X69721Y-35299D02*
X70021Y-35499D01*
X69721Y-35228D02*
X69721Y-35057D01*
X70021Y-35142D02*
X69721Y-35142D01*
G54D15*
X68993Y-37077D02*
X68993Y-36658D01*
X68993Y-34301D02*
X68993Y-33882D01*
X69202Y-34091D02*
X68783Y-34091D01*
G54D12*
X71471Y-35100D02*
X71471Y-34914D01*
X71585Y-35014D01*
X71585Y-34971D01*
X71600Y-34942D01*
X71614Y-34928D01*
X71642Y-34914D01*
X71714Y-34914D01*
X71742Y-34928D01*
X71757Y-34942D01*
X71771Y-34971D01*
X71771Y-35057D01*
X71757Y-35085D01*
X71742Y-35100D01*
X71500Y-35635D02*
X71485Y-35621D01*
X71471Y-35592D01*
X71471Y-35521D01*
X71485Y-35492D01*
X71500Y-35478D01*
X71528Y-35464D01*
X71557Y-35464D01*
X71600Y-35478D01*
X71771Y-35650D01*
X71771Y-35464D01*
G54D16*
X71771Y-35914D02*
X71771Y-36085D01*
X71771Y-36000D02*
X71471Y-36000D01*
X71514Y-36028D01*
X71542Y-36057D01*
X71557Y-36085D01*
G54D14*
X73800Y-37750D02*
X73800Y-35050D01*
X73700Y-37750D02*
X73800Y-37750D01*
X72650Y-35050D02*
X73800Y-35050D01*
X72650Y-37750D02*
X72650Y-35050D01*
X72650Y-40700D02*
X72650Y-40150D01*
X73700Y-40700D02*
X72650Y-40700D01*
X73700Y-37750D02*
X73700Y-40700D01*
X72650Y-37750D02*
X73700Y-37750D01*
X72650Y-40200D02*
X72650Y-37750D01*
G54D13*
X81933Y-34165D02*
X81971Y-34184D01*
X82028Y-34184D01*
X82086Y-34165D01*
X82124Y-34126D01*
X82143Y-34088D01*
X82162Y-34012D01*
X82162Y-33955D01*
X82143Y-33879D01*
X82124Y-33841D01*
X82086Y-33803D01*
X82028Y-33784D01*
X81990Y-33784D01*
X81933Y-33803D01*
X81914Y-33822D01*
X81914Y-33955D01*
X81990Y-33955D01*
X81743Y-33784D02*
X81743Y-34050D01*
X81743Y-33974D02*
X81724Y-34012D01*
X81705Y-34031D01*
X81667Y-34050D01*
X81628Y-34050D01*
X81438Y-33784D02*
X81476Y-33803D01*
X81495Y-33822D01*
X81514Y-33860D01*
X81514Y-33974D01*
X81495Y-34012D01*
X81476Y-34031D01*
X81438Y-34050D01*
X81381Y-34050D01*
X81343Y-34031D01*
X81324Y-34012D01*
X81305Y-33974D01*
X81305Y-33860D01*
X81324Y-33822D01*
X81343Y-33803D01*
X81381Y-33784D01*
X81438Y-33784D01*
X80962Y-34050D02*
X80962Y-33784D01*
X81133Y-34050D02*
X81133Y-33841D01*
X81114Y-33803D01*
X81076Y-33784D01*
X81019Y-33784D01*
X80981Y-33803D01*
X80962Y-33822D01*
X80771Y-34050D02*
X80771Y-33650D01*
X80771Y-34031D02*
X80733Y-34050D01*
X80657Y-34050D01*
X80619Y-34031D01*
X80600Y-34012D01*
X80581Y-33974D01*
X80581Y-33860D01*
X80600Y-33822D01*
X80619Y-33803D01*
X80657Y-33784D01*
X80733Y-33784D01*
X80771Y-33803D01*
X80124Y-33898D02*
X79933Y-33898D01*
X80162Y-33784D02*
X80028Y-34184D01*
X79895Y-33784D01*
X76394Y-52644D02*
X76432Y-52663D01*
X76489Y-52663D01*
X76546Y-52644D01*
X76585Y-52606D01*
X76604Y-52568D01*
X76623Y-52491D01*
X76623Y-52434D01*
X76604Y-52358D01*
X76585Y-52320D01*
X76546Y-52282D01*
X76489Y-52263D01*
X76451Y-52263D01*
X76394Y-52282D01*
X76375Y-52301D01*
X76375Y-52434D01*
X76451Y-52434D01*
X76204Y-52263D02*
X76204Y-52529D01*
X76204Y-52453D02*
X76185Y-52491D01*
X76166Y-52510D01*
X76127Y-52529D01*
X76089Y-52529D01*
X75899Y-52263D02*
X75937Y-52282D01*
X75956Y-52301D01*
X75975Y-52339D01*
X75975Y-52453D01*
X75956Y-52491D01*
X75937Y-52510D01*
X75899Y-52529D01*
X75842Y-52529D01*
X75804Y-52510D01*
X75785Y-52491D01*
X75766Y-52453D01*
X75766Y-52339D01*
X75785Y-52301D01*
X75804Y-52282D01*
X75842Y-52263D01*
X75899Y-52263D01*
X75423Y-52529D02*
X75423Y-52263D01*
X75594Y-52529D02*
X75594Y-52320D01*
X75575Y-52282D01*
X75537Y-52263D01*
X75480Y-52263D01*
X75442Y-52282D01*
X75423Y-52301D01*
X75232Y-52529D02*
X75232Y-52129D01*
X75232Y-52510D02*
X75194Y-52529D01*
X75118Y-52529D01*
X75080Y-52510D01*
X75061Y-52491D01*
X75042Y-52453D01*
X75042Y-52339D01*
X75061Y-52301D01*
X75080Y-52282D01*
X75118Y-52263D01*
X75194Y-52263D01*
X75232Y-52282D01*
X74432Y-52472D02*
X74375Y-52453D01*
X74356Y-52434D01*
X74337Y-52396D01*
X74337Y-52339D01*
X74356Y-52301D01*
X74375Y-52282D01*
X74413Y-52263D01*
X74566Y-52263D01*
X74566Y-52663D01*
X74432Y-52663D01*
X74394Y-52644D01*
X74375Y-52625D01*
X74356Y-52587D01*
X74356Y-52549D01*
X74375Y-52510D01*
X74394Y-52491D01*
X74432Y-52472D01*
X74566Y-52472D01*
G54D17*
X84926Y-37485D02*
X84821Y-37485D01*
X84769Y-37459D01*
X84716Y-37406D01*
X84690Y-37302D01*
X84690Y-37118D01*
X84716Y-37013D01*
X84769Y-36961D01*
X84821Y-36935D01*
X84926Y-36935D01*
X84978Y-36961D01*
X85031Y-37013D01*
X85057Y-37118D01*
X85057Y-37302D01*
X85031Y-37406D01*
X84978Y-37459D01*
X84926Y-37485D01*
X84454Y-36935D02*
X84454Y-37302D01*
X84454Y-37197D02*
X84428Y-37249D01*
X84402Y-37275D01*
X84350Y-37302D01*
X84297Y-37302D01*
X83904Y-36961D02*
X83957Y-36935D01*
X84061Y-36935D01*
X84114Y-36961D01*
X84140Y-37013D01*
X84140Y-37223D01*
X84114Y-37275D01*
X84061Y-37302D01*
X83957Y-37302D01*
X83904Y-37275D01*
X83878Y-37223D01*
X83878Y-37171D01*
X84140Y-37118D01*
X83407Y-37302D02*
X83407Y-36856D01*
X83433Y-36804D01*
X83459Y-36778D01*
X83511Y-36752D01*
X83590Y-36752D01*
X83642Y-36778D01*
X83407Y-36961D02*
X83459Y-36935D01*
X83564Y-36935D01*
X83616Y-36961D01*
X83642Y-36987D01*
X83669Y-37040D01*
X83669Y-37197D01*
X83642Y-37249D01*
X83616Y-37275D01*
X83564Y-37302D01*
X83459Y-37302D01*
X83407Y-37275D01*
X83066Y-36935D02*
X83119Y-36961D01*
X83145Y-36987D01*
X83171Y-37040D01*
X83171Y-37197D01*
X83145Y-37249D01*
X83119Y-37275D01*
X83066Y-37302D01*
X82988Y-37302D01*
X82935Y-37275D01*
X82909Y-37249D01*
X82883Y-37197D01*
X82883Y-37040D01*
X82909Y-36987D01*
X82935Y-36961D01*
X82988Y-36935D01*
X83066Y-36935D01*
X82647Y-37302D02*
X82647Y-36935D01*
X82647Y-37249D02*
X82621Y-37275D01*
X82569Y-37302D01*
X82490Y-37302D01*
X82438Y-37275D01*
X82412Y-37223D01*
X82412Y-36935D01*
X81731Y-36935D02*
X81731Y-37485D01*
X81469Y-37302D02*
X81469Y-36935D01*
X81469Y-37249D02*
X81442Y-37275D01*
X81390Y-37302D01*
X81312Y-37302D01*
X81259Y-37275D01*
X81233Y-37223D01*
X81233Y-36935D01*
X80997Y-36961D02*
X80945Y-36935D01*
X80840Y-36935D01*
X80788Y-36961D01*
X80762Y-37013D01*
X80762Y-37040D01*
X80788Y-37092D01*
X80840Y-37118D01*
X80919Y-37118D01*
X80971Y-37144D01*
X80997Y-37197D01*
X80997Y-37223D01*
X80971Y-37275D01*
X80919Y-37302D01*
X80840Y-37302D01*
X80788Y-37275D01*
X80604Y-37302D02*
X80395Y-37302D01*
X80526Y-37485D02*
X80526Y-37013D01*
X80500Y-36961D01*
X80447Y-36935D01*
X80395Y-36935D01*
X80212Y-36935D02*
X80212Y-37302D01*
X80212Y-37485D02*
X80238Y-37459D01*
X80212Y-37433D01*
X80185Y-37459D01*
X80212Y-37485D01*
X80212Y-37433D01*
X80028Y-37302D02*
X79819Y-37302D01*
X79950Y-37485D02*
X79950Y-37013D01*
X79923Y-36961D01*
X79871Y-36935D01*
X79819Y-36935D01*
X79400Y-37302D02*
X79400Y-36935D01*
X79635Y-37302D02*
X79635Y-37013D01*
X79609Y-36961D01*
X79557Y-36935D01*
X79478Y-36935D01*
X79426Y-36961D01*
X79400Y-36987D01*
X79216Y-37302D02*
X79007Y-37302D01*
X79138Y-37485D02*
X79138Y-37013D01*
X79112Y-36961D01*
X79059Y-36935D01*
X79007Y-36935D01*
X78614Y-36961D02*
X78666Y-36935D01*
X78771Y-36935D01*
X78823Y-36961D01*
X78850Y-37013D01*
X78850Y-37223D01*
X78823Y-37275D01*
X78771Y-37302D01*
X78666Y-37302D01*
X78614Y-37275D01*
X78588Y-37223D01*
X78588Y-37171D01*
X78850Y-37118D01*
X77854Y-36935D02*
X77907Y-36961D01*
X77933Y-36987D01*
X77959Y-37040D01*
X77959Y-37197D01*
X77933Y-37249D01*
X77907Y-37275D01*
X77854Y-37302D01*
X77776Y-37302D01*
X77723Y-37275D01*
X77697Y-37249D01*
X77671Y-37197D01*
X77671Y-37040D01*
X77697Y-36987D01*
X77723Y-36961D01*
X77776Y-36935D01*
X77854Y-36935D01*
X77514Y-37302D02*
X77304Y-37302D01*
X77435Y-36935D02*
X77435Y-37406D01*
X77409Y-37459D01*
X77357Y-37485D01*
X77304Y-37485D01*
X76781Y-37485D02*
X76466Y-37485D01*
X76623Y-36935D02*
X76623Y-37485D01*
X76073Y-36961D02*
X76126Y-36935D01*
X76231Y-36935D01*
X76283Y-36961D01*
X76309Y-37013D01*
X76309Y-37223D01*
X76283Y-37275D01*
X76231Y-37302D01*
X76126Y-37302D01*
X76073Y-37275D01*
X76047Y-37223D01*
X76047Y-37171D01*
X76309Y-37118D01*
X75576Y-36961D02*
X75628Y-36935D01*
X75733Y-36935D01*
X75785Y-36961D01*
X75811Y-36987D01*
X75838Y-37040D01*
X75838Y-37197D01*
X75811Y-37249D01*
X75785Y-37275D01*
X75733Y-37302D01*
X75628Y-37302D01*
X75576Y-37275D01*
X75340Y-36935D02*
X75340Y-37485D01*
X75104Y-36935D02*
X75104Y-37223D01*
X75131Y-37275D01*
X75183Y-37302D01*
X75261Y-37302D01*
X75314Y-37275D01*
X75340Y-37249D01*
X74842Y-37302D02*
X74842Y-36935D01*
X74842Y-37249D02*
X74816Y-37275D01*
X74764Y-37302D01*
X74685Y-37302D01*
X74633Y-37275D01*
X74607Y-37223D01*
X74607Y-36935D01*
X74266Y-36935D02*
X74319Y-36961D01*
X74345Y-36987D01*
X74371Y-37040D01*
X74371Y-37197D01*
X74345Y-37249D01*
X74319Y-37275D01*
X74266Y-37302D01*
X74188Y-37302D01*
X74135Y-37275D01*
X74109Y-37249D01*
X74083Y-37197D01*
X74083Y-37040D01*
X74109Y-36987D01*
X74135Y-36961D01*
X74188Y-36935D01*
X74266Y-36935D01*
X73769Y-36935D02*
X73821Y-36961D01*
X73847Y-37013D01*
X73847Y-37485D01*
X73481Y-36935D02*
X73533Y-36961D01*
X73559Y-36987D01*
X73585Y-37040D01*
X73585Y-37197D01*
X73559Y-37249D01*
X73533Y-37275D01*
X73481Y-37302D01*
X73402Y-37302D01*
X73350Y-37275D01*
X73323Y-37249D01*
X73297Y-37197D01*
X73297Y-37040D01*
X73323Y-36987D01*
X73350Y-36961D01*
X73402Y-36935D01*
X73481Y-36935D01*
X72826Y-37302D02*
X72826Y-36856D01*
X72852Y-36804D01*
X72878Y-36778D01*
X72931Y-36752D01*
X73009Y-36752D01*
X73062Y-36778D01*
X72826Y-36961D02*
X72878Y-36935D01*
X72983Y-36935D01*
X73035Y-36961D01*
X73062Y-36987D01*
X73088Y-37040D01*
X73088Y-37197D01*
X73062Y-37249D01*
X73035Y-37275D01*
X72983Y-37302D01*
X72878Y-37302D01*
X72826Y-37275D01*
X72616Y-37302D02*
X72485Y-36935D01*
X72354Y-37302D02*
X72485Y-36935D01*
X72538Y-36804D01*
X72564Y-36778D01*
X72616Y-36752D01*
X84716Y-36092D02*
X84742Y-36066D01*
X84821Y-36040D01*
X84873Y-36040D01*
X84952Y-36066D01*
X85004Y-36118D01*
X85031Y-36171D01*
X85057Y-36276D01*
X85057Y-36354D01*
X85031Y-36459D01*
X85004Y-36511D01*
X84952Y-36564D01*
X84873Y-36590D01*
X84821Y-36590D01*
X84742Y-36564D01*
X84716Y-36538D01*
X84507Y-36066D02*
X84428Y-36040D01*
X84297Y-36040D01*
X84245Y-36066D01*
X84219Y-36092D01*
X84192Y-36145D01*
X84192Y-36197D01*
X84219Y-36249D01*
X84245Y-36276D01*
X84297Y-36302D01*
X84402Y-36328D01*
X84454Y-36354D01*
X84481Y-36380D01*
X84507Y-36433D01*
X84507Y-36485D01*
X84481Y-36538D01*
X84454Y-36564D01*
X84402Y-36590D01*
X84271Y-36590D01*
X84192Y-36564D01*
X83957Y-36328D02*
X83773Y-36328D01*
X83695Y-36040D02*
X83957Y-36040D01*
X83957Y-36590D01*
X83695Y-36590D01*
X83538Y-36590D02*
X83223Y-36590D01*
X83381Y-36040D02*
X83381Y-36590D01*
X84926Y-35695D02*
X84821Y-35695D01*
X84769Y-35669D01*
X84716Y-35616D01*
X84690Y-35512D01*
X84690Y-35328D01*
X84716Y-35223D01*
X84769Y-35171D01*
X84821Y-35145D01*
X84926Y-35145D01*
X84978Y-35171D01*
X85031Y-35223D01*
X85057Y-35328D01*
X85057Y-35512D01*
X85031Y-35616D01*
X84978Y-35669D01*
X84926Y-35695D01*
X84507Y-35512D02*
X84402Y-35145D01*
X84297Y-35407D01*
X84192Y-35145D01*
X84088Y-35512D01*
X83800Y-35145D02*
X83852Y-35171D01*
X83878Y-35223D01*
X83878Y-35695D01*
X82988Y-35433D02*
X82909Y-35407D01*
X82883Y-35381D01*
X82857Y-35328D01*
X82857Y-35250D01*
X82883Y-35197D01*
X82909Y-35171D01*
X82961Y-35145D01*
X83171Y-35145D01*
X83171Y-35695D01*
X82988Y-35695D01*
X82935Y-35669D01*
X82909Y-35643D01*
X82883Y-35590D01*
X82883Y-35538D01*
X82909Y-35485D01*
X82935Y-35459D01*
X82988Y-35433D01*
X83171Y-35433D01*
X82542Y-35145D02*
X82595Y-35171D01*
X82621Y-35197D01*
X82647Y-35250D01*
X82647Y-35407D01*
X82621Y-35459D01*
X82595Y-35485D01*
X82542Y-35512D01*
X82464Y-35512D01*
X82411Y-35485D01*
X82385Y-35459D01*
X82359Y-35407D01*
X82359Y-35250D01*
X82385Y-35197D01*
X82411Y-35171D01*
X82464Y-35145D01*
X82542Y-35145D01*
X81888Y-35145D02*
X81888Y-35433D01*
X81914Y-35485D01*
X81966Y-35512D01*
X82071Y-35512D01*
X82123Y-35485D01*
X81888Y-35171D02*
X81940Y-35145D01*
X82071Y-35145D01*
X82123Y-35171D01*
X82150Y-35223D01*
X82150Y-35276D01*
X82123Y-35328D01*
X82071Y-35354D01*
X81940Y-35354D01*
X81888Y-35381D01*
X81626Y-35145D02*
X81626Y-35512D01*
X81626Y-35407D02*
X81600Y-35459D01*
X81573Y-35485D01*
X81521Y-35512D01*
X81469Y-35512D01*
X81050Y-35145D02*
X81050Y-35695D01*
X81050Y-35171D02*
X81102Y-35145D01*
X81207Y-35145D01*
X81259Y-35171D01*
X81285Y-35197D01*
X81312Y-35250D01*
X81312Y-35407D01*
X81285Y-35459D01*
X81259Y-35485D01*
X81207Y-35512D01*
X81102Y-35512D01*
X81050Y-35485D01*
X80421Y-35512D02*
X80290Y-35145D01*
X80159Y-35512D01*
X79426Y-35695D02*
X79373Y-35695D01*
X79321Y-35669D01*
X79295Y-35643D01*
X79269Y-35590D01*
X79242Y-35485D01*
X79242Y-35354D01*
X79269Y-35250D01*
X79295Y-35197D01*
X79321Y-35171D01*
X79373Y-35145D01*
X79426Y-35145D01*
X79478Y-35171D01*
X79504Y-35197D01*
X79531Y-35250D01*
X79557Y-35354D01*
X79557Y-35485D01*
X79531Y-35590D01*
X79504Y-35643D01*
X79478Y-35669D01*
X79426Y-35695D01*
X79007Y-35197D02*
X78981Y-35171D01*
X79007Y-35145D01*
X79033Y-35171D01*
X79007Y-35197D01*
X79007Y-35145D01*
X78457Y-35145D02*
X78771Y-35145D01*
X78614Y-35145D02*
X78614Y-35695D01*
X78666Y-35616D01*
X78719Y-35564D01*
X78771Y-35538D01*
X78221Y-35145D02*
X78221Y-35695D01*
X78221Y-35485D02*
X78169Y-35512D01*
X78064Y-35512D01*
X78012Y-35485D01*
X77985Y-35459D01*
X77959Y-35407D01*
X77959Y-35250D01*
X77985Y-35197D01*
X78012Y-35171D01*
X78064Y-35145D01*
X78169Y-35145D01*
X78221Y-35171D01*
G54D13*
X68104Y-50187D02*
X68390Y-50187D01*
X68447Y-50206D01*
X68485Y-50244D01*
X68504Y-50301D01*
X68504Y-50339D01*
X68104Y-50053D02*
X68104Y-49825D01*
X68504Y-49939D02*
X68104Y-49939D01*
X68390Y-49710D02*
X68390Y-49520D01*
X68504Y-49749D02*
X68104Y-49615D01*
X68504Y-49482D01*
X68123Y-49139D02*
X68104Y-49177D01*
X68104Y-49234D01*
X68123Y-49291D01*
X68161Y-49329D01*
X68199Y-49349D01*
X68275Y-49368D01*
X68332Y-49368D01*
X68409Y-49349D01*
X68447Y-49329D01*
X68485Y-49291D01*
X68504Y-49234D01*
X68504Y-49196D01*
X68485Y-49139D01*
X68466Y-49120D01*
X68332Y-49120D01*
X68332Y-49196D01*
G54D12*
X73009Y-34304D02*
X73181Y-34304D01*
X73095Y-34304D02*
X73095Y-34604D01*
X73124Y-34561D01*
X73152Y-34533D01*
X73181Y-34518D01*
X72881Y-34418D02*
X72652Y-34418D01*
X72524Y-34576D02*
X72509Y-34590D01*
X72481Y-34604D01*
X72409Y-34604D01*
X72381Y-34590D01*
X72366Y-34576D01*
X72352Y-34547D01*
X72352Y-34518D01*
X72366Y-34476D01*
X72538Y-34304D01*
X72352Y-34304D01*
X71767Y-34604D02*
X71767Y-34361D01*
X71752Y-34333D01*
X71738Y-34318D01*
X71709Y-34304D01*
X71652Y-34304D01*
X71624Y-34318D01*
X71609Y-34333D01*
X71595Y-34361D01*
X71595Y-34604D01*
X71467Y-34318D02*
X71424Y-34304D01*
X71352Y-34304D01*
X71324Y-34318D01*
X71309Y-34333D01*
X71295Y-34361D01*
X71295Y-34390D01*
X71309Y-34418D01*
X71324Y-34433D01*
X71352Y-34447D01*
X71409Y-34461D01*
X71438Y-34476D01*
X71452Y-34490D01*
X71467Y-34518D01*
X71467Y-34547D01*
X71452Y-34576D01*
X71438Y-34590D01*
X71409Y-34604D01*
X71338Y-34604D01*
X71295Y-34590D01*
X71067Y-34461D02*
X71024Y-34447D01*
X71009Y-34433D01*
X70995Y-34404D01*
X70995Y-34361D01*
X71009Y-34333D01*
X71024Y-34318D01*
X71052Y-34304D01*
X71167Y-34304D01*
X71167Y-34604D01*
X71067Y-34604D01*
X71038Y-34590D01*
X71024Y-34576D01*
X71009Y-34547D01*
X71009Y-34518D01*
X71024Y-34490D01*
X71038Y-34476D01*
X71067Y-34461D01*
X71167Y-34461D01*
X70638Y-34304D02*
X70638Y-34604D01*
X70524Y-34604D01*
X70495Y-34590D01*
X70481Y-34576D01*
X70467Y-34547D01*
X70467Y-34504D01*
X70481Y-34476D01*
X70495Y-34461D01*
X70524Y-34447D01*
X70638Y-34447D01*
X70367Y-34604D02*
X70295Y-34304D01*
X70238Y-34518D01*
X70181Y-34304D01*
X70109Y-34604D01*
X69824Y-34304D02*
X69924Y-34447D01*
X69995Y-34304D02*
X69995Y-34604D01*
X69881Y-34604D01*
X69852Y-34590D01*
X69838Y-34576D01*
X69824Y-34547D01*
X69824Y-34504D01*
X69838Y-34476D01*
X69852Y-34461D01*
X69881Y-34447D01*
X69995Y-34447D01*
X73238Y-34081D02*
X73224Y-34095D01*
X73195Y-34109D01*
X73124Y-34109D01*
X73095Y-34095D01*
X73081Y-34081D01*
X73066Y-34052D01*
X73066Y-34023D01*
X73081Y-33981D01*
X73252Y-33809D01*
X73066Y-33809D01*
X72938Y-33923D02*
X72709Y-33923D01*
X72595Y-34109D02*
X72409Y-34109D01*
X72509Y-33995D01*
X72466Y-33995D01*
X72438Y-33981D01*
X72424Y-33966D01*
X72409Y-33938D01*
X72409Y-33866D01*
X72424Y-33838D01*
X72438Y-33823D01*
X72466Y-33809D01*
X72552Y-33809D01*
X72581Y-33823D01*
X72595Y-33838D01*
X71824Y-33966D02*
X71724Y-33966D01*
X71681Y-33809D02*
X71824Y-33809D01*
X71824Y-34109D01*
X71681Y-34109D01*
X71581Y-34109D02*
X71381Y-33809D01*
X71381Y-34109D02*
X71581Y-33809D01*
X71309Y-34109D02*
X71138Y-34109D01*
X71224Y-33809D02*
X71224Y-34109D01*
X70809Y-33809D02*
X70809Y-34109D01*
X70695Y-34109D01*
X70667Y-34095D01*
X70652Y-34081D01*
X70638Y-34052D01*
X70638Y-34009D01*
X70652Y-33981D01*
X70667Y-33966D01*
X70695Y-33952D01*
X70809Y-33952D01*
X70538Y-34109D02*
X70467Y-33809D01*
X70409Y-34023D01*
X70352Y-33809D01*
X70281Y-34109D01*
X69995Y-33809D02*
X70095Y-33952D01*
X70167Y-33809D02*
X70167Y-34109D01*
X70052Y-34109D01*
X70024Y-34095D01*
X70009Y-34081D01*
X69995Y-34052D01*
X69995Y-34009D01*
X70009Y-33981D01*
X70024Y-33966D01*
X70052Y-33952D01*
X70167Y-33952D01*
G54D10*
X91300Y-49000D02*
X93700Y-49000D01*
X91300Y-52000D02*
X93700Y-52000D01*
G54D18*
X93500Y-50500D02*
G75*
G03X93500Y-50500I-1000J0D01*
G74*
G01*
X91300Y-52000D02*
X91300Y-49000D01*
X93700Y-49000D02*
X93700Y-52000D01*
G54D10*
X91300Y-44250D02*
X93700Y-44250D01*
X91300Y-47250D02*
X93700Y-47250D01*
G54D18*
X93500Y-45750D02*
G75*
G03X93500Y-45750I-1000J0D01*
G74*
G01*
X91300Y-47250D02*
X91300Y-44250D01*
X93700Y-44250D02*
X93700Y-47250D01*
G54D10*
X91288Y-39240D02*
X93688Y-39240D01*
X91288Y-42240D02*
X93688Y-42240D01*
G54D18*
X93488Y-40740D02*
G75*
G03X93488Y-40740I-1000J0D01*
G74*
G01*
X91288Y-42240D02*
X91288Y-39240D01*
X93688Y-39240D02*
X93688Y-42240D01*
G54D10*
X91300Y-34500D02*
X93700Y-34500D01*
X91300Y-37500D02*
X93700Y-37500D01*
G54D18*
X93500Y-36000D02*
G75*
G03X93500Y-36000I-1000J0D01*
G74*
G01*
X91300Y-37500D02*
X91300Y-34500D01*
X93700Y-34500D02*
X93700Y-37500D01*
G54D19*
X77509Y-48133D02*
X77312Y-48133D01*
X77312Y-48133D02*
X77116Y-47937D01*
X77312Y-40062D02*
X77116Y-40259D01*
X77116Y-40259D02*
X77116Y-47937D01*
X77509Y-48133D02*
X84990Y-48133D01*
X84990Y-48133D02*
X85187Y-47937D01*
X84793Y-40062D02*
X84990Y-40062D01*
X84990Y-40062D02*
X85187Y-40259D01*
X85187Y-40259D02*
X85187Y-40456D01*
X85187Y-47937D02*
X85187Y-47740D01*
X77312Y-40062D02*
X77509Y-40062D01*
X84793Y-40062D02*
X77509Y-40062D01*
X85187Y-47740D02*
X85187Y-47543D01*
X85187Y-47543D02*
X85187Y-40456D01*
G54D10*
X84839Y-40723D02*
G75*
G03X84839Y-40723I-317J0D01*
G74*
G01*
G54D20*
X68594Y-31480D02*
X69594Y-31480D01*
X69594Y-31480D02*
X69594Y-33480D01*
X69594Y-33480D02*
X68594Y-33480D01*
X68594Y-33480D02*
X68594Y-31480D01*
G54D21*
X90696Y-50618D02*
X90696Y-50746D01*
X90696Y-50746D02*
X90893Y-50746D01*
X90893Y-50618D02*
X90893Y-50746D01*
X90696Y-50618D02*
X90893Y-50618D01*
X90696Y-50373D02*
X90696Y-50432D01*
X90696Y-50432D02*
X90795Y-50432D01*
X90795Y-50373D02*
X90795Y-50432D01*
X90696Y-50373D02*
X90795Y-50373D01*
X90696Y-50568D02*
X90696Y-50627D01*
X90696Y-50627D02*
X90795Y-50627D01*
X90795Y-50568D02*
X90795Y-50627D01*
X90696Y-50568D02*
X90795Y-50568D01*
X90696Y-50422D02*
X90696Y-50578D01*
X90696Y-50578D02*
X90765Y-50578D01*
X90765Y-50422D02*
X90765Y-50578D01*
X90696Y-50422D02*
X90765Y-50422D01*
X90107Y-50618D02*
X90107Y-50746D01*
X90107Y-50746D02*
X90304Y-50746D01*
X90304Y-50618D02*
X90304Y-50746D01*
X90107Y-50618D02*
X90304Y-50618D01*
X90107Y-50254D02*
X90107Y-50382D01*
X90107Y-50382D02*
X90304Y-50382D01*
X90304Y-50254D02*
X90304Y-50382D01*
X90107Y-50254D02*
X90304Y-50254D01*
X90205Y-50568D02*
X90205Y-50627D01*
X90205Y-50627D02*
X90304Y-50627D01*
X90304Y-50568D02*
X90304Y-50627D01*
X90205Y-50568D02*
X90304Y-50568D01*
X90205Y-50373D02*
X90205Y-50432D01*
X90205Y-50432D02*
X90304Y-50432D01*
X90304Y-50373D02*
X90304Y-50432D01*
X90205Y-50373D02*
X90304Y-50373D01*
X90235Y-50422D02*
X90235Y-50578D01*
X90235Y-50578D02*
X90304Y-50578D01*
X90304Y-50422D02*
X90304Y-50578D01*
X90235Y-50422D02*
X90304Y-50422D01*
X90500Y-50461D02*
X90500Y-50539D01*
X90500Y-50539D02*
X90578Y-50539D01*
X90578Y-50461D02*
X90578Y-50539D01*
X90500Y-50461D02*
X90578Y-50461D01*
X90696Y-50264D02*
X90696Y-50382D01*
X90696Y-50382D02*
X90814Y-50382D01*
X90814Y-50264D02*
X90814Y-50382D01*
X90696Y-50264D02*
X90814Y-50264D01*
X90864Y-50254D02*
X90864Y-50343D01*
X90864Y-50343D02*
X90893Y-50343D01*
X90893Y-50254D02*
X90893Y-50343D01*
X90864Y-50254D02*
X90893Y-50254D01*
G54D22*
X90706Y-50726D02*
X90294Y-50726D01*
X90304Y-50274D02*
X90864Y-50274D01*
G54D23*
X90862Y-50323D02*
G75*
G03X90862Y-50323I-28J0D01*
G74*
G01*
G54D22*
X90893Y-50363D02*
G75*
G03X90893Y-50637I0J-137D01*
G74*
G01*
X90107Y-50637D02*
G75*
G03X90107Y-50363I0J137D01*
G74*
G01*
G54D21*
X90696Y-48538D02*
X90696Y-48666D01*
X90696Y-48666D02*
X90893Y-48666D01*
X90893Y-48538D02*
X90893Y-48666D01*
X90696Y-48538D02*
X90893Y-48538D01*
X90696Y-48293D02*
X90696Y-48352D01*
X90696Y-48352D02*
X90795Y-48352D01*
X90795Y-48293D02*
X90795Y-48352D01*
X90696Y-48293D02*
X90795Y-48293D01*
X90696Y-48488D02*
X90696Y-48547D01*
X90696Y-48547D02*
X90795Y-48547D01*
X90795Y-48488D02*
X90795Y-48547D01*
X90696Y-48488D02*
X90795Y-48488D01*
X90696Y-48342D02*
X90696Y-48498D01*
X90696Y-48498D02*
X90765Y-48498D01*
X90765Y-48342D02*
X90765Y-48498D01*
X90696Y-48342D02*
X90765Y-48342D01*
X90107Y-48538D02*
X90107Y-48666D01*
X90107Y-48666D02*
X90304Y-48666D01*
X90304Y-48538D02*
X90304Y-48666D01*
X90107Y-48538D02*
X90304Y-48538D01*
X90107Y-48174D02*
X90107Y-48302D01*
X90107Y-48302D02*
X90304Y-48302D01*
X90304Y-48174D02*
X90304Y-48302D01*
X90107Y-48174D02*
X90304Y-48174D01*
X90205Y-48488D02*
X90205Y-48547D01*
X90205Y-48547D02*
X90304Y-48547D01*
X90304Y-48488D02*
X90304Y-48547D01*
X90205Y-48488D02*
X90304Y-48488D01*
X90205Y-48293D02*
X90205Y-48352D01*
X90205Y-48352D02*
X90304Y-48352D01*
X90304Y-48293D02*
X90304Y-48352D01*
X90205Y-48293D02*
X90304Y-48293D01*
X90235Y-48342D02*
X90235Y-48498D01*
X90235Y-48498D02*
X90304Y-48498D01*
X90304Y-48342D02*
X90304Y-48498D01*
X90235Y-48342D02*
X90304Y-48342D01*
X90500Y-48381D02*
X90500Y-48459D01*
X90500Y-48459D02*
X90578Y-48459D01*
X90578Y-48381D02*
X90578Y-48459D01*
X90500Y-48381D02*
X90578Y-48381D01*
X90696Y-48184D02*
X90696Y-48302D01*
X90696Y-48302D02*
X90814Y-48302D01*
X90814Y-48184D02*
X90814Y-48302D01*
X90696Y-48184D02*
X90814Y-48184D01*
X90864Y-48174D02*
X90864Y-48263D01*
X90864Y-48263D02*
X90893Y-48263D01*
X90893Y-48174D02*
X90893Y-48263D01*
X90864Y-48174D02*
X90893Y-48174D01*
G54D22*
X90706Y-48646D02*
X90294Y-48646D01*
X90304Y-48194D02*
X90864Y-48194D01*
G54D23*
X90862Y-48243D02*
G75*
G03X90862Y-48243I-28J0D01*
G74*
G01*
G54D22*
X90893Y-48283D02*
G75*
G03X90893Y-48557I0J-137D01*
G74*
G01*
X90107Y-48557D02*
G75*
G03X90107Y-48283I0J137D01*
G74*
G01*
G54D21*
X90696Y-46468D02*
X90696Y-46596D01*
X90696Y-46596D02*
X90893Y-46596D01*
X90893Y-46468D02*
X90893Y-46596D01*
X90696Y-46468D02*
X90893Y-46468D01*
X90696Y-46223D02*
X90696Y-46282D01*
X90696Y-46282D02*
X90795Y-46282D01*
X90795Y-46223D02*
X90795Y-46282D01*
X90696Y-46223D02*
X90795Y-46223D01*
X90696Y-46418D02*
X90696Y-46477D01*
X90696Y-46477D02*
X90795Y-46477D01*
X90795Y-46418D02*
X90795Y-46477D01*
X90696Y-46418D02*
X90795Y-46418D01*
X90696Y-46272D02*
X90696Y-46428D01*
X90696Y-46428D02*
X90765Y-46428D01*
X90765Y-46272D02*
X90765Y-46428D01*
X90696Y-46272D02*
X90765Y-46272D01*
X90107Y-46468D02*
X90107Y-46596D01*
X90107Y-46596D02*
X90304Y-46596D01*
X90304Y-46468D02*
X90304Y-46596D01*
X90107Y-46468D02*
X90304Y-46468D01*
X90107Y-46104D02*
X90107Y-46232D01*
X90107Y-46232D02*
X90304Y-46232D01*
X90304Y-46104D02*
X90304Y-46232D01*
X90107Y-46104D02*
X90304Y-46104D01*
X90205Y-46418D02*
X90205Y-46477D01*
X90205Y-46477D02*
X90304Y-46477D01*
X90304Y-46418D02*
X90304Y-46477D01*
X90205Y-46418D02*
X90304Y-46418D01*
X90205Y-46223D02*
X90205Y-46282D01*
X90205Y-46282D02*
X90304Y-46282D01*
X90304Y-46223D02*
X90304Y-46282D01*
X90205Y-46223D02*
X90304Y-46223D01*
X90235Y-46272D02*
X90235Y-46428D01*
X90235Y-46428D02*
X90304Y-46428D01*
X90304Y-46272D02*
X90304Y-46428D01*
X90235Y-46272D02*
X90304Y-46272D01*
X90500Y-46311D02*
X90500Y-46389D01*
X90500Y-46389D02*
X90578Y-46389D01*
X90578Y-46311D02*
X90578Y-46389D01*
X90500Y-46311D02*
X90578Y-46311D01*
X90696Y-46114D02*
X90696Y-46232D01*
X90696Y-46232D02*
X90814Y-46232D01*
X90814Y-46114D02*
X90814Y-46232D01*
X90696Y-46114D02*
X90814Y-46114D01*
X90864Y-46104D02*
X90864Y-46193D01*
X90864Y-46193D02*
X90893Y-46193D01*
X90893Y-46104D02*
X90893Y-46193D01*
X90864Y-46104D02*
X90893Y-46104D01*
G54D22*
X90706Y-46576D02*
X90294Y-46576D01*
X90304Y-46124D02*
X90864Y-46124D01*
G54D23*
X90862Y-46173D02*
G75*
G03X90862Y-46173I-28J0D01*
G74*
G01*
G54D22*
X90893Y-46213D02*
G75*
G03X90893Y-46487I0J-137D01*
G74*
G01*
X90107Y-46487D02*
G75*
G03X90107Y-46213I0J137D01*
G74*
G01*
G54D21*
X90696Y-44398D02*
X90696Y-44526D01*
X90696Y-44526D02*
X90893Y-44526D01*
X90893Y-44398D02*
X90893Y-44526D01*
X90696Y-44398D02*
X90893Y-44398D01*
X90696Y-44153D02*
X90696Y-44212D01*
X90696Y-44212D02*
X90795Y-44212D01*
X90795Y-44153D02*
X90795Y-44212D01*
X90696Y-44153D02*
X90795Y-44153D01*
X90696Y-44348D02*
X90696Y-44407D01*
X90696Y-44407D02*
X90795Y-44407D01*
X90795Y-44348D02*
X90795Y-44407D01*
X90696Y-44348D02*
X90795Y-44348D01*
X90696Y-44202D02*
X90696Y-44358D01*
X90696Y-44358D02*
X90765Y-44358D01*
X90765Y-44202D02*
X90765Y-44358D01*
X90696Y-44202D02*
X90765Y-44202D01*
X90107Y-44398D02*
X90107Y-44526D01*
X90107Y-44526D02*
X90304Y-44526D01*
X90304Y-44398D02*
X90304Y-44526D01*
X90107Y-44398D02*
X90304Y-44398D01*
X90107Y-44034D02*
X90107Y-44162D01*
X90107Y-44162D02*
X90304Y-44162D01*
X90304Y-44034D02*
X90304Y-44162D01*
X90107Y-44034D02*
X90304Y-44034D01*
X90205Y-44348D02*
X90205Y-44407D01*
X90205Y-44407D02*
X90304Y-44407D01*
X90304Y-44348D02*
X90304Y-44407D01*
X90205Y-44348D02*
X90304Y-44348D01*
X90205Y-44153D02*
X90205Y-44212D01*
X90205Y-44212D02*
X90304Y-44212D01*
X90304Y-44153D02*
X90304Y-44212D01*
X90205Y-44153D02*
X90304Y-44153D01*
X90235Y-44202D02*
X90235Y-44358D01*
X90235Y-44358D02*
X90304Y-44358D01*
X90304Y-44202D02*
X90304Y-44358D01*
X90235Y-44202D02*
X90304Y-44202D01*
X90500Y-44241D02*
X90500Y-44319D01*
X90500Y-44319D02*
X90578Y-44319D01*
X90578Y-44241D02*
X90578Y-44319D01*
X90500Y-44241D02*
X90578Y-44241D01*
X90696Y-44044D02*
X90696Y-44162D01*
X90696Y-44162D02*
X90814Y-44162D01*
X90814Y-44044D02*
X90814Y-44162D01*
X90696Y-44044D02*
X90814Y-44044D01*
X90864Y-44034D02*
X90864Y-44123D01*
X90864Y-44123D02*
X90893Y-44123D01*
X90893Y-44034D02*
X90893Y-44123D01*
X90864Y-44034D02*
X90893Y-44034D01*
G54D22*
X90706Y-44506D02*
X90294Y-44506D01*
X90304Y-44054D02*
X90864Y-44054D01*
G54D23*
X90862Y-44103D02*
G75*
G03X90862Y-44103I-28J0D01*
G74*
G01*
G54D22*
X90893Y-44143D02*
G75*
G03X90893Y-44417I0J-137D01*
G74*
G01*
X90107Y-44417D02*
G75*
G03X90107Y-44143I0J137D01*
G74*
G01*
G54D21*
X90696Y-42328D02*
X90696Y-42456D01*
X90696Y-42456D02*
X90893Y-42456D01*
X90893Y-42328D02*
X90893Y-42456D01*
X90696Y-42328D02*
X90893Y-42328D01*
X90696Y-42083D02*
X90696Y-42142D01*
X90696Y-42142D02*
X90795Y-42142D01*
X90795Y-42083D02*
X90795Y-42142D01*
X90696Y-42083D02*
X90795Y-42083D01*
X90696Y-42278D02*
X90696Y-42337D01*
X90696Y-42337D02*
X90795Y-42337D01*
X90795Y-42278D02*
X90795Y-42337D01*
X90696Y-42278D02*
X90795Y-42278D01*
X90696Y-42132D02*
X90696Y-42288D01*
X90696Y-42288D02*
X90765Y-42288D01*
X90765Y-42132D02*
X90765Y-42288D01*
X90696Y-42132D02*
X90765Y-42132D01*
X90107Y-42328D02*
X90107Y-42456D01*
X90107Y-42456D02*
X90304Y-42456D01*
X90304Y-42328D02*
X90304Y-42456D01*
X90107Y-42328D02*
X90304Y-42328D01*
X90107Y-41964D02*
X90107Y-42092D01*
X90107Y-42092D02*
X90304Y-42092D01*
X90304Y-41964D02*
X90304Y-42092D01*
X90107Y-41964D02*
X90304Y-41964D01*
X90205Y-42278D02*
X90205Y-42337D01*
X90205Y-42337D02*
X90304Y-42337D01*
X90304Y-42278D02*
X90304Y-42337D01*
X90205Y-42278D02*
X90304Y-42278D01*
X90205Y-42083D02*
X90205Y-42142D01*
X90205Y-42142D02*
X90304Y-42142D01*
X90304Y-42083D02*
X90304Y-42142D01*
X90205Y-42083D02*
X90304Y-42083D01*
X90235Y-42132D02*
X90235Y-42288D01*
X90235Y-42288D02*
X90304Y-42288D01*
X90304Y-42132D02*
X90304Y-42288D01*
X90235Y-42132D02*
X90304Y-42132D01*
X90500Y-42171D02*
X90500Y-42249D01*
X90500Y-42249D02*
X90578Y-42249D01*
X90578Y-42171D02*
X90578Y-42249D01*
X90500Y-42171D02*
X90578Y-42171D01*
X90696Y-41974D02*
X90696Y-42092D01*
X90696Y-42092D02*
X90814Y-42092D01*
X90814Y-41974D02*
X90814Y-42092D01*
X90696Y-41974D02*
X90814Y-41974D01*
X90864Y-41964D02*
X90864Y-42053D01*
X90864Y-42053D02*
X90893Y-42053D01*
X90893Y-41964D02*
X90893Y-42053D01*
X90864Y-41964D02*
X90893Y-41964D01*
G54D22*
X90706Y-42436D02*
X90294Y-42436D01*
X90304Y-41984D02*
X90864Y-41984D01*
G54D23*
X90862Y-42033D02*
G75*
G03X90862Y-42033I-28J0D01*
G74*
G01*
G54D22*
X90893Y-42073D02*
G75*
G03X90893Y-42347I0J-137D01*
G74*
G01*
X90107Y-42347D02*
G75*
G03X90107Y-42073I0J137D01*
G74*
G01*
G54D21*
X90696Y-40258D02*
X90696Y-40386D01*
X90696Y-40386D02*
X90893Y-40386D01*
X90893Y-40258D02*
X90893Y-40386D01*
X90696Y-40258D02*
X90893Y-40258D01*
X90696Y-40013D02*
X90696Y-40072D01*
X90696Y-40072D02*
X90795Y-40072D01*
X90795Y-40013D02*
X90795Y-40072D01*
X90696Y-40013D02*
X90795Y-40013D01*
X90696Y-40208D02*
X90696Y-40267D01*
X90696Y-40267D02*
X90795Y-40267D01*
X90795Y-40208D02*
X90795Y-40267D01*
X90696Y-40208D02*
X90795Y-40208D01*
X90696Y-40062D02*
X90696Y-40218D01*
X90696Y-40218D02*
X90765Y-40218D01*
X90765Y-40062D02*
X90765Y-40218D01*
X90696Y-40062D02*
X90765Y-40062D01*
X90107Y-40258D02*
X90107Y-40386D01*
X90107Y-40386D02*
X90304Y-40386D01*
X90304Y-40258D02*
X90304Y-40386D01*
X90107Y-40258D02*
X90304Y-40258D01*
X90107Y-39894D02*
X90107Y-40022D01*
X90107Y-40022D02*
X90304Y-40022D01*
X90304Y-39894D02*
X90304Y-40022D01*
X90107Y-39894D02*
X90304Y-39894D01*
X90205Y-40208D02*
X90205Y-40267D01*
X90205Y-40267D02*
X90304Y-40267D01*
X90304Y-40208D02*
X90304Y-40267D01*
X90205Y-40208D02*
X90304Y-40208D01*
X90205Y-40013D02*
X90205Y-40072D01*
X90205Y-40072D02*
X90304Y-40072D01*
X90304Y-40013D02*
X90304Y-40072D01*
X90205Y-40013D02*
X90304Y-40013D01*
X90235Y-40062D02*
X90235Y-40218D01*
X90235Y-40218D02*
X90304Y-40218D01*
X90304Y-40062D02*
X90304Y-40218D01*
X90235Y-40062D02*
X90304Y-40062D01*
X90500Y-40101D02*
X90500Y-40179D01*
X90500Y-40179D02*
X90578Y-40179D01*
X90578Y-40101D02*
X90578Y-40179D01*
X90500Y-40101D02*
X90578Y-40101D01*
X90696Y-39904D02*
X90696Y-40022D01*
X90696Y-40022D02*
X90814Y-40022D01*
X90814Y-39904D02*
X90814Y-40022D01*
X90696Y-39904D02*
X90814Y-39904D01*
X90864Y-39894D02*
X90864Y-39983D01*
X90864Y-39983D02*
X90893Y-39983D01*
X90893Y-39894D02*
X90893Y-39983D01*
X90864Y-39894D02*
X90893Y-39894D01*
G54D22*
X90706Y-40366D02*
X90294Y-40366D01*
X90304Y-39914D02*
X90864Y-39914D01*
G54D23*
X90862Y-39963D02*
G75*
G03X90862Y-39963I-28J0D01*
G74*
G01*
G54D22*
X90893Y-40003D02*
G75*
G03X90893Y-40277I0J-137D01*
G74*
G01*
X90107Y-40277D02*
G75*
G03X90107Y-40003I0J137D01*
G74*
G01*
G54D21*
X90696Y-38188D02*
X90696Y-38316D01*
X90696Y-38316D02*
X90893Y-38316D01*
X90893Y-38188D02*
X90893Y-38316D01*
X90696Y-38188D02*
X90893Y-38188D01*
X90696Y-37943D02*
X90696Y-38002D01*
X90696Y-38002D02*
X90795Y-38002D01*
X90795Y-37943D02*
X90795Y-38002D01*
X90696Y-37943D02*
X90795Y-37943D01*
X90696Y-38138D02*
X90696Y-38197D01*
X90696Y-38197D02*
X90795Y-38197D01*
X90795Y-38138D02*
X90795Y-38197D01*
X90696Y-38138D02*
X90795Y-38138D01*
X90696Y-37992D02*
X90696Y-38148D01*
X90696Y-38148D02*
X90765Y-38148D01*
X90765Y-37992D02*
X90765Y-38148D01*
X90696Y-37992D02*
X90765Y-37992D01*
X90107Y-38188D02*
X90107Y-38316D01*
X90107Y-38316D02*
X90304Y-38316D01*
X90304Y-38188D02*
X90304Y-38316D01*
X90107Y-38188D02*
X90304Y-38188D01*
X90107Y-37824D02*
X90107Y-37952D01*
X90107Y-37952D02*
X90304Y-37952D01*
X90304Y-37824D02*
X90304Y-37952D01*
X90107Y-37824D02*
X90304Y-37824D01*
X90205Y-38138D02*
X90205Y-38197D01*
X90205Y-38197D02*
X90304Y-38197D01*
X90304Y-38138D02*
X90304Y-38197D01*
X90205Y-38138D02*
X90304Y-38138D01*
X90205Y-37943D02*
X90205Y-38002D01*
X90205Y-38002D02*
X90304Y-38002D01*
X90304Y-37943D02*
X90304Y-38002D01*
X90205Y-37943D02*
X90304Y-37943D01*
X90235Y-37992D02*
X90235Y-38148D01*
X90235Y-38148D02*
X90304Y-38148D01*
X90304Y-37992D02*
X90304Y-38148D01*
X90235Y-37992D02*
X90304Y-37992D01*
X90500Y-38031D02*
X90500Y-38109D01*
X90500Y-38109D02*
X90578Y-38109D01*
X90578Y-38031D02*
X90578Y-38109D01*
X90500Y-38031D02*
X90578Y-38031D01*
X90696Y-37834D02*
X90696Y-37952D01*
X90696Y-37952D02*
X90814Y-37952D01*
X90814Y-37834D02*
X90814Y-37952D01*
X90696Y-37834D02*
X90814Y-37834D01*
X90864Y-37824D02*
X90864Y-37913D01*
X90864Y-37913D02*
X90893Y-37913D01*
X90893Y-37824D02*
X90893Y-37913D01*
X90864Y-37824D02*
X90893Y-37824D01*
G54D22*
X90706Y-38296D02*
X90294Y-38296D01*
X90304Y-37844D02*
X90864Y-37844D01*
G54D23*
X90862Y-37893D02*
G75*
G03X90862Y-37893I-28J0D01*
G74*
G01*
G54D22*
X90893Y-37933D02*
G75*
G03X90893Y-38207I0J-137D01*
G74*
G01*
X90107Y-38207D02*
G75*
G03X90107Y-37933I0J137D01*
G74*
G01*
G54D21*
X90696Y-36118D02*
X90696Y-36246D01*
X90696Y-36246D02*
X90893Y-36246D01*
X90893Y-36118D02*
X90893Y-36246D01*
X90696Y-36118D02*
X90893Y-36118D01*
X90696Y-35873D02*
X90696Y-35932D01*
X90696Y-35932D02*
X90795Y-35932D01*
X90795Y-35873D02*
X90795Y-35932D01*
X90696Y-35873D02*
X90795Y-35873D01*
X90696Y-36068D02*
X90696Y-36127D01*
X90696Y-36127D02*
X90795Y-36127D01*
X90795Y-36068D02*
X90795Y-36127D01*
X90696Y-36068D02*
X90795Y-36068D01*
X90696Y-35922D02*
X90696Y-36078D01*
X90696Y-36078D02*
X90765Y-36078D01*
X90765Y-35922D02*
X90765Y-36078D01*
X90696Y-35922D02*
X90765Y-35922D01*
X90107Y-36118D02*
X90107Y-36246D01*
X90107Y-36246D02*
X90304Y-36246D01*
X90304Y-36118D02*
X90304Y-36246D01*
X90107Y-36118D02*
X90304Y-36118D01*
X90107Y-35754D02*
X90107Y-35882D01*
X90107Y-35882D02*
X90304Y-35882D01*
X90304Y-35754D02*
X90304Y-35882D01*
X90107Y-35754D02*
X90304Y-35754D01*
X90205Y-36068D02*
X90205Y-36127D01*
X90205Y-36127D02*
X90304Y-36127D01*
X90304Y-36068D02*
X90304Y-36127D01*
X90205Y-36068D02*
X90304Y-36068D01*
X90205Y-35873D02*
X90205Y-35932D01*
X90205Y-35932D02*
X90304Y-35932D01*
X90304Y-35873D02*
X90304Y-35932D01*
X90205Y-35873D02*
X90304Y-35873D01*
X90235Y-35922D02*
X90235Y-36078D01*
X90235Y-36078D02*
X90304Y-36078D01*
X90304Y-35922D02*
X90304Y-36078D01*
X90235Y-35922D02*
X90304Y-35922D01*
X90500Y-35961D02*
X90500Y-36039D01*
X90500Y-36039D02*
X90578Y-36039D01*
X90578Y-35961D02*
X90578Y-36039D01*
X90500Y-35961D02*
X90578Y-35961D01*
X90696Y-35764D02*
X90696Y-35882D01*
X90696Y-35882D02*
X90814Y-35882D01*
X90814Y-35764D02*
X90814Y-35882D01*
X90696Y-35764D02*
X90814Y-35764D01*
X90864Y-35754D02*
X90864Y-35843D01*
X90864Y-35843D02*
X90893Y-35843D01*
X90893Y-35754D02*
X90893Y-35843D01*
X90864Y-35754D02*
X90893Y-35754D01*
G54D22*
X90706Y-36226D02*
X90294Y-36226D01*
X90304Y-35774D02*
X90864Y-35774D01*
G54D23*
X90862Y-35823D02*
G75*
G03X90862Y-35823I-28J0D01*
G74*
G01*
G54D22*
X90893Y-35863D02*
G75*
G03X90893Y-36137I0J-137D01*
G74*
G01*
X90107Y-36137D02*
G75*
G03X90107Y-35863I0J137D01*
G74*
G01*
G54D21*
X76628Y-49895D02*
X76628Y-49767D01*
X76628Y-49767D02*
X76431Y-49767D01*
X76431Y-49895D02*
X76431Y-49767D01*
X76628Y-49895D02*
X76431Y-49895D01*
X76628Y-50140D02*
X76628Y-50081D01*
X76628Y-50081D02*
X76529Y-50081D01*
X76529Y-50140D02*
X76529Y-50081D01*
X76628Y-50140D02*
X76529Y-50140D01*
X76628Y-49945D02*
X76628Y-49886D01*
X76628Y-49886D02*
X76529Y-49886D01*
X76529Y-49945D02*
X76529Y-49886D01*
X76628Y-49945D02*
X76529Y-49945D01*
X76628Y-50091D02*
X76628Y-49935D01*
X76628Y-49935D02*
X76559Y-49935D01*
X76559Y-50091D02*
X76559Y-49935D01*
X76628Y-50091D02*
X76559Y-50091D01*
X77217Y-49895D02*
X77217Y-49767D01*
X77217Y-49767D02*
X77020Y-49767D01*
X77020Y-49895D02*
X77020Y-49767D01*
X77217Y-49895D02*
X77020Y-49895D01*
X77217Y-50259D02*
X77217Y-50131D01*
X77217Y-50131D02*
X77020Y-50131D01*
X77020Y-50259D02*
X77020Y-50131D01*
X77217Y-50259D02*
X77020Y-50259D01*
X77119Y-49945D02*
X77119Y-49886D01*
X77119Y-49886D02*
X77020Y-49886D01*
X77020Y-49945D02*
X77020Y-49886D01*
X77119Y-49945D02*
X77020Y-49945D01*
X77119Y-50140D02*
X77119Y-50081D01*
X77119Y-50081D02*
X77020Y-50081D01*
X77020Y-50140D02*
X77020Y-50081D01*
X77119Y-50140D02*
X77020Y-50140D01*
X77089Y-50091D02*
X77089Y-49935D01*
X77089Y-49935D02*
X77020Y-49935D01*
X77020Y-50091D02*
X77020Y-49935D01*
X77089Y-50091D02*
X77020Y-50091D01*
X76824Y-50052D02*
X76824Y-49974D01*
X76824Y-49974D02*
X76746Y-49974D01*
X76746Y-50052D02*
X76746Y-49974D01*
X76824Y-50052D02*
X76746Y-50052D01*
X76628Y-50249D02*
X76628Y-50131D01*
X76628Y-50131D02*
X76510Y-50131D01*
X76510Y-50249D02*
X76510Y-50131D01*
X76628Y-50249D02*
X76510Y-50249D01*
X76460Y-50259D02*
X76460Y-50170D01*
X76460Y-50170D02*
X76431Y-50170D01*
X76431Y-50259D02*
X76431Y-50170D01*
X76460Y-50259D02*
X76431Y-50259D01*
G54D22*
X76618Y-49787D02*
X77030Y-49787D01*
X77020Y-50239D02*
X76460Y-50239D01*
G54D23*
X76518Y-50190D02*
G75*
G03X76518Y-50190I-28J0D01*
G74*
G01*
G54D22*
X76431Y-50150D02*
G75*
G03X76431Y-49876I0J137D01*
G74*
G01*
X77217Y-49876D02*
G75*
G03X77217Y-50150I0J-137D01*
G74*
G01*
G54D18*
X76950Y-50600D02*
X76950Y-51600D01*
X77650Y-51600D02*
X77650Y-50600D01*
X77650Y-51600D02*
X76950Y-51600D01*
X76950Y-50600D02*
X77650Y-50600D01*
G54D24*
X88147Y-45416D02*
X88422Y-45416D01*
X87753Y-45416D02*
X87478Y-45416D01*
X88147Y-44904D02*
X88422Y-44904D01*
X87478Y-44904D02*
X87753Y-44904D01*
X88422Y-44910D02*
X88422Y-45410D01*
X87478Y-45410D02*
X87478Y-44910D01*
X80696Y-49880D02*
X80696Y-50155D01*
X80696Y-49486D02*
X80696Y-49211D01*
X81208Y-49880D02*
X81208Y-50155D01*
X81208Y-49211D02*
X81208Y-49486D01*
X81202Y-50155D02*
X80702Y-50155D01*
X80702Y-49211D02*
X81202Y-49211D01*
X88811Y-42643D02*
X89086Y-42643D01*
X88417Y-42643D02*
X88142Y-42643D01*
X88811Y-42131D02*
X89086Y-42131D01*
X88142Y-42131D02*
X88417Y-42131D01*
X89086Y-42137D02*
X89086Y-42637D01*
X88142Y-42637D02*
X88142Y-42137D01*
G54D18*
X73093Y-46206D02*
X73993Y-46206D01*
X73993Y-46206D02*
X73993Y-46706D01*
X73993Y-46706D02*
X73093Y-46706D01*
X73093Y-46706D02*
X73093Y-46206D01*
X76667Y-48408D02*
X76667Y-49308D01*
X76667Y-49308D02*
X76167Y-49308D01*
X76167Y-49308D02*
X76167Y-48408D01*
X76167Y-48408D02*
X76667Y-48408D01*
X70722Y-44392D02*
X70722Y-45292D01*
X70722Y-45292D02*
X70222Y-45292D01*
X70222Y-45292D02*
X70222Y-44392D01*
X70222Y-44392D02*
X70722Y-44392D01*
G54D25*
X71000Y-31500D02*
X91000Y-31500D01*
X71000Y-33500D02*
X91000Y-33500D01*
X71000Y-33500D02*
X71000Y-31500D01*
X91000Y-33500D02*
X91000Y-31500D01*
X71000Y-52900D02*
X91000Y-52900D01*
X71000Y-54900D02*
X91000Y-54900D01*
X71000Y-54900D02*
X71000Y-52900D01*
X91000Y-54900D02*
X91000Y-52900D01*
G54D18*
X87502Y-45694D02*
X88402Y-45694D01*
X88402Y-45694D02*
X88402Y-46194D01*
X88402Y-46194D02*
X87502Y-46194D01*
X87502Y-46194D02*
X87502Y-45694D01*
X87502Y-46403D02*
X88402Y-46403D01*
X88402Y-46403D02*
X88402Y-46903D01*
X88402Y-46903D02*
X87502Y-46903D01*
X87502Y-46903D02*
X87502Y-46403D01*
X87502Y-47112D02*
X88402Y-47112D01*
X88402Y-47112D02*
X88402Y-47612D01*
X88402Y-47612D02*
X87502Y-47612D01*
X87502Y-47612D02*
X87502Y-47112D01*
X87502Y-47781D02*
X88402Y-47781D01*
X88402Y-47781D02*
X88402Y-48281D01*
X88402Y-48281D02*
X87502Y-48281D01*
X87502Y-48281D02*
X87502Y-47781D01*
X87502Y-48450D02*
X88402Y-48450D01*
X88402Y-48450D02*
X88402Y-48950D01*
X88402Y-48950D02*
X87502Y-48950D01*
X87502Y-48950D02*
X87502Y-48450D01*
X87502Y-49159D02*
X88402Y-49159D01*
X88402Y-49159D02*
X88402Y-49659D01*
X88402Y-49659D02*
X87502Y-49659D01*
X87502Y-49659D02*
X87502Y-49159D01*
X87502Y-49828D02*
X88402Y-49828D01*
X88402Y-49828D02*
X88402Y-50328D01*
X88402Y-50328D02*
X87502Y-50328D01*
X87502Y-50328D02*
X87502Y-49828D01*
X87502Y-50576D02*
X88402Y-50576D01*
X88402Y-50576D02*
X88402Y-51076D01*
X88402Y-51076D02*
X87502Y-51076D01*
X87502Y-51076D02*
X87502Y-50576D01*
G54D10*
X68640Y-54010D02*
X68640Y-47160D01*
X68640Y-47160D02*
X70440Y-47160D01*
X70440Y-47160D02*
X70440Y-54010D01*
X70440Y-54010D02*
X68640Y-54010D01*
G54D18*
X73322Y-44837D02*
X71322Y-44837D01*
X71322Y-44837D02*
X71322Y-43037D01*
X71322Y-43037D02*
X73322Y-43037D01*
X73322Y-43037D02*
X73322Y-44837D01*
X73322Y-44237D02*
X73122Y-44237D01*
X73122Y-44237D02*
X73122Y-43737D01*
X73122Y-43737D02*
X73322Y-43737D01*
X74108Y-43408D02*
X74108Y-44308D01*
X74108Y-44308D02*
X73608Y-44308D01*
X73608Y-44308D02*
X73608Y-43408D01*
X73608Y-43408D02*
X74108Y-43408D01*
X71794Y-46206D02*
X72694Y-46206D01*
X72694Y-46206D02*
X72694Y-46706D01*
X72694Y-46706D02*
X71794Y-46706D01*
X71794Y-46706D02*
X71794Y-46206D01*
G54D13*
X71208Y-36858D02*
X71208Y-40858D01*
X70208Y-36858D02*
X70208Y-40858D01*
X70208Y-40858D02*
X71208Y-40858D01*
X71208Y-36858D02*
X70208Y-36858D01*
X92287Y-21098D02*
X92287Y-17161D01*
X92287Y-17161D02*
X93192Y-17161D01*
X93192Y-17161D02*
X93192Y-30862D01*
X93192Y-30862D02*
X92287Y-30862D01*
X92287Y-30862D02*
X92287Y-20822D01*
G54D10*
X92292Y-21080D02*
X92292Y-30880D01*
X92292Y-21080D02*
X92292Y-30880D01*
X92292Y-30880D02*
X93142Y-30880D01*
G54D13*
X68811Y-21098D02*
X68811Y-17161D01*
X68811Y-17161D02*
X69716Y-17161D01*
X69716Y-17161D02*
X69716Y-30862D01*
X69716Y-30862D02*
X68811Y-30862D01*
X68811Y-30862D02*
X68811Y-20822D01*
G54D10*
X68816Y-21080D02*
X68816Y-30880D01*
X68816Y-21080D02*
X68816Y-30880D01*
X68816Y-30880D02*
X69666Y-30880D01*
X88675Y-44520D02*
X88675Y-44420D01*
X88675Y-44520D02*
X86875Y-44520D01*
X86875Y-44520D02*
X86875Y-42870D01*
X86875Y-42870D02*
X88675Y-42870D01*
X88675Y-42870D02*
X88675Y-44470D01*
G54D18*
X69971Y-41301D02*
X70871Y-41301D01*
X70871Y-41301D02*
X70871Y-41801D01*
X70871Y-41801D02*
X69971Y-41801D01*
X69971Y-41801D02*
X69971Y-41301D01*
G54D26*
X92045Y-52642D02*
X92102Y-52661D01*
X92197Y-52661D01*
X92235Y-52642D01*
X92254Y-52623D01*
X92273Y-52585D01*
X92273Y-52547D01*
X92254Y-52509D01*
X92235Y-52490D01*
X92197Y-52471D01*
X92121Y-52452D01*
X92083Y-52433D01*
X92064Y-52414D01*
X92045Y-52376D01*
X92045Y-52338D01*
X92064Y-52300D01*
X92083Y-52280D01*
X92121Y-52261D01*
X92216Y-52261D01*
X92273Y-52280D01*
X92407Y-52261D02*
X92502Y-52661D01*
X92578Y-52376D01*
X92654Y-52661D01*
X92750Y-52261D01*
X93073Y-52395D02*
X93073Y-52661D01*
X92978Y-52242D02*
X92883Y-52528D01*
X93131Y-52528D01*
X93042Y-51804D02*
X93061Y-51747D01*
X93061Y-51652D01*
X93042Y-51614D01*
X93023Y-51595D01*
X92985Y-51576D01*
X92947Y-51576D01*
X92909Y-51595D01*
X92890Y-51614D01*
X92871Y-51652D01*
X92852Y-51728D01*
X92833Y-51766D01*
X92814Y-51785D01*
X92776Y-51804D01*
X92738Y-51804D01*
X92700Y-51785D01*
X92680Y-51766D01*
X92661Y-51728D01*
X92661Y-51633D01*
X92680Y-51576D01*
X92661Y-51442D02*
X93061Y-51347D01*
X92776Y-51271D01*
X93061Y-51195D01*
X92661Y-51100D01*
X93100Y-51042D02*
X93100Y-50738D01*
X93061Y-50642D02*
X92661Y-50642D01*
X92661Y-50490D01*
X92680Y-50452D01*
X92700Y-50433D01*
X92738Y-50414D01*
X92795Y-50414D01*
X92833Y-50433D01*
X92852Y-50452D01*
X92871Y-50490D01*
X92871Y-50642D01*
X92661Y-50242D02*
X92985Y-50242D01*
X93023Y-50223D01*
X93042Y-50204D01*
X93061Y-50166D01*
X93061Y-50090D01*
X93042Y-50052D01*
X93023Y-50033D01*
X92985Y-50014D01*
X92661Y-50014D01*
X93042Y-49842D02*
X93061Y-49785D01*
X93061Y-49690D01*
X93042Y-49652D01*
X93023Y-49633D01*
X92985Y-49614D01*
X92947Y-49614D01*
X92909Y-49633D01*
X92890Y-49652D01*
X92871Y-49690D01*
X92852Y-49766D01*
X92833Y-49804D01*
X92814Y-49823D01*
X92776Y-49842D01*
X92738Y-49842D01*
X92700Y-49823D01*
X92680Y-49804D01*
X92661Y-49766D01*
X92661Y-49671D01*
X92680Y-49614D01*
X93061Y-49442D02*
X92661Y-49442D01*
X92852Y-49442D02*
X92852Y-49214D01*
X93061Y-49214D02*
X92661Y-49214D01*
X92061Y-47886D02*
X92118Y-47905D01*
X92213Y-47905D01*
X92251Y-47886D01*
X92270Y-47867D01*
X92289Y-47829D01*
X92289Y-47791D01*
X92270Y-47753D01*
X92251Y-47734D01*
X92213Y-47715D01*
X92137Y-47696D01*
X92099Y-47677D01*
X92080Y-47658D01*
X92061Y-47620D01*
X92061Y-47582D01*
X92080Y-47544D01*
X92099Y-47525D01*
X92137Y-47505D01*
X92232Y-47505D01*
X92289Y-47525D01*
X92423Y-47505D02*
X92518Y-47905D01*
X92594Y-47620D01*
X92670Y-47905D01*
X92765Y-47505D01*
X92880Y-47505D02*
X93127Y-47505D01*
X92994Y-47658D01*
X93051Y-47658D01*
X93089Y-47677D01*
X93108Y-47696D01*
X93127Y-47734D01*
X93127Y-47829D01*
X93108Y-47867D01*
X93089Y-47886D01*
X93051Y-47905D01*
X92937Y-47905D01*
X92899Y-47886D01*
X92880Y-47867D01*
X93042Y-47054D02*
X93061Y-46997D01*
X93061Y-46902D01*
X93042Y-46864D01*
X93023Y-46845D01*
X92985Y-46826D01*
X92947Y-46826D01*
X92909Y-46845D01*
X92890Y-46864D01*
X92871Y-46902D01*
X92852Y-46978D01*
X92833Y-47016D01*
X92814Y-47035D01*
X92776Y-47054D01*
X92738Y-47054D01*
X92700Y-47035D01*
X92680Y-47016D01*
X92661Y-46978D01*
X92661Y-46883D01*
X92680Y-46826D01*
X92661Y-46692D02*
X93061Y-46597D01*
X92776Y-46521D01*
X93061Y-46445D01*
X92661Y-46350D01*
X93100Y-46292D02*
X93100Y-45988D01*
X93061Y-45892D02*
X92661Y-45892D01*
X92661Y-45740D01*
X92680Y-45702D01*
X92700Y-45683D01*
X92738Y-45664D01*
X92795Y-45664D01*
X92833Y-45683D01*
X92852Y-45702D01*
X92871Y-45740D01*
X92871Y-45892D01*
X92661Y-45492D02*
X92985Y-45492D01*
X93023Y-45473D01*
X93042Y-45454D01*
X93061Y-45416D01*
X93061Y-45340D01*
X93042Y-45302D01*
X93023Y-45283D01*
X92985Y-45264D01*
X92661Y-45264D01*
X93042Y-45092D02*
X93061Y-45035D01*
X93061Y-44940D01*
X93042Y-44902D01*
X93023Y-44883D01*
X92985Y-44864D01*
X92947Y-44864D01*
X92909Y-44883D01*
X92890Y-44902D01*
X92871Y-44940D01*
X92852Y-45016D01*
X92833Y-45054D01*
X92814Y-45073D01*
X92776Y-45092D01*
X92738Y-45092D01*
X92700Y-45073D01*
X92680Y-45054D01*
X92661Y-45016D01*
X92661Y-44921D01*
X92680Y-44864D01*
X93061Y-44692D02*
X92661Y-44692D01*
X92852Y-44692D02*
X92852Y-44464D01*
X93061Y-44464D02*
X92661Y-44464D01*
X92120Y-42831D02*
X92177Y-42850D01*
X92272Y-42850D01*
X92310Y-42831D01*
X92329Y-42812D01*
X92348Y-42774D01*
X92348Y-42736D01*
X92329Y-42698D01*
X92310Y-42679D01*
X92272Y-42660D01*
X92196Y-42641D01*
X92158Y-42622D01*
X92139Y-42603D01*
X92120Y-42565D01*
X92120Y-42527D01*
X92139Y-42488D01*
X92158Y-42469D01*
X92196Y-42450D01*
X92291Y-42450D01*
X92348Y-42469D01*
X92482Y-42450D02*
X92577Y-42850D01*
X92653Y-42565D01*
X92729Y-42850D01*
X92824Y-42450D01*
X92958Y-42488D02*
X92977Y-42469D01*
X93015Y-42450D01*
X93110Y-42450D01*
X93148Y-42469D01*
X93167Y-42488D01*
X93186Y-42527D01*
X93186Y-42565D01*
X93167Y-42622D01*
X92939Y-42850D01*
X93186Y-42850D01*
X93031Y-42044D02*
X93050Y-41987D01*
X93050Y-41892D01*
X93031Y-41854D01*
X93011Y-41835D01*
X92973Y-41816D01*
X92935Y-41816D01*
X92897Y-41835D01*
X92878Y-41854D01*
X92859Y-41892D01*
X92840Y-41968D01*
X92821Y-42006D01*
X92802Y-42025D01*
X92764Y-42044D01*
X92726Y-42044D01*
X92688Y-42025D01*
X92669Y-42006D01*
X92650Y-41968D01*
X92650Y-41873D01*
X92669Y-41816D01*
X92650Y-41683D02*
X93050Y-41587D01*
X92764Y-41511D01*
X93050Y-41435D01*
X92650Y-41340D01*
X93088Y-41283D02*
X93088Y-40978D01*
X93050Y-40883D02*
X92650Y-40883D01*
X92650Y-40730D01*
X92669Y-40692D01*
X92688Y-40673D01*
X92726Y-40654D01*
X92783Y-40654D01*
X92821Y-40673D01*
X92840Y-40692D01*
X92859Y-40730D01*
X92859Y-40883D01*
X92650Y-40483D02*
X92973Y-40483D01*
X93011Y-40463D01*
X93031Y-40444D01*
X93050Y-40406D01*
X93050Y-40330D01*
X93031Y-40292D01*
X93011Y-40273D01*
X92973Y-40254D01*
X92650Y-40254D01*
X93031Y-40083D02*
X93050Y-40025D01*
X93050Y-39930D01*
X93031Y-39892D01*
X93011Y-39873D01*
X92973Y-39854D01*
X92935Y-39854D01*
X92897Y-39873D01*
X92878Y-39892D01*
X92859Y-39930D01*
X92840Y-40006D01*
X92821Y-40044D01*
X92802Y-40063D01*
X92764Y-40083D01*
X92726Y-40083D01*
X92688Y-40063D01*
X92669Y-40044D01*
X92650Y-40006D01*
X92650Y-39911D01*
X92669Y-39854D01*
X93050Y-39683D02*
X92650Y-39683D01*
X92840Y-39683D02*
X92840Y-39454D01*
X93050Y-39454D02*
X92650Y-39454D01*
X91986Y-38075D02*
X92043Y-38094D01*
X92138Y-38094D01*
X92176Y-38075D01*
X92195Y-38056D01*
X92214Y-38018D01*
X92214Y-37980D01*
X92195Y-37942D01*
X92176Y-37923D01*
X92138Y-37904D01*
X92062Y-37885D01*
X92024Y-37866D01*
X92005Y-37847D01*
X91986Y-37809D01*
X91986Y-37771D01*
X92005Y-37733D01*
X92024Y-37714D01*
X92062Y-37694D01*
X92157Y-37694D01*
X92214Y-37714D01*
X92348Y-37694D02*
X92443Y-38094D01*
X92519Y-37809D01*
X92595Y-38094D01*
X92691Y-37694D01*
X93053Y-38094D02*
X92824Y-38094D01*
X92938Y-38094D02*
X92938Y-37694D01*
X92900Y-37752D01*
X92862Y-37790D01*
X92824Y-37809D01*
X93042Y-37304D02*
X93061Y-37247D01*
X93061Y-37152D01*
X93042Y-37114D01*
X93023Y-37095D01*
X92985Y-37076D01*
X92947Y-37076D01*
X92909Y-37095D01*
X92890Y-37114D01*
X92871Y-37152D01*
X92852Y-37228D01*
X92833Y-37266D01*
X92814Y-37285D01*
X92776Y-37304D01*
X92738Y-37304D01*
X92700Y-37285D01*
X92680Y-37266D01*
X92661Y-37228D01*
X92661Y-37133D01*
X92680Y-37076D01*
X92661Y-36942D02*
X93061Y-36847D01*
X92776Y-36771D01*
X93061Y-36695D01*
X92661Y-36600D01*
X93100Y-36542D02*
X93100Y-36238D01*
X93061Y-36142D02*
X92661Y-36142D01*
X92661Y-35990D01*
X92680Y-35952D01*
X92700Y-35933D01*
X92738Y-35914D01*
X92795Y-35914D01*
X92833Y-35933D01*
X92852Y-35952D01*
X92871Y-35990D01*
X92871Y-36142D01*
X92661Y-35742D02*
X92985Y-35742D01*
X93023Y-35723D01*
X93042Y-35704D01*
X93061Y-35666D01*
X93061Y-35590D01*
X93042Y-35552D01*
X93023Y-35533D01*
X92985Y-35514D01*
X92661Y-35514D01*
X93042Y-35342D02*
X93061Y-35285D01*
X93061Y-35190D01*
X93042Y-35152D01*
X93023Y-35133D01*
X92985Y-35114D01*
X92947Y-35114D01*
X92909Y-35133D01*
X92890Y-35152D01*
X92871Y-35190D01*
X92852Y-35266D01*
X92833Y-35304D01*
X92814Y-35323D01*
X92776Y-35342D01*
X92738Y-35342D01*
X92700Y-35323D01*
X92680Y-35304D01*
X92661Y-35266D01*
X92661Y-35171D01*
X92680Y-35114D01*
X93061Y-34942D02*
X92661Y-34942D01*
X92852Y-34942D02*
X92852Y-34714D01*
X93061Y-34714D02*
X92661Y-34714D01*
G54D12*
X85311Y-48589D02*
X85635Y-48589D01*
X85673Y-48570D01*
X85692Y-48551D01*
X85711Y-48513D01*
X85711Y-48437D01*
X85692Y-48399D01*
X85673Y-48380D01*
X85635Y-48361D01*
X85311Y-48361D01*
X85445Y-47999D02*
X85711Y-47999D01*
X85292Y-48094D02*
X85578Y-48189D01*
X85578Y-47942D01*
X89571Y-50671D02*
X89271Y-50671D01*
X89271Y-50600D01*
X89285Y-50557D01*
X89314Y-50528D01*
X89342Y-50514D01*
X89400Y-50500D01*
X89442Y-50500D01*
X89500Y-50514D01*
X89528Y-50528D01*
X89557Y-50557D01*
X89571Y-50600D01*
X89571Y-50671D01*
X89400Y-50328D02*
X89385Y-50357D01*
X89371Y-50371D01*
X89342Y-50385D01*
X89328Y-50385D01*
X89300Y-50371D01*
X89285Y-50357D01*
X89271Y-50328D01*
X89271Y-50271D01*
X89285Y-50242D01*
X89300Y-50228D01*
X89328Y-50214D01*
X89342Y-50214D01*
X89371Y-50228D01*
X89385Y-50242D01*
X89400Y-50271D01*
X89400Y-50328D01*
X89414Y-50357D01*
X89428Y-50371D01*
X89457Y-50385D01*
X89514Y-50385D01*
X89542Y-50371D01*
X89557Y-50357D01*
X89571Y-50328D01*
X89571Y-50271D01*
X89557Y-50242D01*
X89542Y-50228D01*
X89514Y-50214D01*
X89457Y-50214D01*
X89428Y-50228D01*
X89414Y-50242D01*
X89400Y-50271D01*
X89571Y-48641D02*
X89271Y-48641D01*
X89271Y-48570D01*
X89285Y-48527D01*
X89314Y-48498D01*
X89342Y-48484D01*
X89400Y-48470D01*
X89442Y-48470D01*
X89500Y-48484D01*
X89528Y-48498D01*
X89557Y-48527D01*
X89571Y-48570D01*
X89571Y-48641D01*
X89271Y-48370D02*
X89271Y-48170D01*
X89571Y-48298D01*
X89571Y-46571D02*
X89271Y-46571D01*
X89271Y-46500D01*
X89285Y-46457D01*
X89314Y-46428D01*
X89342Y-46414D01*
X89400Y-46400D01*
X89442Y-46400D01*
X89500Y-46414D01*
X89528Y-46428D01*
X89557Y-46457D01*
X89571Y-46500D01*
X89571Y-46571D01*
X89271Y-46142D02*
X89271Y-46200D01*
X89285Y-46228D01*
X89300Y-46242D01*
X89342Y-46271D01*
X89400Y-46285D01*
X89514Y-46285D01*
X89542Y-46271D01*
X89557Y-46257D01*
X89571Y-46228D01*
X89571Y-46171D01*
X89557Y-46142D01*
X89542Y-46128D01*
X89514Y-46114D01*
X89442Y-46114D01*
X89414Y-46128D01*
X89400Y-46142D01*
X89385Y-46171D01*
X89385Y-46228D01*
X89400Y-46257D01*
X89414Y-46271D01*
X89442Y-46285D01*
X89571Y-44501D02*
X89271Y-44501D01*
X89271Y-44430D01*
X89285Y-44387D01*
X89314Y-44358D01*
X89342Y-44344D01*
X89400Y-44330D01*
X89442Y-44330D01*
X89500Y-44344D01*
X89528Y-44358D01*
X89557Y-44387D01*
X89571Y-44430D01*
X89571Y-44501D01*
X89271Y-44058D02*
X89271Y-44201D01*
X89414Y-44215D01*
X89400Y-44201D01*
X89385Y-44172D01*
X89385Y-44101D01*
X89400Y-44072D01*
X89414Y-44058D01*
X89442Y-44044D01*
X89514Y-44044D01*
X89542Y-44058D01*
X89557Y-44072D01*
X89571Y-44101D01*
X89571Y-44172D01*
X89557Y-44201D01*
X89542Y-44215D01*
X89571Y-42431D02*
X89271Y-42431D01*
X89271Y-42360D01*
X89285Y-42317D01*
X89314Y-42288D01*
X89342Y-42274D01*
X89400Y-42260D01*
X89442Y-42260D01*
X89500Y-42274D01*
X89528Y-42288D01*
X89557Y-42317D01*
X89571Y-42360D01*
X89571Y-42431D01*
X89371Y-42002D02*
X89571Y-42002D01*
X89257Y-42074D02*
X89471Y-42145D01*
X89471Y-41960D01*
X89571Y-40361D02*
X89271Y-40361D01*
X89271Y-40290D01*
X89285Y-40247D01*
X89314Y-40218D01*
X89342Y-40204D01*
X89400Y-40190D01*
X89442Y-40190D01*
X89500Y-40204D01*
X89528Y-40218D01*
X89557Y-40247D01*
X89571Y-40290D01*
X89571Y-40361D01*
X89271Y-40090D02*
X89271Y-39904D01*
X89385Y-40004D01*
X89385Y-39961D01*
X89400Y-39932D01*
X89414Y-39918D01*
X89442Y-39904D01*
X89514Y-39904D01*
X89542Y-39918D01*
X89557Y-39932D01*
X89571Y-39961D01*
X89571Y-40047D01*
X89557Y-40075D01*
X89542Y-40090D01*
X89571Y-38291D02*
X89271Y-38291D01*
X89271Y-38220D01*
X89285Y-38177D01*
X89314Y-38148D01*
X89342Y-38134D01*
X89400Y-38120D01*
X89442Y-38120D01*
X89500Y-38134D01*
X89528Y-38148D01*
X89557Y-38177D01*
X89571Y-38220D01*
X89571Y-38291D01*
X89300Y-38005D02*
X89285Y-37991D01*
X89271Y-37962D01*
X89271Y-37891D01*
X89285Y-37862D01*
X89300Y-37848D01*
X89328Y-37834D01*
X89357Y-37834D01*
X89400Y-37848D01*
X89571Y-38020D01*
X89571Y-37834D01*
X89571Y-36221D02*
X89271Y-36221D01*
X89271Y-36150D01*
X89285Y-36107D01*
X89314Y-36078D01*
X89342Y-36064D01*
X89400Y-36050D01*
X89442Y-36050D01*
X89500Y-36064D01*
X89528Y-36078D01*
X89557Y-36107D01*
X89571Y-36150D01*
X89571Y-36221D01*
X89571Y-35764D02*
X89571Y-35935D01*
X89571Y-35850D02*
X89271Y-35850D01*
X89314Y-35878D01*
X89342Y-35907D01*
X89357Y-35935D01*
X77702Y-50134D02*
X77702Y-49834D01*
X77774Y-49834D01*
X77816Y-49848D01*
X77845Y-49877D01*
X77859Y-49905D01*
X77874Y-49963D01*
X77874Y-50005D01*
X77859Y-50063D01*
X77845Y-50091D01*
X77816Y-50120D01*
X77774Y-50134D01*
X77702Y-50134D01*
X78016Y-50134D02*
X78074Y-50134D01*
X78102Y-50120D01*
X78116Y-50105D01*
X78145Y-50063D01*
X78159Y-50005D01*
X78159Y-49891D01*
X78145Y-49863D01*
X78131Y-49848D01*
X78102Y-49834D01*
X78045Y-49834D01*
X78016Y-49848D01*
X78002Y-49863D01*
X77988Y-49891D01*
X77988Y-49963D01*
X78002Y-49991D01*
X78016Y-50005D01*
X78045Y-50020D01*
X78102Y-50020D01*
X78131Y-50005D01*
X78145Y-49991D01*
X78159Y-49963D01*
X76535Y-51307D02*
X76521Y-51335D01*
X76521Y-51378D01*
X76535Y-51421D01*
X76564Y-51450D01*
X76592Y-51464D01*
X76650Y-51478D01*
X76692Y-51478D01*
X76750Y-51464D01*
X76778Y-51450D01*
X76807Y-51421D01*
X76821Y-51378D01*
X76821Y-51350D01*
X76807Y-51307D01*
X76792Y-51292D01*
X76692Y-51292D01*
X76692Y-51350D01*
X76807Y-51178D02*
X76821Y-51135D01*
X76821Y-51064D01*
X76807Y-51035D01*
X76792Y-51021D01*
X76764Y-51007D01*
X76735Y-51007D01*
X76707Y-51021D01*
X76692Y-51035D01*
X76678Y-51064D01*
X76664Y-51121D01*
X76650Y-51150D01*
X76635Y-51164D01*
X76607Y-51178D01*
X76578Y-51178D01*
X76550Y-51164D01*
X76535Y-51150D01*
X76521Y-51121D01*
X76521Y-51050D01*
X76535Y-51007D01*
X76521Y-50907D02*
X76521Y-50721D01*
X76635Y-50821D01*
X76635Y-50778D01*
X76650Y-50750D01*
X76664Y-50735D01*
X76692Y-50721D01*
X76764Y-50721D01*
X76792Y-50735D01*
X76807Y-50750D01*
X76821Y-50778D01*
X76821Y-50864D01*
X76807Y-50892D01*
X76792Y-50907D01*
X86807Y-45292D02*
X86792Y-45307D01*
X86750Y-45321D01*
X86721Y-45321D01*
X86678Y-45307D01*
X86650Y-45278D01*
X86635Y-45250D01*
X86621Y-45192D01*
X86621Y-45150D01*
X86635Y-45092D01*
X86650Y-45064D01*
X86678Y-45035D01*
X86721Y-45021D01*
X86750Y-45021D01*
X86792Y-45035D01*
X86807Y-45050D01*
X86921Y-45050D02*
X86935Y-45035D01*
X86964Y-45021D01*
X87035Y-45021D01*
X87064Y-45035D01*
X87078Y-45050D01*
X87092Y-45078D01*
X87092Y-45107D01*
X87078Y-45150D01*
X86907Y-45321D01*
X87092Y-45321D01*
X87192Y-45021D02*
X87392Y-45021D01*
X87264Y-45321D01*
X81644Y-49875D02*
X81659Y-49890D01*
X81673Y-49933D01*
X81673Y-49961D01*
X81659Y-50004D01*
X81630Y-50033D01*
X81602Y-50047D01*
X81544Y-50061D01*
X81502Y-50061D01*
X81444Y-50047D01*
X81416Y-50033D01*
X81387Y-50004D01*
X81373Y-49961D01*
X81373Y-49933D01*
X81387Y-49890D01*
X81402Y-49875D01*
X81402Y-49761D02*
X81387Y-49747D01*
X81373Y-49718D01*
X81373Y-49647D01*
X81387Y-49618D01*
X81402Y-49604D01*
X81430Y-49590D01*
X81459Y-49590D01*
X81502Y-49604D01*
X81673Y-49775D01*
X81673Y-49590D01*
X81373Y-49404D02*
X81373Y-49375D01*
X81387Y-49347D01*
X81402Y-49333D01*
X81430Y-49318D01*
X81487Y-49304D01*
X81559Y-49304D01*
X81616Y-49318D01*
X81644Y-49333D01*
X81659Y-49347D01*
X81673Y-49375D01*
X81673Y-49404D01*
X81659Y-49433D01*
X81644Y-49447D01*
X81616Y-49461D01*
X81559Y-49475D01*
X81487Y-49475D01*
X81430Y-49461D01*
X81402Y-49447D01*
X81387Y-49433D01*
X81373Y-49404D01*
X88692Y-41792D02*
X88707Y-41807D01*
X88721Y-41850D01*
X88721Y-41878D01*
X88707Y-41921D01*
X88678Y-41950D01*
X88650Y-41964D01*
X88592Y-41978D01*
X88550Y-41978D01*
X88492Y-41964D01*
X88464Y-41950D01*
X88435Y-41921D01*
X88421Y-41878D01*
X88421Y-41850D01*
X88435Y-41807D01*
X88450Y-41792D01*
X88450Y-41678D02*
X88435Y-41664D01*
X88421Y-41635D01*
X88421Y-41564D01*
X88435Y-41535D01*
X88450Y-41521D01*
X88478Y-41507D01*
X88507Y-41507D01*
X88550Y-41521D01*
X88721Y-41692D01*
X88721Y-41507D01*
X88421Y-41250D02*
X88421Y-41307D01*
X88435Y-41335D01*
X88450Y-41350D01*
X88492Y-41378D01*
X88550Y-41392D01*
X88664Y-41392D01*
X88692Y-41378D01*
X88707Y-41364D01*
X88721Y-41335D01*
X88721Y-41278D01*
X88707Y-41250D01*
X88692Y-41235D01*
X88664Y-41221D01*
X88592Y-41221D01*
X88564Y-41235D01*
X88550Y-41250D01*
X88535Y-41278D01*
X88535Y-41335D01*
X88550Y-41364D01*
X88564Y-41378D01*
X88592Y-41392D01*
X73350Y-47168D02*
X73250Y-47025D01*
X73179Y-47168D02*
X73179Y-46868D01*
X73293Y-46868D01*
X73321Y-46882D01*
X73336Y-46897D01*
X73350Y-46925D01*
X73350Y-46968D01*
X73336Y-46997D01*
X73321Y-47011D01*
X73293Y-47025D01*
X73179Y-47025D01*
X73636Y-47168D02*
X73464Y-47168D01*
X73550Y-47168D02*
X73550Y-46868D01*
X73521Y-46911D01*
X73493Y-46940D01*
X73464Y-46954D01*
X73893Y-46868D02*
X73836Y-46868D01*
X73807Y-46882D01*
X73793Y-46897D01*
X73764Y-46940D01*
X73750Y-46997D01*
X73750Y-47111D01*
X73764Y-47140D01*
X73779Y-47154D01*
X73807Y-47168D01*
X73864Y-47168D01*
X73893Y-47154D01*
X73907Y-47140D01*
X73921Y-47111D01*
X73921Y-47040D01*
X73907Y-47011D01*
X73893Y-46997D01*
X73864Y-46982D01*
X73807Y-46982D01*
X73779Y-46997D01*
X73764Y-47011D01*
X73750Y-47040D01*
X76007Y-49064D02*
X75864Y-49164D01*
X76007Y-49235D02*
X75707Y-49235D01*
X75707Y-49121D01*
X75722Y-49092D01*
X75736Y-49078D01*
X75764Y-49064D01*
X75807Y-49064D01*
X75836Y-49078D01*
X75850Y-49092D01*
X75864Y-49121D01*
X75864Y-49235D01*
X76007Y-48778D02*
X76007Y-48949D01*
X76007Y-48864D02*
X75707Y-48864D01*
X75750Y-48892D01*
X75779Y-48921D01*
X75793Y-48949D01*
X75736Y-48664D02*
X75722Y-48649D01*
X75707Y-48621D01*
X75707Y-48549D01*
X75722Y-48521D01*
X75736Y-48506D01*
X75764Y-48492D01*
X75793Y-48492D01*
X75836Y-48506D01*
X76007Y-48678D01*
X76007Y-48492D01*
X71160Y-45503D02*
X71017Y-45603D01*
X71160Y-45675D02*
X70860Y-45675D01*
X70860Y-45561D01*
X70875Y-45532D01*
X70889Y-45518D01*
X70917Y-45503D01*
X70960Y-45503D01*
X70989Y-45518D01*
X71003Y-45532D01*
X71017Y-45561D01*
X71017Y-45675D01*
X71160Y-45218D02*
X71160Y-45389D01*
X71160Y-45303D02*
X70860Y-45303D01*
X70903Y-45332D01*
X70932Y-45361D01*
X70946Y-45389D01*
X70860Y-45118D02*
X70860Y-44918D01*
X71160Y-45046D01*
G54D27*
X86924Y-46065D02*
X86864Y-45969D01*
X86821Y-46065D02*
X86821Y-45865D01*
X86890Y-45865D01*
X86907Y-45874D01*
X86915Y-45884D01*
X86924Y-45903D01*
X86924Y-45931D01*
X86915Y-45950D01*
X86907Y-45960D01*
X86890Y-45969D01*
X86821Y-45969D01*
X87095Y-46065D02*
X86993Y-46065D01*
X87044Y-46065D02*
X87044Y-45865D01*
X87027Y-45893D01*
X87010Y-45912D01*
X86993Y-45922D01*
X87207Y-45865D02*
X87224Y-45865D01*
X87241Y-45874D01*
X87250Y-45884D01*
X87258Y-45903D01*
X87267Y-45941D01*
X87267Y-45989D01*
X87258Y-46027D01*
X87250Y-46046D01*
X87241Y-46055D01*
X87224Y-46065D01*
X87207Y-46065D01*
X87190Y-46055D01*
X87181Y-46046D01*
X87173Y-46027D01*
X87164Y-45989D01*
X87164Y-45941D01*
X87173Y-45903D01*
X87181Y-45884D01*
X87190Y-45874D01*
X87207Y-45865D01*
X87378Y-45865D02*
X87395Y-45865D01*
X87413Y-45874D01*
X87421Y-45884D01*
X87430Y-45903D01*
X87438Y-45941D01*
X87438Y-45989D01*
X87430Y-46027D01*
X87421Y-46046D01*
X87413Y-46055D01*
X87395Y-46065D01*
X87378Y-46065D01*
X87361Y-46055D01*
X87353Y-46046D01*
X87344Y-46027D01*
X87335Y-45989D01*
X87335Y-45941D01*
X87344Y-45903D01*
X87353Y-45884D01*
X87361Y-45874D01*
X87378Y-45865D01*
X86845Y-46773D02*
X86785Y-46678D01*
X86742Y-46773D02*
X86742Y-46573D01*
X86811Y-46573D01*
X86828Y-46583D01*
X86837Y-46592D01*
X86845Y-46611D01*
X86845Y-46640D01*
X86837Y-46659D01*
X86828Y-46669D01*
X86811Y-46678D01*
X86742Y-46678D01*
X87017Y-46773D02*
X86914Y-46773D01*
X86965Y-46773D02*
X86965Y-46573D01*
X86948Y-46602D01*
X86931Y-46621D01*
X86914Y-46631D01*
X87128Y-46573D02*
X87145Y-46573D01*
X87162Y-46583D01*
X87171Y-46592D01*
X87180Y-46611D01*
X87188Y-46650D01*
X87188Y-46697D01*
X87180Y-46735D01*
X87171Y-46754D01*
X87162Y-46764D01*
X87145Y-46773D01*
X87128Y-46773D01*
X87111Y-46764D01*
X87102Y-46754D01*
X87094Y-46735D01*
X87085Y-46697D01*
X87085Y-46650D01*
X87094Y-46611D01*
X87102Y-46592D01*
X87111Y-46583D01*
X87128Y-46573D01*
X87360Y-46773D02*
X87257Y-46773D01*
X87308Y-46773D02*
X87308Y-46573D01*
X87291Y-46602D01*
X87274Y-46621D01*
X87257Y-46631D01*
X86806Y-47443D02*
X86746Y-47347D01*
X86703Y-47443D02*
X86703Y-47243D01*
X86772Y-47243D01*
X86789Y-47252D01*
X86797Y-47262D01*
X86806Y-47281D01*
X86806Y-47309D01*
X86797Y-47328D01*
X86789Y-47338D01*
X86772Y-47347D01*
X86703Y-47347D01*
X86977Y-47443D02*
X86875Y-47443D01*
X86926Y-47443D02*
X86926Y-47243D01*
X86909Y-47271D01*
X86892Y-47290D01*
X86875Y-47300D01*
X87089Y-47243D02*
X87106Y-47243D01*
X87123Y-47252D01*
X87132Y-47262D01*
X87140Y-47281D01*
X87149Y-47319D01*
X87149Y-47366D01*
X87140Y-47405D01*
X87132Y-47424D01*
X87123Y-47433D01*
X87106Y-47443D01*
X87089Y-47443D01*
X87072Y-47433D01*
X87063Y-47424D01*
X87055Y-47405D01*
X87046Y-47366D01*
X87046Y-47319D01*
X87055Y-47281D01*
X87063Y-47262D01*
X87072Y-47252D01*
X87089Y-47243D01*
X87217Y-47262D02*
X87226Y-47252D01*
X87243Y-47243D01*
X87286Y-47243D01*
X87303Y-47252D01*
X87312Y-47262D01*
X87320Y-47281D01*
X87320Y-47300D01*
X87312Y-47328D01*
X87209Y-47443D01*
X87320Y-47443D01*
X86806Y-48151D02*
X86746Y-48056D01*
X86703Y-48151D02*
X86703Y-47951D01*
X86772Y-47951D01*
X86789Y-47961D01*
X86797Y-47970D01*
X86806Y-47989D01*
X86806Y-48018D01*
X86797Y-48037D01*
X86789Y-48047D01*
X86772Y-48056D01*
X86703Y-48056D01*
X86977Y-48151D02*
X86875Y-48151D01*
X86926Y-48151D02*
X86926Y-47951D01*
X86909Y-47980D01*
X86892Y-47999D01*
X86875Y-48008D01*
X87089Y-47951D02*
X87106Y-47951D01*
X87123Y-47961D01*
X87132Y-47970D01*
X87140Y-47989D01*
X87149Y-48028D01*
X87149Y-48075D01*
X87140Y-48113D01*
X87132Y-48132D01*
X87123Y-48142D01*
X87106Y-48151D01*
X87089Y-48151D01*
X87072Y-48142D01*
X87063Y-48132D01*
X87055Y-48113D01*
X87046Y-48075D01*
X87046Y-48028D01*
X87055Y-47989D01*
X87063Y-47970D01*
X87072Y-47961D01*
X87089Y-47951D01*
X87209Y-47951D02*
X87320Y-47951D01*
X87260Y-48028D01*
X87286Y-48028D01*
X87303Y-48037D01*
X87312Y-48047D01*
X87320Y-48066D01*
X87320Y-48113D01*
X87312Y-48132D01*
X87303Y-48142D01*
X87286Y-48151D01*
X87235Y-48151D01*
X87217Y-48142D01*
X87209Y-48132D01*
X86845Y-48821D02*
X86785Y-48725D01*
X86742Y-48821D02*
X86742Y-48621D01*
X86811Y-48621D01*
X86828Y-48630D01*
X86837Y-48640D01*
X86845Y-48659D01*
X86845Y-48687D01*
X86837Y-48706D01*
X86828Y-48716D01*
X86811Y-48725D01*
X86742Y-48725D01*
X87017Y-48821D02*
X86914Y-48821D01*
X86965Y-48821D02*
X86965Y-48621D01*
X86948Y-48649D01*
X86931Y-48668D01*
X86914Y-48678D01*
X87128Y-48621D02*
X87145Y-48621D01*
X87162Y-48630D01*
X87171Y-48640D01*
X87180Y-48659D01*
X87188Y-48697D01*
X87188Y-48744D01*
X87180Y-48783D01*
X87171Y-48802D01*
X87162Y-48811D01*
X87145Y-48821D01*
X87128Y-48821D01*
X87111Y-48811D01*
X87102Y-48802D01*
X87094Y-48783D01*
X87085Y-48744D01*
X87085Y-48697D01*
X87094Y-48659D01*
X87102Y-48640D01*
X87111Y-48630D01*
X87128Y-48621D01*
X87342Y-48687D02*
X87342Y-48821D01*
X87300Y-48611D02*
X87257Y-48754D01*
X87368Y-48754D01*
X86845Y-49490D02*
X86785Y-49395D01*
X86742Y-49490D02*
X86742Y-49290D01*
X86811Y-49290D01*
X86828Y-49299D01*
X86837Y-49309D01*
X86845Y-49328D01*
X86845Y-49357D01*
X86837Y-49376D01*
X86828Y-49385D01*
X86811Y-49395D01*
X86742Y-49395D01*
X87017Y-49490D02*
X86914Y-49490D01*
X86965Y-49490D02*
X86965Y-49290D01*
X86948Y-49318D01*
X86931Y-49338D01*
X86914Y-49347D01*
X87128Y-49290D02*
X87145Y-49290D01*
X87162Y-49299D01*
X87171Y-49309D01*
X87180Y-49328D01*
X87188Y-49366D01*
X87188Y-49414D01*
X87180Y-49452D01*
X87171Y-49471D01*
X87162Y-49480D01*
X87145Y-49490D01*
X87128Y-49490D01*
X87111Y-49480D01*
X87102Y-49471D01*
X87094Y-49452D01*
X87085Y-49414D01*
X87085Y-49366D01*
X87094Y-49328D01*
X87102Y-49309D01*
X87111Y-49299D01*
X87128Y-49290D01*
X87351Y-49290D02*
X87265Y-49290D01*
X87257Y-49385D01*
X87265Y-49376D01*
X87282Y-49366D01*
X87325Y-49366D01*
X87342Y-49376D01*
X87351Y-49385D01*
X87360Y-49404D01*
X87360Y-49452D01*
X87351Y-49471D01*
X87342Y-49480D01*
X87325Y-49490D01*
X87282Y-49490D01*
X87265Y-49480D01*
X87257Y-49471D01*
X86845Y-50159D02*
X86785Y-50064D01*
X86742Y-50159D02*
X86742Y-49959D01*
X86811Y-49959D01*
X86828Y-49969D01*
X86837Y-49978D01*
X86845Y-49997D01*
X86845Y-50026D01*
X86837Y-50045D01*
X86828Y-50054D01*
X86811Y-50064D01*
X86742Y-50064D01*
X87017Y-50159D02*
X86914Y-50159D01*
X86965Y-50159D02*
X86965Y-49959D01*
X86948Y-49988D01*
X86931Y-50007D01*
X86914Y-50016D01*
X87128Y-49959D02*
X87145Y-49959D01*
X87162Y-49969D01*
X87171Y-49978D01*
X87180Y-49997D01*
X87188Y-50035D01*
X87188Y-50083D01*
X87180Y-50121D01*
X87171Y-50140D01*
X87162Y-50150D01*
X87145Y-50159D01*
X87128Y-50159D01*
X87111Y-50150D01*
X87102Y-50140D01*
X87094Y-50121D01*
X87085Y-50083D01*
X87085Y-50035D01*
X87094Y-49997D01*
X87102Y-49978D01*
X87111Y-49969D01*
X87128Y-49959D01*
X87342Y-49959D02*
X87308Y-49959D01*
X87291Y-49969D01*
X87282Y-49978D01*
X87265Y-50007D01*
X87257Y-50045D01*
X87257Y-50121D01*
X87265Y-50140D01*
X87274Y-50150D01*
X87291Y-50159D01*
X87325Y-50159D01*
X87342Y-50150D01*
X87351Y-50140D01*
X87360Y-50121D01*
X87360Y-50073D01*
X87351Y-50054D01*
X87342Y-50045D01*
X87325Y-50035D01*
X87291Y-50035D01*
X87274Y-50045D01*
X87265Y-50054D01*
X87257Y-50073D01*
X86806Y-50907D02*
X86746Y-50812D01*
X86703Y-50907D02*
X86703Y-50707D01*
X86772Y-50707D01*
X86789Y-50717D01*
X86797Y-50726D01*
X86806Y-50745D01*
X86806Y-50774D01*
X86797Y-50793D01*
X86789Y-50802D01*
X86772Y-50812D01*
X86703Y-50812D01*
X86977Y-50907D02*
X86875Y-50907D01*
X86926Y-50907D02*
X86926Y-50707D01*
X86909Y-50736D01*
X86892Y-50755D01*
X86875Y-50764D01*
X87089Y-50707D02*
X87106Y-50707D01*
X87123Y-50717D01*
X87132Y-50726D01*
X87140Y-50745D01*
X87149Y-50783D01*
X87149Y-50831D01*
X87140Y-50869D01*
X87132Y-50888D01*
X87123Y-50898D01*
X87106Y-50907D01*
X87089Y-50907D01*
X87072Y-50898D01*
X87063Y-50888D01*
X87055Y-50869D01*
X87046Y-50831D01*
X87046Y-50783D01*
X87055Y-50745D01*
X87063Y-50726D01*
X87072Y-50717D01*
X87089Y-50707D01*
X87209Y-50707D02*
X87329Y-50707D01*
X87252Y-50907D01*
G54D26*
X69650Y-54783D02*
X69250Y-54783D01*
X69250Y-54631D01*
X69269Y-54592D01*
X69288Y-54573D01*
X69326Y-54554D01*
X69383Y-54554D01*
X69421Y-54573D01*
X69440Y-54592D01*
X69459Y-54631D01*
X69459Y-54783D01*
X69383Y-54211D02*
X69650Y-54211D01*
X69231Y-54307D02*
X69516Y-54402D01*
X69516Y-54154D01*
G54D18*
X70443Y-44180D02*
X70443Y-44545D01*
X70462Y-44588D01*
X70481Y-44609D01*
X70519Y-44630D01*
X70595Y-44630D01*
X70633Y-44609D01*
X70652Y-44588D01*
X70671Y-44545D01*
X70671Y-44180D01*
X71033Y-44180D02*
X70957Y-44180D01*
X70919Y-44202D01*
X70900Y-44223D01*
X70862Y-44288D01*
X70843Y-44373D01*
X70843Y-44545D01*
X70862Y-44588D01*
X70881Y-44609D01*
X70919Y-44630D01*
X70995Y-44630D01*
X71033Y-44609D01*
X71052Y-44588D01*
X71071Y-44545D01*
X71071Y-44438D01*
X71052Y-44395D01*
X71033Y-44373D01*
X70995Y-44352D01*
X70919Y-44352D01*
X70881Y-44373D01*
X70862Y-44395D01*
X70843Y-44438D01*
X69022Y-43587D02*
X69022Y-43187D01*
X69156Y-43472D01*
X69289Y-43187D01*
X69289Y-43587D01*
X69460Y-43225D02*
X69480Y-43206D01*
X69518Y-43187D01*
X69613Y-43187D01*
X69651Y-43206D01*
X69670Y-43225D01*
X69689Y-43263D01*
X69689Y-43301D01*
X69670Y-43358D01*
X69441Y-43587D01*
X69689Y-43587D01*
X70051Y-43187D02*
X69860Y-43187D01*
X69841Y-43377D01*
X69860Y-43358D01*
X69899Y-43339D01*
X69994Y-43339D01*
X70032Y-43358D01*
X70051Y-43377D01*
X70070Y-43415D01*
X70070Y-43510D01*
X70051Y-43549D01*
X70032Y-43568D01*
X69994Y-43587D01*
X69899Y-43587D01*
X69860Y-43568D01*
X69841Y-43549D01*
X70241Y-43587D02*
X70241Y-43187D01*
X70394Y-43187D01*
X70432Y-43206D01*
X70451Y-43225D01*
X70470Y-43263D01*
X70470Y-43320D01*
X70451Y-43358D01*
X70432Y-43377D01*
X70394Y-43396D01*
X70241Y-43396D01*
X70851Y-43587D02*
X70622Y-43587D01*
X70737Y-43587D02*
X70737Y-43187D01*
X70699Y-43244D01*
X70660Y-43282D01*
X70622Y-43301D01*
X71194Y-43187D02*
X71118Y-43187D01*
X71080Y-43206D01*
X71060Y-43225D01*
X71022Y-43282D01*
X71003Y-43358D01*
X71003Y-43510D01*
X71022Y-43549D01*
X71041Y-43568D01*
X71080Y-43587D01*
X71156Y-43587D01*
X71194Y-43568D01*
X71213Y-43549D01*
X71232Y-43510D01*
X71232Y-43415D01*
X71213Y-43377D01*
X71194Y-43358D01*
X71156Y-43339D01*
X71080Y-43339D01*
X71041Y-43358D01*
X71022Y-43377D01*
X71003Y-43415D01*
G54D27*
X74490Y-43848D02*
X74395Y-43908D01*
X74490Y-43951D02*
X74290Y-43951D01*
X74290Y-43883D01*
X74299Y-43866D01*
X74309Y-43857D01*
X74328Y-43848D01*
X74357Y-43848D01*
X74376Y-43857D01*
X74385Y-43866D01*
X74395Y-43883D01*
X74395Y-43951D01*
X74376Y-43746D02*
X74366Y-43763D01*
X74357Y-43771D01*
X74338Y-43780D01*
X74328Y-43780D01*
X74309Y-43771D01*
X74299Y-43763D01*
X74290Y-43746D01*
X74290Y-43711D01*
X74299Y-43694D01*
X74309Y-43686D01*
X74328Y-43677D01*
X74338Y-43677D01*
X74357Y-43686D01*
X74366Y-43694D01*
X74376Y-43711D01*
X74376Y-43746D01*
X74385Y-43763D01*
X74395Y-43771D01*
X74414Y-43780D01*
X74452Y-43780D01*
X74471Y-43771D01*
X74480Y-43763D01*
X74490Y-43746D01*
X74490Y-43711D01*
X74480Y-43694D01*
X74471Y-43686D01*
X74452Y-43677D01*
X74414Y-43677D01*
X74395Y-43686D01*
X74385Y-43694D01*
X74376Y-43711D01*
X72253Y-45986D02*
X72193Y-45891D01*
X72150Y-45986D02*
X72150Y-45786D01*
X72219Y-45786D01*
X72236Y-45795D01*
X72244Y-45805D01*
X72253Y-45824D01*
X72253Y-45853D01*
X72244Y-45872D01*
X72236Y-45881D01*
X72219Y-45891D01*
X72150Y-45891D01*
X72339Y-45986D02*
X72373Y-45986D01*
X72390Y-45976D01*
X72399Y-45967D01*
X72416Y-45938D01*
X72424Y-45900D01*
X72424Y-45824D01*
X72416Y-45805D01*
X72407Y-45795D01*
X72390Y-45786D01*
X72356Y-45786D01*
X72339Y-45795D01*
X72330Y-45805D01*
X72322Y-45824D01*
X72322Y-45872D01*
X72330Y-45891D01*
X72339Y-45900D01*
X72356Y-45910D01*
X72390Y-45910D01*
X72407Y-45900D01*
X72416Y-45891D01*
X72424Y-45872D01*
G54D26*
X71364Y-40752D02*
X71364Y-40352D01*
X71517Y-40352D01*
X71555Y-40371D01*
X71574Y-40390D01*
X71593Y-40428D01*
X71593Y-40485D01*
X71574Y-40523D01*
X71555Y-40542D01*
X71517Y-40561D01*
X71364Y-40561D01*
X71745Y-40390D02*
X71764Y-40371D01*
X71802Y-40352D01*
X71898Y-40352D01*
X71936Y-40371D01*
X71955Y-40390D01*
X71974Y-40428D01*
X71974Y-40466D01*
X71955Y-40523D01*
X71726Y-40752D01*
X71974Y-40752D01*
X72107Y-40352D02*
X72355Y-40352D01*
X72221Y-40504D01*
X72278Y-40504D01*
X72317Y-40523D01*
X72336Y-40542D01*
X72355Y-40581D01*
X72355Y-40676D01*
X72336Y-40714D01*
X72317Y-40733D01*
X72278Y-40752D01*
X72164Y-40752D01*
X72126Y-40733D01*
X72107Y-40714D01*
G54D10*
X93903Y-30586D02*
X93509Y-30586D01*
X93509Y-30436D01*
X93528Y-30399D01*
X93547Y-30380D01*
X93584Y-30361D01*
X93640Y-30361D01*
X93678Y-30380D01*
X93697Y-30399D01*
X93715Y-30436D01*
X93715Y-30586D01*
X93903Y-29986D02*
X93903Y-30211D01*
X93903Y-30099D02*
X93509Y-30099D01*
X93565Y-30136D01*
X93603Y-30174D01*
X93622Y-30211D01*
X93509Y-29743D02*
X93509Y-29705D01*
X93528Y-29668D01*
X93547Y-29649D01*
X93584Y-29630D01*
X93659Y-29611D01*
X93753Y-29611D01*
X93828Y-29630D01*
X93865Y-29649D01*
X93884Y-29668D01*
X93903Y-29705D01*
X93903Y-29743D01*
X93884Y-29780D01*
X93865Y-29799D01*
X93828Y-29818D01*
X93753Y-29836D01*
X93659Y-29836D01*
X93584Y-29818D01*
X93547Y-29799D01*
X93528Y-29780D01*
X93509Y-29743D01*
X93509Y-29368D02*
X93509Y-29330D01*
X93528Y-29293D01*
X93547Y-29274D01*
X93584Y-29255D01*
X93659Y-29236D01*
X93753Y-29236D01*
X93828Y-29255D01*
X93865Y-29274D01*
X93884Y-29293D01*
X93903Y-29330D01*
X93903Y-29368D01*
X93884Y-29405D01*
X93865Y-29424D01*
X93828Y-29443D01*
X93753Y-29461D01*
X93659Y-29461D01*
X93584Y-29443D01*
X93547Y-29424D01*
X93528Y-29405D01*
X93509Y-29368D01*
X93493Y-25390D02*
X93474Y-25428D01*
X93474Y-25484D01*
X93493Y-25540D01*
X93530Y-25577D01*
X93568Y-25596D01*
X93643Y-25615D01*
X93699Y-25615D01*
X93774Y-25596D01*
X93811Y-25577D01*
X93849Y-25540D01*
X93868Y-25484D01*
X93868Y-25446D01*
X93849Y-25390D01*
X93830Y-25371D01*
X93699Y-25371D01*
X93699Y-25446D01*
X93868Y-25203D02*
X93474Y-25203D01*
X93868Y-24978D01*
X93474Y-24978D01*
X93868Y-24790D02*
X93474Y-24790D01*
X93474Y-24696D01*
X93493Y-24640D01*
X93530Y-24603D01*
X93568Y-24584D01*
X93643Y-24565D01*
X93699Y-24565D01*
X93774Y-24584D01*
X93811Y-24603D01*
X93849Y-24640D01*
X93868Y-24696D01*
X93868Y-24790D01*
X68545Y-30657D02*
X68151Y-30657D01*
X68151Y-30507D01*
X68170Y-30470D01*
X68188Y-30451D01*
X68226Y-30432D01*
X68282Y-30432D01*
X68320Y-30451D01*
X68338Y-30470D01*
X68357Y-30507D01*
X68357Y-30657D01*
X68545Y-30057D02*
X68545Y-30282D01*
X68545Y-30170D02*
X68151Y-30170D01*
X68207Y-30207D01*
X68245Y-30245D01*
X68263Y-30282D01*
X68151Y-29814D02*
X68151Y-29776D01*
X68170Y-29739D01*
X68188Y-29720D01*
X68226Y-29701D01*
X68301Y-29682D01*
X68395Y-29682D01*
X68470Y-29701D01*
X68507Y-29720D01*
X68526Y-29739D01*
X68545Y-29776D01*
X68545Y-29814D01*
X68526Y-29851D01*
X68507Y-29870D01*
X68470Y-29889D01*
X68395Y-29907D01*
X68301Y-29907D01*
X68226Y-29889D01*
X68188Y-29870D01*
X68170Y-29851D01*
X68151Y-29814D01*
X68545Y-29307D02*
X68545Y-29532D01*
X68545Y-29420D02*
X68151Y-29420D01*
X68207Y-29457D01*
X68245Y-29495D01*
X68263Y-29532D01*
X68186Y-24883D02*
X68580Y-24751D01*
X68186Y-24620D01*
X68543Y-24264D02*
X68561Y-24283D01*
X68580Y-24339D01*
X68580Y-24376D01*
X68561Y-24433D01*
X68524Y-24470D01*
X68486Y-24489D01*
X68411Y-24508D01*
X68355Y-24508D01*
X68280Y-24489D01*
X68243Y-24470D01*
X68205Y-24433D01*
X68186Y-24376D01*
X68186Y-24339D01*
X68205Y-24283D01*
X68224Y-24264D01*
X68543Y-23870D02*
X68561Y-23889D01*
X68580Y-23945D01*
X68580Y-23983D01*
X68561Y-24039D01*
X68524Y-24076D01*
X68486Y-24095D01*
X68411Y-24114D01*
X68355Y-24114D01*
X68280Y-24095D01*
X68243Y-24076D01*
X68205Y-24039D01*
X68186Y-23983D01*
X68186Y-23945D01*
X68205Y-23889D01*
X68224Y-23870D01*
X68468Y-23420D02*
X68468Y-23233D01*
X68580Y-23458D02*
X68186Y-23326D01*
X68580Y-23195D01*
X68186Y-23064D02*
X68505Y-23064D01*
X68543Y-23045D01*
X68561Y-23026D01*
X68580Y-22989D01*
X68580Y-22914D01*
X68561Y-22877D01*
X68543Y-22858D01*
X68505Y-22839D01*
X68186Y-22839D01*
X68186Y-22689D02*
X68580Y-22427D01*
X68186Y-22427D02*
X68580Y-22689D01*
X68430Y-21977D02*
X68430Y-21677D01*
X68580Y-21827D02*
X68280Y-21827D01*
X68186Y-21527D02*
X68186Y-21283D01*
X68336Y-21414D01*
X68336Y-21358D01*
X68355Y-21320D01*
X68374Y-21302D01*
X68411Y-21283D01*
X68505Y-21283D01*
X68543Y-21302D01*
X68561Y-21320D01*
X68580Y-21358D01*
X68580Y-21470D01*
X68561Y-21508D01*
X68543Y-21527D01*
X68543Y-21114D02*
X68561Y-21095D01*
X68580Y-21114D01*
X68561Y-21133D01*
X68543Y-21114D01*
X68580Y-21114D01*
X68186Y-20964D02*
X68186Y-20721D01*
X68336Y-20852D01*
X68336Y-20796D01*
X68355Y-20758D01*
X68374Y-20739D01*
X68411Y-20721D01*
X68505Y-20721D01*
X68543Y-20739D01*
X68561Y-20758D01*
X68580Y-20796D01*
X68580Y-20908D01*
X68561Y-20946D01*
X68543Y-20964D01*
X68186Y-20308D02*
X68580Y-20177D01*
X68186Y-20046D01*
X87585Y-44582D02*
X87585Y-44837D01*
X87600Y-44867D01*
X87615Y-44882D01*
X87645Y-44897D01*
X87705Y-44897D01*
X87735Y-44882D01*
X87750Y-44867D01*
X87765Y-44837D01*
X87765Y-44582D01*
X88065Y-44582D02*
X87915Y-44582D01*
X87900Y-44732D01*
X87915Y-44717D01*
X87945Y-44702D01*
X88020Y-44702D01*
X88050Y-44717D01*
X88065Y-44732D01*
X88080Y-44762D01*
X88080Y-44837D01*
X88065Y-44867D01*
X88050Y-44882D01*
X88020Y-44897D01*
X87945Y-44897D01*
X87915Y-44882D01*
X87900Y-44867D01*
X86302Y-42777D02*
X86197Y-42777D01*
X86197Y-42942D02*
X86197Y-42627D01*
X86347Y-42627D01*
X86437Y-42627D02*
X86646Y-42942D01*
X86646Y-42627D02*
X86437Y-42942D01*
X86826Y-42627D02*
X86886Y-42627D01*
X86916Y-42642D01*
X86946Y-42672D01*
X86961Y-42732D01*
X86961Y-42837D01*
X86946Y-42897D01*
X86916Y-42927D01*
X86886Y-42942D01*
X86826Y-42942D01*
X86796Y-42927D01*
X86766Y-42897D01*
X86751Y-42837D01*
X86751Y-42732D01*
X86766Y-42672D01*
X86796Y-42642D01*
X86826Y-42627D01*
X87096Y-42822D02*
X87336Y-42822D01*
X87486Y-42942D02*
X87486Y-42627D01*
X87486Y-42777D02*
X87666Y-42777D01*
X87666Y-42942D02*
X87666Y-42627D01*
X87996Y-42912D02*
X87981Y-42927D01*
X87936Y-42942D01*
X87906Y-42942D01*
X87861Y-42927D01*
X87831Y-42897D01*
X87816Y-42867D01*
X87801Y-42807D01*
X87801Y-42762D01*
X87816Y-42702D01*
X87831Y-42672D01*
X87861Y-42642D01*
X87906Y-42627D01*
X87936Y-42627D01*
X87981Y-42642D01*
X87996Y-42657D01*
X88281Y-42627D02*
X88131Y-42627D01*
X88116Y-42777D01*
X88131Y-42762D01*
X88161Y-42747D01*
X88236Y-42747D01*
X88266Y-42762D01*
X88281Y-42777D01*
X88296Y-42807D01*
X88296Y-42882D01*
X88281Y-42912D01*
X88266Y-42927D01*
X88236Y-42942D01*
X88161Y-42942D01*
X88131Y-42927D01*
X88116Y-42912D01*
X88401Y-42627D02*
X88596Y-42627D01*
X88491Y-42747D01*
X88536Y-42747D01*
X88566Y-42762D01*
X88581Y-42777D01*
X88596Y-42807D01*
X88596Y-42882D01*
X88581Y-42912D01*
X88566Y-42927D01*
X88536Y-42942D01*
X88446Y-42942D01*
X88416Y-42927D01*
X88401Y-42912D01*
X88866Y-42627D02*
X88806Y-42627D01*
X88776Y-42642D01*
X88761Y-42657D01*
X88731Y-42702D01*
X88716Y-42762D01*
X88716Y-42882D01*
X88731Y-42912D01*
X88746Y-42927D01*
X88776Y-42942D01*
X88836Y-42942D01*
X88866Y-42927D01*
X88881Y-42912D01*
X88896Y-42882D01*
X88896Y-42807D01*
X88881Y-42777D01*
X88866Y-42762D01*
X88836Y-42747D01*
X88776Y-42747D01*
X88746Y-42762D01*
X88731Y-42777D01*
X88716Y-42807D01*
X89211Y-42942D02*
X89106Y-42792D01*
X89031Y-42942D02*
X89031Y-42627D01*
X89151Y-42627D01*
X89181Y-42642D01*
X89196Y-42657D01*
X89211Y-42687D01*
X89211Y-42732D01*
X89196Y-42762D01*
X89181Y-42777D01*
X89151Y-42792D01*
X89031Y-42792D01*
G54D27*
X70391Y-41632D02*
X70331Y-41536D01*
X70288Y-41632D02*
X70288Y-41432D01*
X70356Y-41432D01*
X70374Y-41441D01*
X70382Y-41451D01*
X70391Y-41470D01*
X70391Y-41498D01*
X70382Y-41517D01*
X70374Y-41527D01*
X70356Y-41536D01*
X70288Y-41536D01*
X70562Y-41632D02*
X70459Y-41632D01*
X70511Y-41632D02*
X70511Y-41432D01*
X70494Y-41460D01*
X70476Y-41479D01*
X70459Y-41489D01*
G54D13*
G54D26*
X70961Y-29665D02*
X70561Y-29665D01*
X70561Y-29570D01*
X70580Y-29513D01*
X70618Y-29475D01*
X70656Y-29456D01*
X70732Y-29437D01*
X70789Y-29437D01*
X70865Y-29456D01*
X70903Y-29475D01*
X70942Y-29513D01*
X70961Y-29570D01*
X70961Y-29665D01*
X70751Y-29265D02*
X70751Y-29132D01*
X70961Y-29075D02*
X70961Y-29265D01*
X70561Y-29265D01*
X70561Y-29075D01*
X70561Y-28960D02*
X70961Y-28827D01*
X70561Y-28694D01*
X70751Y-28560D02*
X70751Y-28427D01*
X70961Y-28370D02*
X70961Y-28560D01*
X70561Y-28560D01*
X70561Y-28370D01*
X70961Y-28008D02*
X70961Y-28198D01*
X70561Y-28198D01*
X70561Y-27798D02*
X70561Y-27722D01*
X70580Y-27684D01*
X70618Y-27646D01*
X70694Y-27627D01*
X70827Y-27627D01*
X70903Y-27646D01*
X70942Y-27684D01*
X70961Y-27722D01*
X70961Y-27798D01*
X70942Y-27837D01*
X70903Y-27875D01*
X70827Y-27894D01*
X70694Y-27894D01*
X70618Y-27875D01*
X70580Y-27837D01*
X70561Y-27798D01*
X70961Y-27456D02*
X70561Y-27456D01*
X70561Y-27303D01*
X70580Y-27265D01*
X70599Y-27246D01*
X70637Y-27227D01*
X70694Y-27227D01*
X70732Y-27246D01*
X70751Y-27265D01*
X70770Y-27303D01*
X70770Y-27456D01*
X70961Y-27056D02*
X70561Y-27056D01*
X70846Y-26922D01*
X70561Y-26789D01*
X70961Y-26789D01*
X70751Y-26598D02*
X70751Y-26465D01*
X70961Y-26408D02*
X70961Y-26598D01*
X70561Y-26598D01*
X70561Y-26408D01*
X70961Y-26237D02*
X70561Y-26237D01*
X70961Y-26008D01*
X70561Y-26008D01*
X70561Y-25875D02*
X70561Y-25646D01*
X70961Y-25760D02*
X70561Y-25760D01*
X70999Y-25608D02*
X70999Y-25303D01*
X70846Y-25227D02*
X70846Y-25037D01*
X70961Y-25265D02*
X70561Y-25132D01*
X70961Y-24998D01*
X70961Y-24637D02*
X70770Y-24770D01*
X70961Y-24865D02*
X70561Y-24865D01*
X70561Y-24713D01*
X70580Y-24675D01*
X70599Y-24656D01*
X70637Y-24637D01*
X70694Y-24637D01*
X70732Y-24656D01*
X70751Y-24675D01*
X70770Y-24713D01*
X70770Y-24865D01*
X70751Y-24465D02*
X70751Y-24332D01*
X70961Y-24275D02*
X70961Y-24465D01*
X70561Y-24465D01*
X70561Y-24275D01*
X70846Y-24122D02*
X70846Y-23932D01*
X70961Y-24160D02*
X70561Y-24027D01*
X70961Y-23894D01*
X70599Y-23475D02*
X70580Y-23456D01*
X70561Y-23417D01*
X70561Y-23322D01*
X70580Y-23284D01*
X70599Y-23265D01*
X70637Y-23246D01*
X70675Y-23246D01*
X70732Y-23265D01*
X70961Y-23494D01*
X70961Y-23246D01*
X70561Y-22998D02*
X70561Y-22960D01*
X70580Y-22922D01*
X70599Y-22903D01*
X70637Y-22884D01*
X70713Y-22865D01*
X70808Y-22865D01*
X70884Y-22884D01*
X70923Y-22903D01*
X70942Y-22922D01*
X70961Y-22960D01*
X70961Y-22998D01*
X70942Y-23037D01*
X70923Y-23056D01*
X70884Y-23075D01*
X70808Y-23094D01*
X70713Y-23094D01*
X70637Y-23075D01*
X70599Y-23056D01*
X70580Y-23037D01*
X70561Y-22998D01*
X70961Y-22732D02*
X70694Y-22522D01*
X70694Y-22732D02*
X70961Y-22522D01*
X70961Y-22160D02*
X70961Y-22389D01*
X70961Y-22275D02*
X70561Y-22275D01*
X70618Y-22313D01*
X70656Y-22351D01*
X70675Y-22389D01*
X70694Y-21817D02*
X70961Y-21817D01*
X70542Y-21913D02*
X70827Y-22008D01*
X70827Y-21760D01*
M02*
