G04 (created by PCBNEW (2013-jul-07)-stable) date Sat 01 Nov 2014 03:24:29 PM PDT*
%MOIN*%
G04 Gerber Fmt 3.4, Leading zero omitted, Abs format*
%FSLAX34Y34*%
G01*
G70*
G90*
G04 APERTURE LIST*
%ADD10C,0.00590551*%
%ADD11C,0.055*%
%ADD12R,0.0591X0.0106299*%
%ADD13R,0.0106299X0.0591*%
%ADD14R,0.00944882X0.0591*%
%ADD15R,0.06X0.06*%
%ADD16C,0.06*%
%ADD17R,0.0472X0.0472*%
%ADD18R,0.05X0.038*%
%ADD19R,0.025X0.045*%
%ADD20R,0.045X0.025*%
%ADD21R,0.02X0.045*%
%ADD22R,0.0507874X0.0507874*%
G04 APERTURE END LIST*
G54D10*
G54D11*
X91600Y-49200D03*
X93400Y-49200D03*
X91600Y-51800D03*
X93400Y-51800D03*
X91600Y-44450D03*
X93400Y-44450D03*
X91600Y-47050D03*
X93400Y-47050D03*
X91588Y-39440D03*
X93388Y-39440D03*
X91588Y-42040D03*
X93388Y-42040D03*
X91600Y-34700D03*
X93400Y-34700D03*
X91600Y-37300D03*
X93400Y-37300D03*
G54D12*
X85580Y-47543D03*
X85580Y-47346D03*
X85580Y-47149D03*
X85580Y-46952D03*
X85580Y-46755D03*
X85580Y-46559D03*
X85580Y-46362D03*
X85580Y-46165D03*
X85580Y-45968D03*
X85580Y-45771D03*
X85580Y-45574D03*
X85580Y-45377D03*
X85580Y-45181D03*
X85580Y-44984D03*
X85580Y-44787D03*
X85580Y-44590D03*
X85580Y-44393D03*
X85580Y-44196D03*
X85580Y-44000D03*
X85580Y-43803D03*
X85580Y-43606D03*
X85580Y-43409D03*
X85580Y-43212D03*
X85580Y-43015D03*
X85580Y-42818D03*
X85580Y-42622D03*
X85580Y-42425D03*
X85580Y-42228D03*
X85580Y-42031D03*
X85580Y-41834D03*
X85580Y-41637D03*
X85580Y-41440D03*
X85580Y-41244D03*
X85580Y-41047D03*
X85580Y-40850D03*
X85580Y-40653D03*
G54D13*
X84596Y-48488D03*
X84399Y-48488D03*
X84202Y-48488D03*
X84005Y-48488D03*
X83809Y-48488D03*
X83612Y-48488D03*
X83415Y-48488D03*
X83218Y-48488D03*
X84399Y-39669D03*
X84202Y-39669D03*
X84005Y-39669D03*
X83809Y-39669D03*
X83612Y-39669D03*
X83415Y-39669D03*
X83218Y-39669D03*
X83021Y-39669D03*
X82824Y-39669D03*
X82627Y-39669D03*
X82431Y-39669D03*
X84596Y-39669D03*
X82234Y-39669D03*
G54D14*
X82037Y-39669D03*
G54D13*
X81840Y-39669D03*
X81643Y-39669D03*
X81446Y-39669D03*
X81250Y-39669D03*
X81053Y-39669D03*
X80856Y-39669D03*
X80659Y-39669D03*
X80462Y-39669D03*
X80265Y-39669D03*
X80068Y-39669D03*
X79872Y-39669D03*
X79675Y-39669D03*
X79478Y-39669D03*
X79281Y-39669D03*
X79084Y-39669D03*
X78887Y-39669D03*
X78690Y-39669D03*
X78494Y-39669D03*
X78297Y-39669D03*
X78100Y-39669D03*
X77903Y-39669D03*
X77706Y-39669D03*
G54D12*
X76761Y-40653D03*
X76761Y-40850D03*
X76761Y-41047D03*
X76761Y-41244D03*
X76761Y-41440D03*
X76761Y-41637D03*
X76761Y-41834D03*
X76761Y-42031D03*
X76761Y-42228D03*
X76761Y-42425D03*
X76761Y-42622D03*
X76761Y-42818D03*
X76761Y-43015D03*
X76761Y-43212D03*
X76761Y-43409D03*
X76761Y-43606D03*
X76761Y-43803D03*
X76761Y-44000D03*
X76761Y-44196D03*
X76761Y-44393D03*
X76761Y-44590D03*
X76761Y-44787D03*
X76761Y-44984D03*
X76761Y-45181D03*
X76761Y-45377D03*
X76761Y-45574D03*
X76761Y-45771D03*
X76761Y-45968D03*
X76761Y-46165D03*
X76761Y-46362D03*
X76761Y-46559D03*
X76761Y-46755D03*
X76761Y-46952D03*
X76761Y-47149D03*
X76761Y-47346D03*
X76761Y-47543D03*
G54D13*
X77706Y-48488D03*
X77903Y-48488D03*
X78100Y-48488D03*
X78297Y-48488D03*
X78494Y-48488D03*
X78690Y-48488D03*
X78887Y-48488D03*
X79084Y-48488D03*
X79281Y-48488D03*
X79478Y-48488D03*
X79675Y-48488D03*
X79872Y-48488D03*
X80068Y-48488D03*
X80265Y-48488D03*
X80462Y-48488D03*
X80659Y-48488D03*
X80856Y-48488D03*
X81053Y-48488D03*
X81250Y-48488D03*
X81446Y-48488D03*
X81643Y-48488D03*
X81840Y-48488D03*
X82037Y-48488D03*
X82234Y-48488D03*
X82431Y-48488D03*
X82627Y-48488D03*
X82824Y-48488D03*
X83021Y-48488D03*
G54D15*
X69094Y-31980D03*
G54D16*
X69094Y-32980D03*
G54D17*
X90087Y-50500D03*
X90913Y-50500D03*
X90087Y-48420D03*
X90913Y-48420D03*
X90087Y-46350D03*
X90913Y-46350D03*
X90087Y-44280D03*
X90913Y-44280D03*
X90087Y-42210D03*
X90913Y-42210D03*
X90087Y-40140D03*
X90913Y-40140D03*
X90087Y-38070D03*
X90913Y-38070D03*
X90087Y-36000D03*
X90913Y-36000D03*
X77237Y-50013D03*
X76411Y-50013D03*
G54D18*
X77300Y-50850D03*
X77300Y-51350D03*
G54D19*
X87650Y-45160D03*
X88250Y-45160D03*
G54D20*
X80952Y-49383D03*
X80952Y-49983D03*
G54D19*
X88314Y-42387D03*
X88914Y-42387D03*
X73243Y-46456D03*
X73843Y-46456D03*
G54D20*
X76417Y-48558D03*
X76417Y-49158D03*
X70472Y-44542D03*
X70472Y-45142D03*
G54D16*
X90500Y-32000D03*
X90500Y-33000D03*
X85500Y-32000D03*
X89500Y-33000D03*
X84500Y-32000D03*
X88500Y-33000D03*
X83500Y-32000D03*
X87500Y-33000D03*
X82500Y-32000D03*
X86500Y-33000D03*
X81500Y-32000D03*
X85500Y-33000D03*
X80500Y-32000D03*
X84500Y-33000D03*
X79500Y-32000D03*
X83500Y-33000D03*
X78500Y-32000D03*
X82500Y-33000D03*
X77500Y-32000D03*
X81500Y-33000D03*
X76500Y-32000D03*
X80500Y-33000D03*
X75500Y-32000D03*
X79500Y-33000D03*
X78500Y-33000D03*
X74500Y-32000D03*
X77500Y-33000D03*
X75500Y-33000D03*
X74500Y-33000D03*
X73500Y-33000D03*
X72500Y-33000D03*
X73500Y-32000D03*
X72500Y-32000D03*
X89500Y-32000D03*
X88500Y-32000D03*
X87500Y-32000D03*
X86500Y-32000D03*
X71500Y-32000D03*
G54D15*
X71500Y-33000D03*
G54D16*
X76500Y-33000D03*
X90500Y-53400D03*
X90500Y-54400D03*
X85500Y-53400D03*
X89500Y-54400D03*
X84500Y-53400D03*
X88500Y-54400D03*
X83500Y-53400D03*
X87500Y-54400D03*
X82500Y-53400D03*
X86500Y-54400D03*
X81500Y-53400D03*
X85500Y-54400D03*
X80500Y-53400D03*
X84500Y-54400D03*
X79500Y-53400D03*
X83500Y-54400D03*
X78500Y-53400D03*
X82500Y-54400D03*
X77500Y-53400D03*
X81500Y-54400D03*
X76500Y-53400D03*
X80500Y-54400D03*
X75500Y-53400D03*
X79500Y-54400D03*
X78500Y-54400D03*
X74500Y-53400D03*
X77500Y-54400D03*
X75500Y-54400D03*
X74500Y-54400D03*
X73500Y-54400D03*
X72500Y-54400D03*
X73500Y-53400D03*
X72500Y-53400D03*
X89500Y-53400D03*
X88500Y-53400D03*
X87500Y-53400D03*
X86500Y-53400D03*
X71500Y-53400D03*
G54D15*
X71500Y-54400D03*
G54D16*
X76500Y-54400D03*
G54D19*
X87652Y-45944D03*
X88252Y-45944D03*
X87652Y-46653D03*
X88252Y-46653D03*
X87652Y-47362D03*
X88252Y-47362D03*
X87652Y-48031D03*
X88252Y-48031D03*
X87652Y-48700D03*
X88252Y-48700D03*
X87652Y-49409D03*
X88252Y-49409D03*
X87652Y-50078D03*
X88252Y-50078D03*
X87652Y-50826D03*
X88252Y-50826D03*
G54D15*
X69040Y-47560D03*
G54D16*
X70040Y-47560D03*
X69040Y-48560D03*
X70040Y-48560D03*
X69040Y-49560D03*
X70040Y-49560D03*
X69040Y-50560D03*
X70040Y-50560D03*
X69040Y-51560D03*
X70040Y-51560D03*
X69040Y-52560D03*
X70040Y-52560D03*
X69040Y-53560D03*
X70040Y-53560D03*
G54D21*
X73072Y-45187D03*
X72572Y-45187D03*
X72072Y-45187D03*
X71572Y-45187D03*
X71572Y-42687D03*
X72072Y-42687D03*
X72572Y-42687D03*
X73072Y-42687D03*
G54D20*
X73858Y-43558D03*
X73858Y-44158D03*
G54D19*
X71944Y-46456D03*
X72544Y-46456D03*
G54D15*
X70708Y-40358D03*
G54D16*
X70708Y-39358D03*
X70708Y-38358D03*
X70708Y-37358D03*
X92692Y-20543D03*
X92692Y-19543D03*
X92692Y-18543D03*
X92692Y-17543D03*
X92692Y-17543D03*
X92692Y-18543D03*
X92692Y-19543D03*
X92692Y-20543D03*
X92692Y-20543D03*
X92692Y-19543D03*
X92692Y-18543D03*
X92692Y-17543D03*
X92692Y-21480D03*
X92692Y-22480D03*
X92692Y-23480D03*
X92692Y-24480D03*
X92692Y-24480D03*
X92692Y-23480D03*
X92692Y-22480D03*
X92692Y-21480D03*
X92692Y-21480D03*
X92692Y-22480D03*
X92692Y-23480D03*
X92692Y-24480D03*
X92692Y-30480D03*
X92692Y-29480D03*
X92692Y-28480D03*
X92692Y-27480D03*
X92692Y-26480D03*
X92692Y-25480D03*
X92692Y-24480D03*
X92692Y-23480D03*
X92692Y-22480D03*
X92692Y-21480D03*
X69216Y-20543D03*
X69216Y-19543D03*
X69216Y-18543D03*
X69216Y-17543D03*
X69216Y-17543D03*
X69216Y-18543D03*
X69216Y-19543D03*
X69216Y-20543D03*
X69216Y-20543D03*
X69216Y-19543D03*
X69216Y-18543D03*
X69216Y-17543D03*
X69216Y-21480D03*
X69216Y-22480D03*
X69216Y-23480D03*
X69216Y-24480D03*
X69216Y-24480D03*
X69216Y-23480D03*
X69216Y-22480D03*
X69216Y-21480D03*
X69216Y-21480D03*
X69216Y-22480D03*
X69216Y-23480D03*
X69216Y-24480D03*
X69216Y-30480D03*
X69216Y-29480D03*
X69216Y-28480D03*
X69216Y-27480D03*
X69216Y-26480D03*
X69216Y-25480D03*
X69216Y-24480D03*
X69216Y-23480D03*
X69216Y-22480D03*
X69216Y-21480D03*
G54D22*
X88275Y-44163D03*
X87275Y-44163D03*
X88267Y-43277D03*
X87283Y-43277D03*
G54D19*
X70121Y-41551D03*
X70721Y-41551D03*
G54D16*
X87744Y-18539D03*
X86744Y-18539D03*
X90744Y-18539D03*
X89744Y-18539D03*
X88744Y-18539D03*
X85744Y-18539D03*
X84744Y-18539D03*
X83744Y-18539D03*
X82744Y-18539D03*
X81744Y-18539D03*
X80744Y-18539D03*
X79744Y-18539D03*
X78744Y-18539D03*
X77744Y-18539D03*
X76744Y-18539D03*
X75744Y-18539D03*
X74744Y-18539D03*
X73744Y-18539D03*
X72744Y-18539D03*
X71744Y-18539D03*
X90744Y-17539D03*
X89744Y-17539D03*
X88744Y-17539D03*
X87744Y-17539D03*
X86744Y-17539D03*
X85744Y-17539D03*
X84744Y-17539D03*
X83744Y-17539D03*
X82744Y-17539D03*
X81744Y-17539D03*
X80744Y-17539D03*
X79744Y-17539D03*
X78744Y-17539D03*
X77744Y-17539D03*
X76744Y-17539D03*
X75744Y-17539D03*
X74744Y-17539D03*
X73744Y-17539D03*
X72744Y-17539D03*
X71744Y-17539D03*
X71744Y-17539D03*
X72744Y-17539D03*
X73744Y-17539D03*
X74744Y-17539D03*
X75744Y-17539D03*
X76744Y-17539D03*
X77744Y-17539D03*
X78744Y-17539D03*
X79744Y-17539D03*
X80744Y-17539D03*
X81744Y-17539D03*
X82744Y-17539D03*
X83744Y-17539D03*
X84744Y-17539D03*
X85744Y-17539D03*
X86744Y-17539D03*
X87744Y-17539D03*
X88744Y-17539D03*
X89744Y-17539D03*
X90744Y-17539D03*
X71744Y-18539D03*
X72744Y-18539D03*
X73744Y-18539D03*
X74744Y-18539D03*
X75744Y-18539D03*
X76744Y-18539D03*
X77744Y-18539D03*
X78744Y-18539D03*
X79744Y-18539D03*
X80744Y-18539D03*
X81744Y-18539D03*
X82744Y-18539D03*
X83744Y-18539D03*
X84744Y-18539D03*
X85744Y-18539D03*
X88744Y-18539D03*
X89744Y-18539D03*
X90744Y-18539D03*
X86744Y-18539D03*
X87744Y-18539D03*
X87744Y-20539D03*
X86744Y-20539D03*
X90744Y-20539D03*
X89744Y-20539D03*
X88744Y-20539D03*
X85744Y-20539D03*
X84744Y-20539D03*
X83744Y-20539D03*
X82744Y-20539D03*
X81744Y-20539D03*
X80744Y-20539D03*
X79744Y-20539D03*
X78744Y-20539D03*
X77744Y-20539D03*
X76744Y-20539D03*
X75744Y-20539D03*
X74744Y-20539D03*
X73744Y-20539D03*
X72744Y-20539D03*
X71744Y-20539D03*
X90744Y-19539D03*
X89744Y-19539D03*
X88744Y-19539D03*
X87744Y-19539D03*
X86744Y-19539D03*
X85744Y-19539D03*
X84744Y-19539D03*
X83744Y-19539D03*
X82744Y-19539D03*
X81744Y-19539D03*
X80744Y-19539D03*
X79744Y-19539D03*
X78744Y-19539D03*
X77744Y-19539D03*
X76744Y-19539D03*
X75744Y-19539D03*
X74744Y-19539D03*
X73744Y-19539D03*
X72744Y-19539D03*
X71744Y-19539D03*
X71744Y-19539D03*
X72744Y-19539D03*
X73744Y-19539D03*
X74744Y-19539D03*
X75744Y-19539D03*
X76744Y-19539D03*
X77744Y-19539D03*
X78744Y-19539D03*
X79744Y-19539D03*
X80744Y-19539D03*
X81744Y-19539D03*
X82744Y-19539D03*
X83744Y-19539D03*
X84744Y-19539D03*
X85744Y-19539D03*
X86744Y-19539D03*
X87744Y-19539D03*
X88744Y-19539D03*
X89744Y-19539D03*
X90744Y-19539D03*
X71744Y-20539D03*
X72744Y-20539D03*
X73744Y-20539D03*
X74744Y-20539D03*
X75744Y-20539D03*
X76744Y-20539D03*
X77744Y-20539D03*
X78744Y-20539D03*
X79744Y-20539D03*
X80744Y-20539D03*
X81744Y-20539D03*
X82744Y-20539D03*
X83744Y-20539D03*
X84744Y-20539D03*
X85744Y-20539D03*
X88744Y-20539D03*
X89744Y-20539D03*
X90744Y-20539D03*
X86744Y-20539D03*
X87744Y-20539D03*
X87744Y-24539D03*
X86744Y-24539D03*
X90744Y-24539D03*
X89744Y-24539D03*
X88744Y-24539D03*
X85744Y-24539D03*
X84744Y-24539D03*
X83744Y-24539D03*
X82744Y-24539D03*
X81744Y-24539D03*
X80744Y-24539D03*
X79744Y-24539D03*
X78744Y-24539D03*
X77744Y-24539D03*
X76744Y-24539D03*
X75744Y-24539D03*
X74744Y-24539D03*
X73744Y-24539D03*
X72744Y-24539D03*
X71744Y-24539D03*
X90744Y-23539D03*
X89744Y-23539D03*
X88744Y-23539D03*
X87744Y-23539D03*
X86744Y-23539D03*
X85744Y-23539D03*
X84744Y-23539D03*
X83744Y-23539D03*
X82744Y-23539D03*
X81744Y-23539D03*
X80744Y-23539D03*
X79744Y-23539D03*
X78744Y-23539D03*
X77744Y-23539D03*
X76744Y-23539D03*
X75744Y-23539D03*
X74744Y-23539D03*
X73744Y-23539D03*
X72744Y-23539D03*
X71744Y-23539D03*
X71744Y-23539D03*
X72744Y-23539D03*
X73744Y-23539D03*
X74744Y-23539D03*
X75744Y-23539D03*
X76744Y-23539D03*
X77744Y-23539D03*
X78744Y-23539D03*
X79744Y-23539D03*
X80744Y-23539D03*
X81744Y-23539D03*
X82744Y-23539D03*
X83744Y-23539D03*
X84744Y-23539D03*
X85744Y-23539D03*
X86744Y-23539D03*
X87744Y-23539D03*
X88744Y-23539D03*
X89744Y-23539D03*
X90744Y-23539D03*
X71744Y-24539D03*
X72744Y-24539D03*
X73744Y-24539D03*
X74744Y-24539D03*
X75744Y-24539D03*
X76744Y-24539D03*
X77744Y-24539D03*
X78744Y-24539D03*
X79744Y-24539D03*
X80744Y-24539D03*
X81744Y-24539D03*
X82744Y-24539D03*
X83744Y-24539D03*
X84744Y-24539D03*
X85744Y-24539D03*
X88744Y-24539D03*
X89744Y-24539D03*
X90744Y-24539D03*
X86744Y-24539D03*
X87744Y-24539D03*
X87744Y-22539D03*
X86744Y-22539D03*
X90744Y-22539D03*
X89744Y-22539D03*
X88744Y-22539D03*
X85744Y-22539D03*
X84744Y-22539D03*
X83744Y-22539D03*
X82744Y-22539D03*
X81744Y-22539D03*
X80744Y-22539D03*
X79744Y-22539D03*
X78744Y-22539D03*
X77744Y-22539D03*
X76744Y-22539D03*
X75744Y-22539D03*
X74744Y-22539D03*
X73744Y-22539D03*
X72744Y-22539D03*
X71744Y-22539D03*
X90744Y-21539D03*
X89744Y-21539D03*
X88744Y-21539D03*
X87744Y-21539D03*
X86744Y-21539D03*
X85744Y-21539D03*
X84744Y-21539D03*
X83744Y-21539D03*
X82744Y-21539D03*
X81744Y-21539D03*
X80744Y-21539D03*
X79744Y-21539D03*
X78744Y-21539D03*
X77744Y-21539D03*
X76744Y-21539D03*
X75744Y-21539D03*
X74744Y-21539D03*
X73744Y-21539D03*
X72744Y-21539D03*
X71744Y-21539D03*
X71744Y-21539D03*
X72744Y-21539D03*
X73744Y-21539D03*
X74744Y-21539D03*
X75744Y-21539D03*
X76744Y-21539D03*
X77744Y-21539D03*
X78744Y-21539D03*
X79744Y-21539D03*
X80744Y-21539D03*
X81744Y-21539D03*
X82744Y-21539D03*
X83744Y-21539D03*
X84744Y-21539D03*
X85744Y-21539D03*
X86744Y-21539D03*
X87744Y-21539D03*
X88744Y-21539D03*
X89744Y-21539D03*
X90744Y-21539D03*
X71744Y-22539D03*
X72744Y-22539D03*
X73744Y-22539D03*
X74744Y-22539D03*
X75744Y-22539D03*
X76744Y-22539D03*
X77744Y-22539D03*
X78744Y-22539D03*
X79744Y-22539D03*
X80744Y-22539D03*
X81744Y-22539D03*
X82744Y-22539D03*
X83744Y-22539D03*
X84744Y-22539D03*
X85744Y-22539D03*
X88744Y-22539D03*
X89744Y-22539D03*
X90744Y-22539D03*
X86744Y-22539D03*
X87744Y-22539D03*
X87744Y-22539D03*
X86744Y-22539D03*
X90744Y-22539D03*
X89744Y-22539D03*
X88744Y-22539D03*
X85744Y-22539D03*
X84744Y-22539D03*
X83744Y-22539D03*
X82744Y-22539D03*
X81744Y-22539D03*
X80744Y-22539D03*
X79744Y-22539D03*
X78744Y-22539D03*
X77744Y-22539D03*
X76744Y-22539D03*
X75744Y-22539D03*
X74744Y-22539D03*
X73744Y-22539D03*
X72744Y-22539D03*
X71744Y-22539D03*
X90744Y-21539D03*
X89744Y-21539D03*
X88744Y-21539D03*
X87744Y-21539D03*
X86744Y-21539D03*
X85744Y-21539D03*
X84744Y-21539D03*
X83744Y-21539D03*
X82744Y-21539D03*
X81744Y-21539D03*
X80744Y-21539D03*
X79744Y-21539D03*
X78744Y-21539D03*
X77744Y-21539D03*
X76744Y-21539D03*
X75744Y-21539D03*
X74744Y-21539D03*
X73744Y-21539D03*
X72744Y-21539D03*
X71744Y-21539D03*
X71744Y-21539D03*
X72744Y-21539D03*
X73744Y-21539D03*
X74744Y-21539D03*
X75744Y-21539D03*
X76744Y-21539D03*
X77744Y-21539D03*
X78744Y-21539D03*
X79744Y-21539D03*
X80744Y-21539D03*
X81744Y-21539D03*
X82744Y-21539D03*
X83744Y-21539D03*
X84744Y-21539D03*
X85744Y-21539D03*
X86744Y-21539D03*
X87744Y-21539D03*
X88744Y-21539D03*
X89744Y-21539D03*
X90744Y-21539D03*
X71744Y-22539D03*
X72744Y-22539D03*
X73744Y-22539D03*
X74744Y-22539D03*
X75744Y-22539D03*
X76744Y-22539D03*
X77744Y-22539D03*
X78744Y-22539D03*
X79744Y-22539D03*
X80744Y-22539D03*
X81744Y-22539D03*
X82744Y-22539D03*
X83744Y-22539D03*
X84744Y-22539D03*
X85744Y-22539D03*
X88744Y-22539D03*
X89744Y-22539D03*
X90744Y-22539D03*
X86744Y-22539D03*
X87744Y-22539D03*
X87744Y-24539D03*
X86744Y-24539D03*
X90744Y-24539D03*
X89744Y-24539D03*
X88744Y-24539D03*
X85744Y-24539D03*
X84744Y-24539D03*
X83744Y-24539D03*
X82744Y-24539D03*
X81744Y-24539D03*
X80744Y-24539D03*
X79744Y-24539D03*
X78744Y-24539D03*
X77744Y-24539D03*
X76744Y-24539D03*
X75744Y-24539D03*
X74744Y-24539D03*
X73744Y-24539D03*
X72744Y-24539D03*
X71744Y-24539D03*
X90744Y-23539D03*
X89744Y-23539D03*
X88744Y-23539D03*
X87744Y-23539D03*
X86744Y-23539D03*
X85744Y-23539D03*
X84744Y-23539D03*
X83744Y-23539D03*
X82744Y-23539D03*
X81744Y-23539D03*
X80744Y-23539D03*
X79744Y-23539D03*
X78744Y-23539D03*
X77744Y-23539D03*
X76744Y-23539D03*
X75744Y-23539D03*
X74744Y-23539D03*
X73744Y-23539D03*
X72744Y-23539D03*
X71744Y-23539D03*
X71744Y-23539D03*
X72744Y-23539D03*
X73744Y-23539D03*
X74744Y-23539D03*
X75744Y-23539D03*
X76744Y-23539D03*
X77744Y-23539D03*
X78744Y-23539D03*
X79744Y-23539D03*
X80744Y-23539D03*
X81744Y-23539D03*
X82744Y-23539D03*
X83744Y-23539D03*
X84744Y-23539D03*
X85744Y-23539D03*
X86744Y-23539D03*
X87744Y-23539D03*
X88744Y-23539D03*
X89744Y-23539D03*
X90744Y-23539D03*
X71744Y-24539D03*
X72744Y-24539D03*
X73744Y-24539D03*
X74744Y-24539D03*
X75744Y-24539D03*
X76744Y-24539D03*
X77744Y-24539D03*
X78744Y-24539D03*
X79744Y-24539D03*
X80744Y-24539D03*
X81744Y-24539D03*
X82744Y-24539D03*
X83744Y-24539D03*
X84744Y-24539D03*
X85744Y-24539D03*
X88744Y-24539D03*
X89744Y-24539D03*
X90744Y-24539D03*
X86744Y-24539D03*
X87744Y-24539D03*
X87744Y-20539D03*
X86744Y-20539D03*
X90744Y-20539D03*
X89744Y-20539D03*
X88744Y-20539D03*
X85744Y-20539D03*
X84744Y-20539D03*
X83744Y-20539D03*
X82744Y-20539D03*
X81744Y-20539D03*
X80744Y-20539D03*
X79744Y-20539D03*
X78744Y-20539D03*
X77744Y-20539D03*
X76744Y-20539D03*
X75744Y-20539D03*
X74744Y-20539D03*
X73744Y-20539D03*
X72744Y-20539D03*
X71744Y-20539D03*
X90744Y-19539D03*
X89744Y-19539D03*
X88744Y-19539D03*
X87744Y-19539D03*
X86744Y-19539D03*
X85744Y-19539D03*
X84744Y-19539D03*
X83744Y-19539D03*
X82744Y-19539D03*
X81744Y-19539D03*
X80744Y-19539D03*
X79744Y-19539D03*
X78744Y-19539D03*
X77744Y-19539D03*
X76744Y-19539D03*
X75744Y-19539D03*
X74744Y-19539D03*
X73744Y-19539D03*
X72744Y-19539D03*
X71744Y-19539D03*
X71744Y-19539D03*
X72744Y-19539D03*
X73744Y-19539D03*
X74744Y-19539D03*
X75744Y-19539D03*
X76744Y-19539D03*
X77744Y-19539D03*
X78744Y-19539D03*
X79744Y-19539D03*
X80744Y-19539D03*
X81744Y-19539D03*
X82744Y-19539D03*
X83744Y-19539D03*
X84744Y-19539D03*
X85744Y-19539D03*
X86744Y-19539D03*
X87744Y-19539D03*
X88744Y-19539D03*
X89744Y-19539D03*
X90744Y-19539D03*
X71744Y-20539D03*
X72744Y-20539D03*
X73744Y-20539D03*
X74744Y-20539D03*
X75744Y-20539D03*
X76744Y-20539D03*
X77744Y-20539D03*
X78744Y-20539D03*
X79744Y-20539D03*
X80744Y-20539D03*
X81744Y-20539D03*
X82744Y-20539D03*
X83744Y-20539D03*
X84744Y-20539D03*
X85744Y-20539D03*
X88744Y-20539D03*
X89744Y-20539D03*
X90744Y-20539D03*
X86744Y-20539D03*
X87744Y-20539D03*
X87744Y-18539D03*
X86744Y-18539D03*
X90744Y-18539D03*
X89744Y-18539D03*
X88744Y-18539D03*
X85744Y-18539D03*
X84744Y-18539D03*
X83744Y-18539D03*
X82744Y-18539D03*
X81744Y-18539D03*
X80744Y-18539D03*
X79744Y-18539D03*
X78744Y-18539D03*
X77744Y-18539D03*
X76744Y-18539D03*
X75744Y-18539D03*
X74744Y-18539D03*
X73744Y-18539D03*
X72744Y-18539D03*
X71744Y-18539D03*
X90744Y-17539D03*
X89744Y-17539D03*
X88744Y-17539D03*
X87744Y-17539D03*
X86744Y-17539D03*
X85744Y-17539D03*
X84744Y-17539D03*
X83744Y-17539D03*
X82744Y-17539D03*
X81744Y-17539D03*
X80744Y-17539D03*
X79744Y-17539D03*
X78744Y-17539D03*
X77744Y-17539D03*
X76744Y-17539D03*
X75744Y-17539D03*
X74744Y-17539D03*
X73744Y-17539D03*
X72744Y-17539D03*
X71744Y-17539D03*
X71744Y-17539D03*
X72744Y-17539D03*
X73744Y-17539D03*
X74744Y-17539D03*
X75744Y-17539D03*
X76744Y-17539D03*
X77744Y-17539D03*
X78744Y-17539D03*
X79744Y-17539D03*
X80744Y-17539D03*
X81744Y-17539D03*
X82744Y-17539D03*
X83744Y-17539D03*
X84744Y-17539D03*
X85744Y-17539D03*
X86744Y-17539D03*
X87744Y-17539D03*
X88744Y-17539D03*
X89744Y-17539D03*
X90744Y-17539D03*
X71744Y-18539D03*
X72744Y-18539D03*
X73744Y-18539D03*
X74744Y-18539D03*
X75744Y-18539D03*
X76744Y-18539D03*
X77744Y-18539D03*
X78744Y-18539D03*
X79744Y-18539D03*
X80744Y-18539D03*
X81744Y-18539D03*
X82744Y-18539D03*
X83744Y-18539D03*
X84744Y-18539D03*
X85744Y-18539D03*
X88744Y-18539D03*
X89744Y-18539D03*
X90744Y-18539D03*
X86744Y-18539D03*
X87744Y-18539D03*
X87744Y-26539D03*
X86744Y-26539D03*
X90744Y-26539D03*
X89744Y-26539D03*
X88744Y-26539D03*
X85744Y-26539D03*
X84744Y-26539D03*
X83744Y-26539D03*
X82744Y-26539D03*
X81744Y-26539D03*
X80744Y-26539D03*
X79744Y-26539D03*
X78744Y-26539D03*
X77744Y-26539D03*
X76744Y-26539D03*
X75744Y-26539D03*
X74744Y-26539D03*
X73744Y-26539D03*
X72744Y-26539D03*
X71744Y-26539D03*
X90744Y-25539D03*
X89744Y-25539D03*
X88744Y-25539D03*
X87744Y-25539D03*
X86744Y-25539D03*
X85744Y-25539D03*
X84744Y-25539D03*
X83744Y-25539D03*
X82744Y-25539D03*
X81744Y-25539D03*
X80744Y-25539D03*
X79744Y-25539D03*
X78744Y-25539D03*
X77744Y-25539D03*
X76744Y-25539D03*
X75744Y-25539D03*
X74744Y-25539D03*
X73744Y-25539D03*
X72744Y-25539D03*
X71744Y-25539D03*
X71744Y-25539D03*
X72744Y-25539D03*
X73744Y-25539D03*
X74744Y-25539D03*
X75744Y-25539D03*
X76744Y-25539D03*
X77744Y-25539D03*
X78744Y-25539D03*
X79744Y-25539D03*
X80744Y-25539D03*
X81744Y-25539D03*
X82744Y-25539D03*
X83744Y-25539D03*
X84744Y-25539D03*
X85744Y-25539D03*
X86744Y-25539D03*
X87744Y-25539D03*
X88744Y-25539D03*
X89744Y-25539D03*
X90744Y-25539D03*
X71744Y-26539D03*
X72744Y-26539D03*
X73744Y-26539D03*
X74744Y-26539D03*
X75744Y-26539D03*
X76744Y-26539D03*
X77744Y-26539D03*
X78744Y-26539D03*
X79744Y-26539D03*
X80744Y-26539D03*
X81744Y-26539D03*
X82744Y-26539D03*
X83744Y-26539D03*
X84744Y-26539D03*
X85744Y-26539D03*
X88744Y-26539D03*
X89744Y-26539D03*
X90744Y-26539D03*
X86744Y-26539D03*
X87744Y-26539D03*
X87744Y-28539D03*
X86744Y-28539D03*
X90744Y-28539D03*
X89744Y-28539D03*
X88744Y-28539D03*
X85744Y-28539D03*
X84744Y-28539D03*
X83744Y-28539D03*
X82744Y-28539D03*
X81744Y-28539D03*
X80744Y-28539D03*
X79744Y-28539D03*
X78744Y-28539D03*
X77744Y-28539D03*
X76744Y-28539D03*
X75744Y-28539D03*
X74744Y-28539D03*
X73744Y-28539D03*
X72744Y-28539D03*
X71744Y-28539D03*
X90744Y-27539D03*
X89744Y-27539D03*
X88744Y-27539D03*
X87744Y-27539D03*
X86744Y-27539D03*
X85744Y-27539D03*
X84744Y-27539D03*
X83744Y-27539D03*
X82744Y-27539D03*
X81744Y-27539D03*
X80744Y-27539D03*
X79744Y-27539D03*
X78744Y-27539D03*
X77744Y-27539D03*
X76744Y-27539D03*
X75744Y-27539D03*
X74744Y-27539D03*
X73744Y-27539D03*
X72744Y-27539D03*
X71744Y-27539D03*
X71744Y-27539D03*
X72744Y-27539D03*
X73744Y-27539D03*
X74744Y-27539D03*
X75744Y-27539D03*
X76744Y-27539D03*
X77744Y-27539D03*
X78744Y-27539D03*
X79744Y-27539D03*
X80744Y-27539D03*
X81744Y-27539D03*
X82744Y-27539D03*
X83744Y-27539D03*
X84744Y-27539D03*
X85744Y-27539D03*
X86744Y-27539D03*
X87744Y-27539D03*
X88744Y-27539D03*
X89744Y-27539D03*
X90744Y-27539D03*
X71744Y-28539D03*
X72744Y-28539D03*
X73744Y-28539D03*
X74744Y-28539D03*
X75744Y-28539D03*
X76744Y-28539D03*
X77744Y-28539D03*
X78744Y-28539D03*
X79744Y-28539D03*
X80744Y-28539D03*
X81744Y-28539D03*
X82744Y-28539D03*
X83744Y-28539D03*
X84744Y-28539D03*
X85744Y-28539D03*
X88744Y-28539D03*
X89744Y-28539D03*
X90744Y-28539D03*
X86744Y-28539D03*
X87744Y-28539D03*
X87744Y-30539D03*
X86744Y-30539D03*
X90744Y-30539D03*
X89744Y-30539D03*
X88744Y-30539D03*
X85744Y-30539D03*
X84744Y-30539D03*
X83744Y-30539D03*
X82744Y-30539D03*
X81744Y-30539D03*
X80744Y-30539D03*
X79744Y-30539D03*
X78744Y-30539D03*
X77744Y-30539D03*
X76744Y-30539D03*
X75744Y-30539D03*
X74744Y-30539D03*
X73744Y-30539D03*
X72744Y-30539D03*
X71744Y-30539D03*
X90744Y-29539D03*
X89744Y-29539D03*
X88744Y-29539D03*
X87744Y-29539D03*
X86744Y-29539D03*
X85744Y-29539D03*
X84744Y-29539D03*
X83744Y-29539D03*
X82744Y-29539D03*
X81744Y-29539D03*
X80744Y-29539D03*
X79744Y-29539D03*
X78744Y-29539D03*
X77744Y-29539D03*
X76744Y-29539D03*
X75744Y-29539D03*
X74744Y-29539D03*
X73744Y-29539D03*
X72744Y-29539D03*
X71744Y-29539D03*
X71744Y-29539D03*
X72744Y-29539D03*
X73744Y-29539D03*
X74744Y-29539D03*
X75744Y-29539D03*
X76744Y-29539D03*
X77744Y-29539D03*
X78744Y-29539D03*
X79744Y-29539D03*
X80744Y-29539D03*
X81744Y-29539D03*
X82744Y-29539D03*
X83744Y-29539D03*
X84744Y-29539D03*
X85744Y-29539D03*
X86744Y-29539D03*
X87744Y-29539D03*
X88744Y-29539D03*
X89744Y-29539D03*
X90744Y-29539D03*
X71744Y-30539D03*
X72744Y-30539D03*
X73744Y-30539D03*
X74744Y-30539D03*
X75744Y-30539D03*
X76744Y-30539D03*
X77744Y-30539D03*
X78744Y-30539D03*
X79744Y-30539D03*
X80744Y-30539D03*
X81744Y-30539D03*
X82744Y-30539D03*
X83744Y-30539D03*
X84744Y-30539D03*
X85744Y-30539D03*
X88744Y-30539D03*
X89744Y-30539D03*
X90744Y-30539D03*
X86744Y-30539D03*
X87744Y-30539D03*
X87744Y-30539D03*
X86744Y-30539D03*
X90744Y-30539D03*
X89744Y-30539D03*
X88744Y-30539D03*
X85744Y-30539D03*
X84744Y-30539D03*
X83744Y-30539D03*
X82744Y-30539D03*
X81744Y-30539D03*
X80744Y-30539D03*
X79744Y-30539D03*
X78744Y-30539D03*
X77744Y-30539D03*
X76744Y-30539D03*
X75744Y-30539D03*
X74744Y-30539D03*
X73744Y-30539D03*
X72744Y-30539D03*
X71744Y-30539D03*
X90744Y-29539D03*
X89744Y-29539D03*
X88744Y-29539D03*
X87744Y-29539D03*
X86744Y-29539D03*
X85744Y-29539D03*
X84744Y-29539D03*
X83744Y-29539D03*
X82744Y-29539D03*
X81744Y-29539D03*
X80744Y-29539D03*
X79744Y-29539D03*
X78744Y-29539D03*
X77744Y-29539D03*
X76744Y-29539D03*
X75744Y-29539D03*
X74744Y-29539D03*
X73744Y-29539D03*
X72744Y-29539D03*
X71744Y-29539D03*
X71744Y-29539D03*
X72744Y-29539D03*
X73744Y-29539D03*
X74744Y-29539D03*
X75744Y-29539D03*
X76744Y-29539D03*
X77744Y-29539D03*
X78744Y-29539D03*
X79744Y-29539D03*
X80744Y-29539D03*
X81744Y-29539D03*
X82744Y-29539D03*
X83744Y-29539D03*
X84744Y-29539D03*
X85744Y-29539D03*
X86744Y-29539D03*
X87744Y-29539D03*
X88744Y-29539D03*
X89744Y-29539D03*
X90744Y-29539D03*
X71744Y-30539D03*
X72744Y-30539D03*
X73744Y-30539D03*
X74744Y-30539D03*
X75744Y-30539D03*
X76744Y-30539D03*
X77744Y-30539D03*
X78744Y-30539D03*
X79744Y-30539D03*
X80744Y-30539D03*
X81744Y-30539D03*
X82744Y-30539D03*
X83744Y-30539D03*
X84744Y-30539D03*
X85744Y-30539D03*
X88744Y-30539D03*
X89744Y-30539D03*
X90744Y-30539D03*
X86744Y-30539D03*
X87744Y-30539D03*
X87744Y-28539D03*
X86744Y-28539D03*
X90744Y-28539D03*
X89744Y-28539D03*
X88744Y-28539D03*
X85744Y-28539D03*
X84744Y-28539D03*
X83744Y-28539D03*
X82744Y-28539D03*
X81744Y-28539D03*
X80744Y-28539D03*
X79744Y-28539D03*
X78744Y-28539D03*
X77744Y-28539D03*
X76744Y-28539D03*
X75744Y-28539D03*
X74744Y-28539D03*
X73744Y-28539D03*
X72744Y-28539D03*
X71744Y-28539D03*
X90744Y-27539D03*
X89744Y-27539D03*
X88744Y-27539D03*
X87744Y-27539D03*
X86744Y-27539D03*
X85744Y-27539D03*
X84744Y-27539D03*
X83744Y-27539D03*
X82744Y-27539D03*
X81744Y-27539D03*
X80744Y-27539D03*
X79744Y-27539D03*
X78744Y-27539D03*
X77744Y-27539D03*
X76744Y-27539D03*
X75744Y-27539D03*
X74744Y-27539D03*
X73744Y-27539D03*
X72744Y-27539D03*
X71744Y-27539D03*
X71744Y-27539D03*
X72744Y-27539D03*
X73744Y-27539D03*
X74744Y-27539D03*
X75744Y-27539D03*
X76744Y-27539D03*
X77744Y-27539D03*
X78744Y-27539D03*
X79744Y-27539D03*
X80744Y-27539D03*
X81744Y-27539D03*
X82744Y-27539D03*
X83744Y-27539D03*
X84744Y-27539D03*
X85744Y-27539D03*
X86744Y-27539D03*
X87744Y-27539D03*
X88744Y-27539D03*
X89744Y-27539D03*
X90744Y-27539D03*
X71744Y-28539D03*
X72744Y-28539D03*
X73744Y-28539D03*
X74744Y-28539D03*
X75744Y-28539D03*
X76744Y-28539D03*
X77744Y-28539D03*
X78744Y-28539D03*
X79744Y-28539D03*
X80744Y-28539D03*
X81744Y-28539D03*
X82744Y-28539D03*
X83744Y-28539D03*
X84744Y-28539D03*
X85744Y-28539D03*
X88744Y-28539D03*
X89744Y-28539D03*
X90744Y-28539D03*
X86744Y-28539D03*
X87744Y-28539D03*
X87744Y-26539D03*
X86744Y-26539D03*
X90744Y-26539D03*
X89744Y-26539D03*
X88744Y-26539D03*
X85744Y-26539D03*
X84744Y-26539D03*
X83744Y-26539D03*
X82744Y-26539D03*
X81744Y-26539D03*
X80744Y-26539D03*
X79744Y-26539D03*
X78744Y-26539D03*
X77744Y-26539D03*
X76744Y-26539D03*
X75744Y-26539D03*
X74744Y-26539D03*
X73744Y-26539D03*
X72744Y-26539D03*
X71744Y-26539D03*
X90744Y-25539D03*
X89744Y-25539D03*
X88744Y-25539D03*
X87744Y-25539D03*
X86744Y-25539D03*
X85744Y-25539D03*
X84744Y-25539D03*
X83744Y-25539D03*
X82744Y-25539D03*
X81744Y-25539D03*
X80744Y-25539D03*
X79744Y-25539D03*
X78744Y-25539D03*
X77744Y-25539D03*
X76744Y-25539D03*
X75744Y-25539D03*
X74744Y-25539D03*
X73744Y-25539D03*
X72744Y-25539D03*
X71744Y-25539D03*
X71744Y-25539D03*
X72744Y-25539D03*
X73744Y-25539D03*
X74744Y-25539D03*
X75744Y-25539D03*
X76744Y-25539D03*
X77744Y-25539D03*
X78744Y-25539D03*
X79744Y-25539D03*
X80744Y-25539D03*
X81744Y-25539D03*
X82744Y-25539D03*
X83744Y-25539D03*
X84744Y-25539D03*
X85744Y-25539D03*
X86744Y-25539D03*
X87744Y-25539D03*
X88744Y-25539D03*
X89744Y-25539D03*
X90744Y-25539D03*
X71744Y-26539D03*
X72744Y-26539D03*
X73744Y-26539D03*
X74744Y-26539D03*
X75744Y-26539D03*
X76744Y-26539D03*
X77744Y-26539D03*
X78744Y-26539D03*
X79744Y-26539D03*
X80744Y-26539D03*
X81744Y-26539D03*
X82744Y-26539D03*
X83744Y-26539D03*
X84744Y-26539D03*
X85744Y-26539D03*
X88744Y-26539D03*
X89744Y-26539D03*
X90744Y-26539D03*
X86744Y-26539D03*
X87744Y-26539D03*
X87744Y-26539D03*
X86744Y-26539D03*
X90744Y-26539D03*
X89744Y-26539D03*
X88744Y-26539D03*
X85744Y-26539D03*
X84744Y-26539D03*
X83744Y-26539D03*
X82744Y-26539D03*
X81744Y-26539D03*
X80744Y-26539D03*
X79744Y-26539D03*
X78744Y-26539D03*
X77744Y-26539D03*
X76744Y-26539D03*
X75744Y-26539D03*
X74744Y-26539D03*
X73744Y-26539D03*
X72744Y-26539D03*
X71744Y-26539D03*
X90744Y-25539D03*
X89744Y-25539D03*
X88744Y-25539D03*
X87744Y-25539D03*
X86744Y-25539D03*
X85744Y-25539D03*
X84744Y-25539D03*
X83744Y-25539D03*
X82744Y-25539D03*
X81744Y-25539D03*
X80744Y-25539D03*
X79744Y-25539D03*
X78744Y-25539D03*
X77744Y-25539D03*
X76744Y-25539D03*
X75744Y-25539D03*
X74744Y-25539D03*
X73744Y-25539D03*
X72744Y-25539D03*
X71744Y-25539D03*
X71744Y-25539D03*
X72744Y-25539D03*
X73744Y-25539D03*
X74744Y-25539D03*
X75744Y-25539D03*
X76744Y-25539D03*
X77744Y-25539D03*
X78744Y-25539D03*
X79744Y-25539D03*
X80744Y-25539D03*
X81744Y-25539D03*
X82744Y-25539D03*
X83744Y-25539D03*
X84744Y-25539D03*
X85744Y-25539D03*
X86744Y-25539D03*
X87744Y-25539D03*
X88744Y-25539D03*
X89744Y-25539D03*
X90744Y-25539D03*
X71744Y-26539D03*
X72744Y-26539D03*
X73744Y-26539D03*
X74744Y-26539D03*
X75744Y-26539D03*
X76744Y-26539D03*
X77744Y-26539D03*
X78744Y-26539D03*
X79744Y-26539D03*
X80744Y-26539D03*
X81744Y-26539D03*
X82744Y-26539D03*
X83744Y-26539D03*
X84744Y-26539D03*
X85744Y-26539D03*
X88744Y-26539D03*
X89744Y-26539D03*
X90744Y-26539D03*
X86744Y-26539D03*
X87744Y-26539D03*
X87744Y-28539D03*
X86744Y-28539D03*
X90744Y-28539D03*
X89744Y-28539D03*
X88744Y-28539D03*
X85744Y-28539D03*
X84744Y-28539D03*
X83744Y-28539D03*
X82744Y-28539D03*
X81744Y-28539D03*
X80744Y-28539D03*
X79744Y-28539D03*
X78744Y-28539D03*
X77744Y-28539D03*
X76744Y-28539D03*
X75744Y-28539D03*
X74744Y-28539D03*
X73744Y-28539D03*
X72744Y-28539D03*
X71744Y-28539D03*
X90744Y-27539D03*
X89744Y-27539D03*
X88744Y-27539D03*
X87744Y-27539D03*
X86744Y-27539D03*
X85744Y-27539D03*
X84744Y-27539D03*
X83744Y-27539D03*
X82744Y-27539D03*
X81744Y-27539D03*
X80744Y-27539D03*
X79744Y-27539D03*
X78744Y-27539D03*
X77744Y-27539D03*
X76744Y-27539D03*
X75744Y-27539D03*
X74744Y-27539D03*
X73744Y-27539D03*
X72744Y-27539D03*
X71744Y-27539D03*
X71744Y-27539D03*
X72744Y-27539D03*
X73744Y-27539D03*
X74744Y-27539D03*
X75744Y-27539D03*
X76744Y-27539D03*
X77744Y-27539D03*
X78744Y-27539D03*
X79744Y-27539D03*
X80744Y-27539D03*
X81744Y-27539D03*
X82744Y-27539D03*
X83744Y-27539D03*
X84744Y-27539D03*
X85744Y-27539D03*
X86744Y-27539D03*
X87744Y-27539D03*
X88744Y-27539D03*
X89744Y-27539D03*
X90744Y-27539D03*
X71744Y-28539D03*
X72744Y-28539D03*
X73744Y-28539D03*
X74744Y-28539D03*
X75744Y-28539D03*
X76744Y-28539D03*
X77744Y-28539D03*
X78744Y-28539D03*
X79744Y-28539D03*
X80744Y-28539D03*
X81744Y-28539D03*
X82744Y-28539D03*
X83744Y-28539D03*
X84744Y-28539D03*
X85744Y-28539D03*
X88744Y-28539D03*
X89744Y-28539D03*
X90744Y-28539D03*
X86744Y-28539D03*
X87744Y-28539D03*
X87744Y-30539D03*
X86744Y-30539D03*
X90744Y-30539D03*
X89744Y-30539D03*
X88744Y-30539D03*
X85744Y-30539D03*
X84744Y-30539D03*
X83744Y-30539D03*
X82744Y-30539D03*
X81744Y-30539D03*
X80744Y-30539D03*
X79744Y-30539D03*
X78744Y-30539D03*
X77744Y-30539D03*
X76744Y-30539D03*
X75744Y-30539D03*
X74744Y-30539D03*
X73744Y-30539D03*
X72744Y-30539D03*
X71744Y-30539D03*
X90744Y-29539D03*
X89744Y-29539D03*
X88744Y-29539D03*
X87744Y-29539D03*
X86744Y-29539D03*
X85744Y-29539D03*
X84744Y-29539D03*
X83744Y-29539D03*
X82744Y-29539D03*
X81744Y-29539D03*
X80744Y-29539D03*
X79744Y-29539D03*
X78744Y-29539D03*
X77744Y-29539D03*
X76744Y-29539D03*
X75744Y-29539D03*
X74744Y-29539D03*
X73744Y-29539D03*
X72744Y-29539D03*
X71744Y-29539D03*
X71744Y-29539D03*
X72744Y-29539D03*
X73744Y-29539D03*
X74744Y-29539D03*
X75744Y-29539D03*
X76744Y-29539D03*
X77744Y-29539D03*
X78744Y-29539D03*
X79744Y-29539D03*
X80744Y-29539D03*
X81744Y-29539D03*
X82744Y-29539D03*
X83744Y-29539D03*
X84744Y-29539D03*
X85744Y-29539D03*
X86744Y-29539D03*
X87744Y-29539D03*
X88744Y-29539D03*
X89744Y-29539D03*
X90744Y-29539D03*
X71744Y-30539D03*
X72744Y-30539D03*
X73744Y-30539D03*
X74744Y-30539D03*
X75744Y-30539D03*
X76744Y-30539D03*
X77744Y-30539D03*
X78744Y-30539D03*
X79744Y-30539D03*
X80744Y-30539D03*
X81744Y-30539D03*
X82744Y-30539D03*
X83744Y-30539D03*
X84744Y-30539D03*
X85744Y-30539D03*
X88744Y-30539D03*
X89744Y-30539D03*
X90744Y-30539D03*
X86744Y-30539D03*
X87744Y-30539D03*
X87744Y-30539D03*
X86744Y-30539D03*
X90744Y-30539D03*
X89744Y-30539D03*
X88744Y-30539D03*
X85744Y-30539D03*
X84744Y-30539D03*
X83744Y-30539D03*
X82744Y-30539D03*
X81744Y-30539D03*
X80744Y-30539D03*
X79744Y-30539D03*
X78744Y-30539D03*
X77744Y-30539D03*
X76744Y-30539D03*
X75744Y-30539D03*
X74744Y-30539D03*
X73744Y-30539D03*
X72744Y-30539D03*
X71744Y-30539D03*
X90744Y-29539D03*
X89744Y-29539D03*
X88744Y-29539D03*
X87744Y-29539D03*
X86744Y-29539D03*
X85744Y-29539D03*
X84744Y-29539D03*
X83744Y-29539D03*
X82744Y-29539D03*
X81744Y-29539D03*
X80744Y-29539D03*
X79744Y-29539D03*
X78744Y-29539D03*
X77744Y-29539D03*
X76744Y-29539D03*
X75744Y-29539D03*
X74744Y-29539D03*
X73744Y-29539D03*
X72744Y-29539D03*
X71744Y-29539D03*
X71744Y-29539D03*
X72744Y-29539D03*
X73744Y-29539D03*
X74744Y-29539D03*
X75744Y-29539D03*
X76744Y-29539D03*
X77744Y-29539D03*
X78744Y-29539D03*
X79744Y-29539D03*
X80744Y-29539D03*
X81744Y-29539D03*
X82744Y-29539D03*
X83744Y-29539D03*
X84744Y-29539D03*
X85744Y-29539D03*
X86744Y-29539D03*
X87744Y-29539D03*
X88744Y-29539D03*
X89744Y-29539D03*
X90744Y-29539D03*
X71744Y-30539D03*
X72744Y-30539D03*
X73744Y-30539D03*
X74744Y-30539D03*
X75744Y-30539D03*
X76744Y-30539D03*
X77744Y-30539D03*
X78744Y-30539D03*
X79744Y-30539D03*
X80744Y-30539D03*
X81744Y-30539D03*
X82744Y-30539D03*
X83744Y-30539D03*
X84744Y-30539D03*
X85744Y-30539D03*
X88744Y-30539D03*
X89744Y-30539D03*
X90744Y-30539D03*
X86744Y-30539D03*
X87744Y-30539D03*
X87744Y-28539D03*
X86744Y-28539D03*
X90744Y-28539D03*
X89744Y-28539D03*
X88744Y-28539D03*
X85744Y-28539D03*
X84744Y-28539D03*
X83744Y-28539D03*
X82744Y-28539D03*
X81744Y-28539D03*
X80744Y-28539D03*
X79744Y-28539D03*
X78744Y-28539D03*
X77744Y-28539D03*
X76744Y-28539D03*
X75744Y-28539D03*
X74744Y-28539D03*
X73744Y-28539D03*
X72744Y-28539D03*
X71744Y-28539D03*
X90744Y-27539D03*
X89744Y-27539D03*
X88744Y-27539D03*
X87744Y-27539D03*
X86744Y-27539D03*
X85744Y-27539D03*
X84744Y-27539D03*
X83744Y-27539D03*
X82744Y-27539D03*
X81744Y-27539D03*
X80744Y-27539D03*
X79744Y-27539D03*
X78744Y-27539D03*
X77744Y-27539D03*
X76744Y-27539D03*
X75744Y-27539D03*
X74744Y-27539D03*
X73744Y-27539D03*
X72744Y-27539D03*
X71744Y-27539D03*
X71744Y-27539D03*
X72744Y-27539D03*
X73744Y-27539D03*
X74744Y-27539D03*
X75744Y-27539D03*
X76744Y-27539D03*
X77744Y-27539D03*
X78744Y-27539D03*
X79744Y-27539D03*
X80744Y-27539D03*
X81744Y-27539D03*
X82744Y-27539D03*
X83744Y-27539D03*
X84744Y-27539D03*
X85744Y-27539D03*
X86744Y-27539D03*
X87744Y-27539D03*
X88744Y-27539D03*
X89744Y-27539D03*
X90744Y-27539D03*
X71744Y-28539D03*
X72744Y-28539D03*
X73744Y-28539D03*
X74744Y-28539D03*
X75744Y-28539D03*
X76744Y-28539D03*
X77744Y-28539D03*
X78744Y-28539D03*
X79744Y-28539D03*
X80744Y-28539D03*
X81744Y-28539D03*
X82744Y-28539D03*
X83744Y-28539D03*
X84744Y-28539D03*
X85744Y-28539D03*
X88744Y-28539D03*
X89744Y-28539D03*
X90744Y-28539D03*
X86744Y-28539D03*
X87744Y-28539D03*
X87744Y-26539D03*
X86744Y-26539D03*
X90744Y-26539D03*
X89744Y-26539D03*
X88744Y-26539D03*
X85744Y-26539D03*
X84744Y-26539D03*
X83744Y-26539D03*
X82744Y-26539D03*
X81744Y-26539D03*
X80744Y-26539D03*
X79744Y-26539D03*
X78744Y-26539D03*
X77744Y-26539D03*
X76744Y-26539D03*
X75744Y-26539D03*
X74744Y-26539D03*
X73744Y-26539D03*
X72744Y-26539D03*
X71744Y-26539D03*
X90744Y-25539D03*
X89744Y-25539D03*
X88744Y-25539D03*
X87744Y-25539D03*
X86744Y-25539D03*
X85744Y-25539D03*
X84744Y-25539D03*
X83744Y-25539D03*
X82744Y-25539D03*
X81744Y-25539D03*
X80744Y-25539D03*
X79744Y-25539D03*
X78744Y-25539D03*
X77744Y-25539D03*
X76744Y-25539D03*
X75744Y-25539D03*
X74744Y-25539D03*
X73744Y-25539D03*
X72744Y-25539D03*
X71744Y-25539D03*
X71744Y-25539D03*
X72744Y-25539D03*
X73744Y-25539D03*
X74744Y-25539D03*
X75744Y-25539D03*
X76744Y-25539D03*
X77744Y-25539D03*
X78744Y-25539D03*
X79744Y-25539D03*
X80744Y-25539D03*
X81744Y-25539D03*
X82744Y-25539D03*
X83744Y-25539D03*
X84744Y-25539D03*
X85744Y-25539D03*
X86744Y-25539D03*
X87744Y-25539D03*
X88744Y-25539D03*
X89744Y-25539D03*
X90744Y-25539D03*
X71744Y-26539D03*
X72744Y-26539D03*
X73744Y-26539D03*
X74744Y-26539D03*
X75744Y-26539D03*
X76744Y-26539D03*
X77744Y-26539D03*
X78744Y-26539D03*
X79744Y-26539D03*
X80744Y-26539D03*
X81744Y-26539D03*
X82744Y-26539D03*
X83744Y-26539D03*
X84744Y-26539D03*
X85744Y-26539D03*
X88744Y-26539D03*
X89744Y-26539D03*
X90744Y-26539D03*
X86744Y-26539D03*
X87744Y-26539D03*
X87744Y-18539D03*
X86744Y-18539D03*
X90744Y-18539D03*
X89744Y-18539D03*
X88744Y-18539D03*
X85744Y-18539D03*
X84744Y-18539D03*
X83744Y-18539D03*
X82744Y-18539D03*
X81744Y-18539D03*
X80744Y-18539D03*
X79744Y-18539D03*
X78744Y-18539D03*
X77744Y-18539D03*
X76744Y-18539D03*
X75744Y-18539D03*
X74744Y-18539D03*
X73744Y-18539D03*
X72744Y-18539D03*
X71744Y-18539D03*
X90744Y-17539D03*
X89744Y-17539D03*
X88744Y-17539D03*
X87744Y-17539D03*
X86744Y-17539D03*
X85744Y-17539D03*
X84744Y-17539D03*
X83744Y-17539D03*
X82744Y-17539D03*
X81744Y-17539D03*
X80744Y-17539D03*
X79744Y-17539D03*
X78744Y-17539D03*
X77744Y-17539D03*
X76744Y-17539D03*
X75744Y-17539D03*
X74744Y-17539D03*
X73744Y-17539D03*
X72744Y-17539D03*
X71744Y-17539D03*
X71744Y-17539D03*
X72744Y-17539D03*
X73744Y-17539D03*
X74744Y-17539D03*
X75744Y-17539D03*
X76744Y-17539D03*
X77744Y-17539D03*
X78744Y-17539D03*
X79744Y-17539D03*
X80744Y-17539D03*
X81744Y-17539D03*
X82744Y-17539D03*
X83744Y-17539D03*
X84744Y-17539D03*
X85744Y-17539D03*
X86744Y-17539D03*
X87744Y-17539D03*
X88744Y-17539D03*
X89744Y-17539D03*
X90744Y-17539D03*
X71744Y-18539D03*
X72744Y-18539D03*
X73744Y-18539D03*
X74744Y-18539D03*
X75744Y-18539D03*
X76744Y-18539D03*
X77744Y-18539D03*
X78744Y-18539D03*
X79744Y-18539D03*
X80744Y-18539D03*
X81744Y-18539D03*
X82744Y-18539D03*
X83744Y-18539D03*
X84744Y-18539D03*
X85744Y-18539D03*
X88744Y-18539D03*
X89744Y-18539D03*
X90744Y-18539D03*
X86744Y-18539D03*
X87744Y-18539D03*
X87744Y-20539D03*
X86744Y-20539D03*
X90744Y-20539D03*
X89744Y-20539D03*
X88744Y-20539D03*
X85744Y-20539D03*
X84744Y-20539D03*
X83744Y-20539D03*
X82744Y-20539D03*
X81744Y-20539D03*
X80744Y-20539D03*
X79744Y-20539D03*
X78744Y-20539D03*
X77744Y-20539D03*
X76744Y-20539D03*
X75744Y-20539D03*
X74744Y-20539D03*
X73744Y-20539D03*
X72744Y-20539D03*
X71744Y-20539D03*
X90744Y-19539D03*
X89744Y-19539D03*
X88744Y-19539D03*
X87744Y-19539D03*
X86744Y-19539D03*
X85744Y-19539D03*
X84744Y-19539D03*
X83744Y-19539D03*
X82744Y-19539D03*
X81744Y-19539D03*
X80744Y-19539D03*
X79744Y-19539D03*
X78744Y-19539D03*
X77744Y-19539D03*
X76744Y-19539D03*
X75744Y-19539D03*
X74744Y-19539D03*
X73744Y-19539D03*
X72744Y-19539D03*
X71744Y-19539D03*
X71744Y-19539D03*
X72744Y-19539D03*
X73744Y-19539D03*
X74744Y-19539D03*
X75744Y-19539D03*
X76744Y-19539D03*
X77744Y-19539D03*
X78744Y-19539D03*
X79744Y-19539D03*
X80744Y-19539D03*
X81744Y-19539D03*
X82744Y-19539D03*
X83744Y-19539D03*
X84744Y-19539D03*
X85744Y-19539D03*
X86744Y-19539D03*
X87744Y-19539D03*
X88744Y-19539D03*
X89744Y-19539D03*
X90744Y-19539D03*
X71744Y-20539D03*
X72744Y-20539D03*
X73744Y-20539D03*
X74744Y-20539D03*
X75744Y-20539D03*
X76744Y-20539D03*
X77744Y-20539D03*
X78744Y-20539D03*
X79744Y-20539D03*
X80744Y-20539D03*
X81744Y-20539D03*
X82744Y-20539D03*
X83744Y-20539D03*
X84744Y-20539D03*
X85744Y-20539D03*
X88744Y-20539D03*
X89744Y-20539D03*
X90744Y-20539D03*
X86744Y-20539D03*
X87744Y-20539D03*
X87744Y-24539D03*
X86744Y-24539D03*
X90744Y-24539D03*
X89744Y-24539D03*
X88744Y-24539D03*
X85744Y-24539D03*
X84744Y-24539D03*
X83744Y-24539D03*
X82744Y-24539D03*
X81744Y-24539D03*
X80744Y-24539D03*
X79744Y-24539D03*
X78744Y-24539D03*
X77744Y-24539D03*
X76744Y-24539D03*
X75744Y-24539D03*
X74744Y-24539D03*
X73744Y-24539D03*
X72744Y-24539D03*
X71744Y-24539D03*
X90744Y-23539D03*
X89744Y-23539D03*
X88744Y-23539D03*
X87744Y-23539D03*
X86744Y-23539D03*
X85744Y-23539D03*
X84744Y-23539D03*
X83744Y-23539D03*
X82744Y-23539D03*
X81744Y-23539D03*
X80744Y-23539D03*
X79744Y-23539D03*
X78744Y-23539D03*
X77744Y-23539D03*
X76744Y-23539D03*
X75744Y-23539D03*
X74744Y-23539D03*
X73744Y-23539D03*
X72744Y-23539D03*
X71744Y-23539D03*
X71744Y-23539D03*
X72744Y-23539D03*
X73744Y-23539D03*
X74744Y-23539D03*
X75744Y-23539D03*
X76744Y-23539D03*
X77744Y-23539D03*
X78744Y-23539D03*
X79744Y-23539D03*
X80744Y-23539D03*
X81744Y-23539D03*
X82744Y-23539D03*
X83744Y-23539D03*
X84744Y-23539D03*
X85744Y-23539D03*
X86744Y-23539D03*
X87744Y-23539D03*
X88744Y-23539D03*
X89744Y-23539D03*
X90744Y-23539D03*
X71744Y-24539D03*
X72744Y-24539D03*
X73744Y-24539D03*
X74744Y-24539D03*
X75744Y-24539D03*
X76744Y-24539D03*
X77744Y-24539D03*
X78744Y-24539D03*
X79744Y-24539D03*
X80744Y-24539D03*
X81744Y-24539D03*
X82744Y-24539D03*
X83744Y-24539D03*
X84744Y-24539D03*
X85744Y-24539D03*
X88744Y-24539D03*
X89744Y-24539D03*
X90744Y-24539D03*
X86744Y-24539D03*
X87744Y-24539D03*
X87744Y-22539D03*
X86744Y-22539D03*
X90744Y-22539D03*
X89744Y-22539D03*
X88744Y-22539D03*
X85744Y-22539D03*
X84744Y-22539D03*
X83744Y-22539D03*
X82744Y-22539D03*
X81744Y-22539D03*
X80744Y-22539D03*
X79744Y-22539D03*
X78744Y-22539D03*
X77744Y-22539D03*
X76744Y-22539D03*
X75744Y-22539D03*
X74744Y-22539D03*
X73744Y-22539D03*
X72744Y-22539D03*
X71744Y-22539D03*
X90744Y-21539D03*
X89744Y-21539D03*
X88744Y-21539D03*
X87744Y-21539D03*
X86744Y-21539D03*
X85744Y-21539D03*
X84744Y-21539D03*
X83744Y-21539D03*
X82744Y-21539D03*
X81744Y-21539D03*
X80744Y-21539D03*
X79744Y-21539D03*
X78744Y-21539D03*
X77744Y-21539D03*
X76744Y-21539D03*
X75744Y-21539D03*
X74744Y-21539D03*
X73744Y-21539D03*
X72744Y-21539D03*
X71744Y-21539D03*
X71744Y-21539D03*
X72744Y-21539D03*
X73744Y-21539D03*
X74744Y-21539D03*
X75744Y-21539D03*
X76744Y-21539D03*
X77744Y-21539D03*
X78744Y-21539D03*
X79744Y-21539D03*
X80744Y-21539D03*
X81744Y-21539D03*
X82744Y-21539D03*
X83744Y-21539D03*
X84744Y-21539D03*
X85744Y-21539D03*
X86744Y-21539D03*
X87744Y-21539D03*
X88744Y-21539D03*
X89744Y-21539D03*
X90744Y-21539D03*
X71744Y-22539D03*
X72744Y-22539D03*
X73744Y-22539D03*
X74744Y-22539D03*
X75744Y-22539D03*
X76744Y-22539D03*
X77744Y-22539D03*
X78744Y-22539D03*
X79744Y-22539D03*
X80744Y-22539D03*
X81744Y-22539D03*
X82744Y-22539D03*
X83744Y-22539D03*
X84744Y-22539D03*
X85744Y-22539D03*
X88744Y-22539D03*
X89744Y-22539D03*
X90744Y-22539D03*
X86744Y-22539D03*
X87744Y-22539D03*
X87744Y-22539D03*
X86744Y-22539D03*
X90744Y-22539D03*
X89744Y-22539D03*
X88744Y-22539D03*
X85744Y-22539D03*
X84744Y-22539D03*
X83744Y-22539D03*
X82744Y-22539D03*
X81744Y-22539D03*
X80744Y-22539D03*
X79744Y-22539D03*
X78744Y-22539D03*
X77744Y-22539D03*
X76744Y-22539D03*
X75744Y-22539D03*
X74744Y-22539D03*
X73744Y-22539D03*
X72744Y-22539D03*
X71744Y-22539D03*
X90744Y-21539D03*
X89744Y-21539D03*
X88744Y-21539D03*
X87744Y-21539D03*
X86744Y-21539D03*
X85744Y-21539D03*
X84744Y-21539D03*
X83744Y-21539D03*
X82744Y-21539D03*
X81744Y-21539D03*
X80744Y-21539D03*
X79744Y-21539D03*
X78744Y-21539D03*
X77744Y-21539D03*
X76744Y-21539D03*
X75744Y-21539D03*
X74744Y-21539D03*
X73744Y-21539D03*
X72744Y-21539D03*
X71744Y-21539D03*
X71744Y-21539D03*
X72744Y-21539D03*
X73744Y-21539D03*
X74744Y-21539D03*
X75744Y-21539D03*
X76744Y-21539D03*
X77744Y-21539D03*
X78744Y-21539D03*
X79744Y-21539D03*
X80744Y-21539D03*
X81744Y-21539D03*
X82744Y-21539D03*
X83744Y-21539D03*
X84744Y-21539D03*
X85744Y-21539D03*
X86744Y-21539D03*
X87744Y-21539D03*
X88744Y-21539D03*
X89744Y-21539D03*
X90744Y-21539D03*
X71744Y-22539D03*
X72744Y-22539D03*
X73744Y-22539D03*
X74744Y-22539D03*
X75744Y-22539D03*
X76744Y-22539D03*
X77744Y-22539D03*
X78744Y-22539D03*
X79744Y-22539D03*
X80744Y-22539D03*
X81744Y-22539D03*
X82744Y-22539D03*
X83744Y-22539D03*
X84744Y-22539D03*
X85744Y-22539D03*
X88744Y-22539D03*
X89744Y-22539D03*
X90744Y-22539D03*
X86744Y-22539D03*
X87744Y-22539D03*
X87744Y-24539D03*
X86744Y-24539D03*
X90744Y-24539D03*
X89744Y-24539D03*
X88744Y-24539D03*
X85744Y-24539D03*
X84744Y-24539D03*
X83744Y-24539D03*
X82744Y-24539D03*
X81744Y-24539D03*
X80744Y-24539D03*
X79744Y-24539D03*
X78744Y-24539D03*
X77744Y-24539D03*
X76744Y-24539D03*
X75744Y-24539D03*
X74744Y-24539D03*
X73744Y-24539D03*
X72744Y-24539D03*
X71744Y-24539D03*
X90744Y-23539D03*
X89744Y-23539D03*
X88744Y-23539D03*
X87744Y-23539D03*
X86744Y-23539D03*
X85744Y-23539D03*
X84744Y-23539D03*
X83744Y-23539D03*
X82744Y-23539D03*
X81744Y-23539D03*
X80744Y-23539D03*
X79744Y-23539D03*
X78744Y-23539D03*
X77744Y-23539D03*
X76744Y-23539D03*
X75744Y-23539D03*
X74744Y-23539D03*
X73744Y-23539D03*
X72744Y-23539D03*
X71744Y-23539D03*
X71744Y-23539D03*
X72744Y-23539D03*
X73744Y-23539D03*
X74744Y-23539D03*
X75744Y-23539D03*
X76744Y-23539D03*
X77744Y-23539D03*
X78744Y-23539D03*
X79744Y-23539D03*
X80744Y-23539D03*
X81744Y-23539D03*
X82744Y-23539D03*
X83744Y-23539D03*
X84744Y-23539D03*
X85744Y-23539D03*
X86744Y-23539D03*
X87744Y-23539D03*
X88744Y-23539D03*
X89744Y-23539D03*
X90744Y-23539D03*
X71744Y-24539D03*
X72744Y-24539D03*
X73744Y-24539D03*
X74744Y-24539D03*
X75744Y-24539D03*
X76744Y-24539D03*
X77744Y-24539D03*
X78744Y-24539D03*
X79744Y-24539D03*
X80744Y-24539D03*
X81744Y-24539D03*
X82744Y-24539D03*
X83744Y-24539D03*
X84744Y-24539D03*
X85744Y-24539D03*
X88744Y-24539D03*
X89744Y-24539D03*
X90744Y-24539D03*
X86744Y-24539D03*
X87744Y-24539D03*
X87744Y-20539D03*
X86744Y-20539D03*
X90744Y-20539D03*
X89744Y-20539D03*
X88744Y-20539D03*
X85744Y-20539D03*
X84744Y-20539D03*
X83744Y-20539D03*
X82744Y-20539D03*
X81744Y-20539D03*
X80744Y-20539D03*
X79744Y-20539D03*
X78744Y-20539D03*
X77744Y-20539D03*
X76744Y-20539D03*
X75744Y-20539D03*
X74744Y-20539D03*
X73744Y-20539D03*
X72744Y-20539D03*
X71744Y-20539D03*
X90744Y-19539D03*
X89744Y-19539D03*
X88744Y-19539D03*
X87744Y-19539D03*
X86744Y-19539D03*
X85744Y-19539D03*
X84744Y-19539D03*
X83744Y-19539D03*
X82744Y-19539D03*
X81744Y-19539D03*
X80744Y-19539D03*
X79744Y-19539D03*
X78744Y-19539D03*
X77744Y-19539D03*
X76744Y-19539D03*
X75744Y-19539D03*
X74744Y-19539D03*
X73744Y-19539D03*
X72744Y-19539D03*
X71744Y-19539D03*
X71744Y-19539D03*
X72744Y-19539D03*
X73744Y-19539D03*
X74744Y-19539D03*
X75744Y-19539D03*
X76744Y-19539D03*
X77744Y-19539D03*
X78744Y-19539D03*
X79744Y-19539D03*
X80744Y-19539D03*
X81744Y-19539D03*
X82744Y-19539D03*
X83744Y-19539D03*
X84744Y-19539D03*
X85744Y-19539D03*
X86744Y-19539D03*
X87744Y-19539D03*
X88744Y-19539D03*
X89744Y-19539D03*
X90744Y-19539D03*
X71744Y-20539D03*
X72744Y-20539D03*
X73744Y-20539D03*
X74744Y-20539D03*
X75744Y-20539D03*
X76744Y-20539D03*
X77744Y-20539D03*
X78744Y-20539D03*
X79744Y-20539D03*
X80744Y-20539D03*
X81744Y-20539D03*
X82744Y-20539D03*
X83744Y-20539D03*
X84744Y-20539D03*
X85744Y-20539D03*
X88744Y-20539D03*
X89744Y-20539D03*
X90744Y-20539D03*
X86744Y-20539D03*
X87744Y-20539D03*
X87744Y-18539D03*
X86744Y-18539D03*
X90744Y-18539D03*
X89744Y-18539D03*
X88744Y-18539D03*
X85744Y-18539D03*
X84744Y-18539D03*
X83744Y-18539D03*
X82744Y-18539D03*
X81744Y-18539D03*
X80744Y-18539D03*
X79744Y-18539D03*
X78744Y-18539D03*
X77744Y-18539D03*
X76744Y-18539D03*
X75744Y-18539D03*
X74744Y-18539D03*
X73744Y-18539D03*
X72744Y-18539D03*
X71744Y-18539D03*
X90744Y-17539D03*
X89744Y-17539D03*
X88744Y-17539D03*
X87744Y-17539D03*
X86744Y-17539D03*
X85744Y-17539D03*
X84744Y-17539D03*
X83744Y-17539D03*
X82744Y-17539D03*
X81744Y-17539D03*
X80744Y-17539D03*
X79744Y-17539D03*
X78744Y-17539D03*
X77744Y-17539D03*
X76744Y-17539D03*
X75744Y-17539D03*
X74744Y-17539D03*
X73744Y-17539D03*
X72744Y-17539D03*
X71744Y-17539D03*
X71744Y-17539D03*
X72744Y-17539D03*
X73744Y-17539D03*
X74744Y-17539D03*
X75744Y-17539D03*
X76744Y-17539D03*
X77744Y-17539D03*
X78744Y-17539D03*
X79744Y-17539D03*
X80744Y-17539D03*
X81744Y-17539D03*
X82744Y-17539D03*
X83744Y-17539D03*
X84744Y-17539D03*
X85744Y-17539D03*
X86744Y-17539D03*
X87744Y-17539D03*
X88744Y-17539D03*
X89744Y-17539D03*
X90744Y-17539D03*
X71744Y-18539D03*
X72744Y-18539D03*
X73744Y-18539D03*
X74744Y-18539D03*
X75744Y-18539D03*
X76744Y-18539D03*
X77744Y-18539D03*
X78744Y-18539D03*
X79744Y-18539D03*
X80744Y-18539D03*
X81744Y-18539D03*
X82744Y-18539D03*
X83744Y-18539D03*
X84744Y-18539D03*
X85744Y-18539D03*
X88744Y-18539D03*
X89744Y-18539D03*
X90744Y-18539D03*
X86744Y-18539D03*
X87744Y-18539D03*
M02*
