G04 (created by PCBNEW (2013-jul-07)-stable) date Sat 01 Nov 2014 03:24:29 PM PDT*
%MOIN*%
G04 Gerber Fmt 3.4, Leading zero omitted, Abs format*
%FSLAX34Y34*%
G01*
G70*
G90*
G04 APERTURE LIST*
%ADD10C,0.00590551*%
%ADD11C,0.055*%
%ADD12R,0.045X0.025*%
%ADD13R,0.06X0.06*%
%ADD14C,0.06*%
%ADD15R,0.05X0.038*%
%ADD16R,0.025X0.045*%
%ADD17R,0.1X0.05*%
%ADD18R,0.144X0.08*%
%ADD19R,0.04X0.08*%
%ADD20R,0.035X0.055*%
%ADD21R,0.055X0.035*%
G04 APERTURE END LIST*
G54D10*
G54D11*
X91600Y-49200D03*
X93400Y-49200D03*
X91600Y-51800D03*
X93400Y-51800D03*
X91600Y-44450D03*
X93400Y-44450D03*
X91600Y-47050D03*
X93400Y-47050D03*
X91588Y-39440D03*
X93388Y-39440D03*
X91588Y-42040D03*
X93388Y-42040D03*
X91600Y-34700D03*
X93400Y-34700D03*
X91600Y-37300D03*
X93400Y-37300D03*
G54D12*
X83642Y-47343D03*
X83642Y-46743D03*
G54D13*
X69094Y-31980D03*
G54D14*
X69094Y-32980D03*
G54D15*
X79800Y-44650D03*
X79800Y-44150D03*
G54D12*
X82200Y-40600D03*
X82200Y-41200D03*
G54D16*
X75275Y-41250D03*
X75875Y-41250D03*
X78330Y-47412D03*
X78930Y-47412D03*
G54D12*
X85600Y-39300D03*
X85600Y-39900D03*
G54D16*
X84525Y-44775D03*
X83925Y-44775D03*
X78115Y-43935D03*
X78715Y-43935D03*
X78100Y-42000D03*
X78700Y-42000D03*
G54D12*
X78800Y-40650D03*
X78800Y-41250D03*
G54D16*
X84500Y-42450D03*
X83900Y-42450D03*
G54D12*
X80475Y-40600D03*
X80475Y-41200D03*
G54D16*
X84520Y-43220D03*
X83920Y-43220D03*
X78100Y-45800D03*
X78700Y-45800D03*
G54D12*
X78050Y-40650D03*
X78050Y-41250D03*
X84722Y-41714D03*
X84722Y-41114D03*
X80241Y-47333D03*
X80241Y-46733D03*
X80910Y-47320D03*
X80910Y-46720D03*
G54D16*
X78100Y-43200D03*
X78700Y-43200D03*
X83900Y-38500D03*
X84500Y-38500D03*
X84524Y-45568D03*
X83924Y-45568D03*
X73940Y-34230D03*
X73340Y-34230D03*
G54D12*
X81000Y-44100D03*
X81000Y-44700D03*
X89360Y-38290D03*
X89360Y-38890D03*
X81000Y-45300D03*
X81000Y-45900D03*
G54D16*
X75450Y-40250D03*
X76050Y-40250D03*
G54D12*
X87815Y-38298D03*
X87815Y-38898D03*
G54D16*
X75565Y-34200D03*
X74965Y-34200D03*
X85450Y-38500D03*
X86050Y-38500D03*
G54D17*
X72000Y-35600D03*
X72000Y-34400D03*
G54D18*
X88500Y-34700D03*
G54D19*
X88500Y-37300D03*
X87600Y-37300D03*
X89400Y-37300D03*
G54D18*
X84500Y-34700D03*
G54D19*
X84500Y-37300D03*
X83600Y-37300D03*
X85400Y-37300D03*
G54D20*
X76275Y-34230D03*
X77025Y-34230D03*
G54D14*
X90500Y-32000D03*
X90500Y-33000D03*
X85500Y-32000D03*
X89500Y-33000D03*
X84500Y-32000D03*
X88500Y-33000D03*
X83500Y-32000D03*
X87500Y-33000D03*
X82500Y-32000D03*
X86500Y-33000D03*
X81500Y-32000D03*
X85500Y-33000D03*
X80500Y-32000D03*
X84500Y-33000D03*
X79500Y-32000D03*
X83500Y-33000D03*
X78500Y-32000D03*
X82500Y-33000D03*
X77500Y-32000D03*
X81500Y-33000D03*
X76500Y-32000D03*
X80500Y-33000D03*
X75500Y-32000D03*
X79500Y-33000D03*
X78500Y-33000D03*
X74500Y-32000D03*
X77500Y-33000D03*
X75500Y-33000D03*
X74500Y-33000D03*
X73500Y-33000D03*
X72500Y-33000D03*
X73500Y-32000D03*
X72500Y-32000D03*
X89500Y-32000D03*
X88500Y-32000D03*
X87500Y-32000D03*
X86500Y-32000D03*
X71500Y-32000D03*
G54D13*
X71500Y-33000D03*
G54D14*
X76500Y-33000D03*
G54D12*
X79660Y-40620D03*
X79660Y-41220D03*
G54D16*
X84500Y-44000D03*
X83900Y-44000D03*
G54D12*
X81350Y-40600D03*
X81350Y-41200D03*
G54D15*
X79800Y-45850D03*
X79800Y-45350D03*
G54D14*
X90500Y-53400D03*
X90500Y-54400D03*
X85500Y-53400D03*
X89500Y-54400D03*
X84500Y-53400D03*
X88500Y-54400D03*
X83500Y-53400D03*
X87500Y-54400D03*
X82500Y-53400D03*
X86500Y-54400D03*
X81500Y-53400D03*
X85500Y-54400D03*
X80500Y-53400D03*
X84500Y-54400D03*
X79500Y-53400D03*
X83500Y-54400D03*
X78500Y-53400D03*
X82500Y-54400D03*
X77500Y-53400D03*
X81500Y-54400D03*
X76500Y-53400D03*
X80500Y-54400D03*
X75500Y-53400D03*
X79500Y-54400D03*
X78500Y-54400D03*
X74500Y-53400D03*
X77500Y-54400D03*
X75500Y-54400D03*
X74500Y-54400D03*
X73500Y-54400D03*
X72500Y-54400D03*
X73500Y-53400D03*
X72500Y-53400D03*
X89500Y-53400D03*
X88500Y-53400D03*
X87500Y-53400D03*
X86500Y-53400D03*
X71500Y-53400D03*
G54D13*
X71500Y-54400D03*
G54D14*
X76500Y-54400D03*
G54D21*
X87010Y-38765D03*
X87010Y-39515D03*
G54D20*
X83125Y-38500D03*
X82375Y-38500D03*
G54D13*
X69040Y-47560D03*
G54D14*
X70040Y-47560D03*
X69040Y-48560D03*
X70040Y-48560D03*
X69040Y-49560D03*
X70040Y-49560D03*
X69040Y-50560D03*
X70040Y-50560D03*
X69040Y-51560D03*
X70040Y-51560D03*
X69040Y-52560D03*
X70040Y-52560D03*
X69040Y-53560D03*
X70040Y-53560D03*
G54D18*
X74370Y-39410D03*
G54D19*
X74370Y-36810D03*
X75270Y-36810D03*
X73470Y-36810D03*
G54D13*
X70708Y-40358D03*
G54D14*
X70708Y-39358D03*
X70708Y-38358D03*
X70708Y-37358D03*
X92692Y-20543D03*
X92692Y-19543D03*
X92692Y-18543D03*
X92692Y-17543D03*
X92692Y-17543D03*
X92692Y-18543D03*
X92692Y-19543D03*
X92692Y-20543D03*
X92692Y-20543D03*
X92692Y-19543D03*
X92692Y-18543D03*
X92692Y-17543D03*
X92692Y-21480D03*
X92692Y-22480D03*
X92692Y-23480D03*
X92692Y-24480D03*
X92692Y-24480D03*
X92692Y-23480D03*
X92692Y-22480D03*
X92692Y-21480D03*
X92692Y-21480D03*
X92692Y-22480D03*
X92692Y-23480D03*
X92692Y-24480D03*
X92692Y-30480D03*
X92692Y-29480D03*
X92692Y-28480D03*
X92692Y-27480D03*
X92692Y-26480D03*
X92692Y-25480D03*
X92692Y-24480D03*
X92692Y-23480D03*
X92692Y-22480D03*
X92692Y-21480D03*
X69216Y-20543D03*
X69216Y-19543D03*
X69216Y-18543D03*
X69216Y-17543D03*
X69216Y-17543D03*
X69216Y-18543D03*
X69216Y-19543D03*
X69216Y-20543D03*
X69216Y-20543D03*
X69216Y-19543D03*
X69216Y-18543D03*
X69216Y-17543D03*
X69216Y-21480D03*
X69216Y-22480D03*
X69216Y-23480D03*
X69216Y-24480D03*
X69216Y-24480D03*
X69216Y-23480D03*
X69216Y-22480D03*
X69216Y-21480D03*
X69216Y-21480D03*
X69216Y-22480D03*
X69216Y-23480D03*
X69216Y-24480D03*
X69216Y-30480D03*
X69216Y-29480D03*
X69216Y-28480D03*
X69216Y-27480D03*
X69216Y-26480D03*
X69216Y-25480D03*
X69216Y-24480D03*
X69216Y-23480D03*
X69216Y-22480D03*
X69216Y-21480D03*
X87744Y-18539D03*
X86744Y-18539D03*
X90744Y-18539D03*
X89744Y-18539D03*
X88744Y-18539D03*
X85744Y-18539D03*
X84744Y-18539D03*
X83744Y-18539D03*
X82744Y-18539D03*
X81744Y-18539D03*
X80744Y-18539D03*
X79744Y-18539D03*
X78744Y-18539D03*
X77744Y-18539D03*
X76744Y-18539D03*
X75744Y-18539D03*
X74744Y-18539D03*
X73744Y-18539D03*
X72744Y-18539D03*
X71744Y-18539D03*
X90744Y-17539D03*
X89744Y-17539D03*
X88744Y-17539D03*
X87744Y-17539D03*
X86744Y-17539D03*
X85744Y-17539D03*
X84744Y-17539D03*
X83744Y-17539D03*
X82744Y-17539D03*
X81744Y-17539D03*
X80744Y-17539D03*
X79744Y-17539D03*
X78744Y-17539D03*
X77744Y-17539D03*
X76744Y-17539D03*
X75744Y-17539D03*
X74744Y-17539D03*
X73744Y-17539D03*
X72744Y-17539D03*
X71744Y-17539D03*
X71744Y-17539D03*
X72744Y-17539D03*
X73744Y-17539D03*
X74744Y-17539D03*
X75744Y-17539D03*
X76744Y-17539D03*
X77744Y-17539D03*
X78744Y-17539D03*
X79744Y-17539D03*
X80744Y-17539D03*
X81744Y-17539D03*
X82744Y-17539D03*
X83744Y-17539D03*
X84744Y-17539D03*
X85744Y-17539D03*
X86744Y-17539D03*
X87744Y-17539D03*
X88744Y-17539D03*
X89744Y-17539D03*
X90744Y-17539D03*
X71744Y-18539D03*
X72744Y-18539D03*
X73744Y-18539D03*
X74744Y-18539D03*
X75744Y-18539D03*
X76744Y-18539D03*
X77744Y-18539D03*
X78744Y-18539D03*
X79744Y-18539D03*
X80744Y-18539D03*
X81744Y-18539D03*
X82744Y-18539D03*
X83744Y-18539D03*
X84744Y-18539D03*
X85744Y-18539D03*
X88744Y-18539D03*
X89744Y-18539D03*
X90744Y-18539D03*
X86744Y-18539D03*
X87744Y-18539D03*
X87744Y-20539D03*
X86744Y-20539D03*
X90744Y-20539D03*
X89744Y-20539D03*
X88744Y-20539D03*
X85744Y-20539D03*
X84744Y-20539D03*
X83744Y-20539D03*
X82744Y-20539D03*
X81744Y-20539D03*
X80744Y-20539D03*
X79744Y-20539D03*
X78744Y-20539D03*
X77744Y-20539D03*
X76744Y-20539D03*
X75744Y-20539D03*
X74744Y-20539D03*
X73744Y-20539D03*
X72744Y-20539D03*
X71744Y-20539D03*
X90744Y-19539D03*
X89744Y-19539D03*
X88744Y-19539D03*
X87744Y-19539D03*
X86744Y-19539D03*
X85744Y-19539D03*
X84744Y-19539D03*
X83744Y-19539D03*
X82744Y-19539D03*
X81744Y-19539D03*
X80744Y-19539D03*
X79744Y-19539D03*
X78744Y-19539D03*
X77744Y-19539D03*
X76744Y-19539D03*
X75744Y-19539D03*
X74744Y-19539D03*
X73744Y-19539D03*
X72744Y-19539D03*
X71744Y-19539D03*
X71744Y-19539D03*
X72744Y-19539D03*
X73744Y-19539D03*
X74744Y-19539D03*
X75744Y-19539D03*
X76744Y-19539D03*
X77744Y-19539D03*
X78744Y-19539D03*
X79744Y-19539D03*
X80744Y-19539D03*
X81744Y-19539D03*
X82744Y-19539D03*
X83744Y-19539D03*
X84744Y-19539D03*
X85744Y-19539D03*
X86744Y-19539D03*
X87744Y-19539D03*
X88744Y-19539D03*
X89744Y-19539D03*
X90744Y-19539D03*
X71744Y-20539D03*
X72744Y-20539D03*
X73744Y-20539D03*
X74744Y-20539D03*
X75744Y-20539D03*
X76744Y-20539D03*
X77744Y-20539D03*
X78744Y-20539D03*
X79744Y-20539D03*
X80744Y-20539D03*
X81744Y-20539D03*
X82744Y-20539D03*
X83744Y-20539D03*
X84744Y-20539D03*
X85744Y-20539D03*
X88744Y-20539D03*
X89744Y-20539D03*
X90744Y-20539D03*
X86744Y-20539D03*
X87744Y-20539D03*
X87744Y-24539D03*
X86744Y-24539D03*
X90744Y-24539D03*
X89744Y-24539D03*
X88744Y-24539D03*
X85744Y-24539D03*
X84744Y-24539D03*
X83744Y-24539D03*
X82744Y-24539D03*
X81744Y-24539D03*
X80744Y-24539D03*
X79744Y-24539D03*
X78744Y-24539D03*
X77744Y-24539D03*
X76744Y-24539D03*
X75744Y-24539D03*
X74744Y-24539D03*
X73744Y-24539D03*
X72744Y-24539D03*
X71744Y-24539D03*
X90744Y-23539D03*
X89744Y-23539D03*
X88744Y-23539D03*
X87744Y-23539D03*
X86744Y-23539D03*
X85744Y-23539D03*
X84744Y-23539D03*
X83744Y-23539D03*
X82744Y-23539D03*
X81744Y-23539D03*
X80744Y-23539D03*
X79744Y-23539D03*
X78744Y-23539D03*
X77744Y-23539D03*
X76744Y-23539D03*
X75744Y-23539D03*
X74744Y-23539D03*
X73744Y-23539D03*
X72744Y-23539D03*
X71744Y-23539D03*
X71744Y-23539D03*
X72744Y-23539D03*
X73744Y-23539D03*
X74744Y-23539D03*
X75744Y-23539D03*
X76744Y-23539D03*
X77744Y-23539D03*
X78744Y-23539D03*
X79744Y-23539D03*
X80744Y-23539D03*
X81744Y-23539D03*
X82744Y-23539D03*
X83744Y-23539D03*
X84744Y-23539D03*
X85744Y-23539D03*
X86744Y-23539D03*
X87744Y-23539D03*
X88744Y-23539D03*
X89744Y-23539D03*
X90744Y-23539D03*
X71744Y-24539D03*
X72744Y-24539D03*
X73744Y-24539D03*
X74744Y-24539D03*
X75744Y-24539D03*
X76744Y-24539D03*
X77744Y-24539D03*
X78744Y-24539D03*
X79744Y-24539D03*
X80744Y-24539D03*
X81744Y-24539D03*
X82744Y-24539D03*
X83744Y-24539D03*
X84744Y-24539D03*
X85744Y-24539D03*
X88744Y-24539D03*
X89744Y-24539D03*
X90744Y-24539D03*
X86744Y-24539D03*
X87744Y-24539D03*
X87744Y-22539D03*
X86744Y-22539D03*
X90744Y-22539D03*
X89744Y-22539D03*
X88744Y-22539D03*
X85744Y-22539D03*
X84744Y-22539D03*
X83744Y-22539D03*
X82744Y-22539D03*
X81744Y-22539D03*
X80744Y-22539D03*
X79744Y-22539D03*
X78744Y-22539D03*
X77744Y-22539D03*
X76744Y-22539D03*
X75744Y-22539D03*
X74744Y-22539D03*
X73744Y-22539D03*
X72744Y-22539D03*
X71744Y-22539D03*
X90744Y-21539D03*
X89744Y-21539D03*
X88744Y-21539D03*
X87744Y-21539D03*
X86744Y-21539D03*
X85744Y-21539D03*
X84744Y-21539D03*
X83744Y-21539D03*
X82744Y-21539D03*
X81744Y-21539D03*
X80744Y-21539D03*
X79744Y-21539D03*
X78744Y-21539D03*
X77744Y-21539D03*
X76744Y-21539D03*
X75744Y-21539D03*
X74744Y-21539D03*
X73744Y-21539D03*
X72744Y-21539D03*
X71744Y-21539D03*
X71744Y-21539D03*
X72744Y-21539D03*
X73744Y-21539D03*
X74744Y-21539D03*
X75744Y-21539D03*
X76744Y-21539D03*
X77744Y-21539D03*
X78744Y-21539D03*
X79744Y-21539D03*
X80744Y-21539D03*
X81744Y-21539D03*
X82744Y-21539D03*
X83744Y-21539D03*
X84744Y-21539D03*
X85744Y-21539D03*
X86744Y-21539D03*
X87744Y-21539D03*
X88744Y-21539D03*
X89744Y-21539D03*
X90744Y-21539D03*
X71744Y-22539D03*
X72744Y-22539D03*
X73744Y-22539D03*
X74744Y-22539D03*
X75744Y-22539D03*
X76744Y-22539D03*
X77744Y-22539D03*
X78744Y-22539D03*
X79744Y-22539D03*
X80744Y-22539D03*
X81744Y-22539D03*
X82744Y-22539D03*
X83744Y-22539D03*
X84744Y-22539D03*
X85744Y-22539D03*
X88744Y-22539D03*
X89744Y-22539D03*
X90744Y-22539D03*
X86744Y-22539D03*
X87744Y-22539D03*
X87744Y-22539D03*
X86744Y-22539D03*
X90744Y-22539D03*
X89744Y-22539D03*
X88744Y-22539D03*
X85744Y-22539D03*
X84744Y-22539D03*
X83744Y-22539D03*
X82744Y-22539D03*
X81744Y-22539D03*
X80744Y-22539D03*
X79744Y-22539D03*
X78744Y-22539D03*
X77744Y-22539D03*
X76744Y-22539D03*
X75744Y-22539D03*
X74744Y-22539D03*
X73744Y-22539D03*
X72744Y-22539D03*
X71744Y-22539D03*
X90744Y-21539D03*
X89744Y-21539D03*
X88744Y-21539D03*
X87744Y-21539D03*
X86744Y-21539D03*
X85744Y-21539D03*
X84744Y-21539D03*
X83744Y-21539D03*
X82744Y-21539D03*
X81744Y-21539D03*
X80744Y-21539D03*
X79744Y-21539D03*
X78744Y-21539D03*
X77744Y-21539D03*
X76744Y-21539D03*
X75744Y-21539D03*
X74744Y-21539D03*
X73744Y-21539D03*
X72744Y-21539D03*
X71744Y-21539D03*
X71744Y-21539D03*
X72744Y-21539D03*
X73744Y-21539D03*
X74744Y-21539D03*
X75744Y-21539D03*
X76744Y-21539D03*
X77744Y-21539D03*
X78744Y-21539D03*
X79744Y-21539D03*
X80744Y-21539D03*
X81744Y-21539D03*
X82744Y-21539D03*
X83744Y-21539D03*
X84744Y-21539D03*
X85744Y-21539D03*
X86744Y-21539D03*
X87744Y-21539D03*
X88744Y-21539D03*
X89744Y-21539D03*
X90744Y-21539D03*
X71744Y-22539D03*
X72744Y-22539D03*
X73744Y-22539D03*
X74744Y-22539D03*
X75744Y-22539D03*
X76744Y-22539D03*
X77744Y-22539D03*
X78744Y-22539D03*
X79744Y-22539D03*
X80744Y-22539D03*
X81744Y-22539D03*
X82744Y-22539D03*
X83744Y-22539D03*
X84744Y-22539D03*
X85744Y-22539D03*
X88744Y-22539D03*
X89744Y-22539D03*
X90744Y-22539D03*
X86744Y-22539D03*
X87744Y-22539D03*
X87744Y-24539D03*
X86744Y-24539D03*
X90744Y-24539D03*
X89744Y-24539D03*
X88744Y-24539D03*
X85744Y-24539D03*
X84744Y-24539D03*
X83744Y-24539D03*
X82744Y-24539D03*
X81744Y-24539D03*
X80744Y-24539D03*
X79744Y-24539D03*
X78744Y-24539D03*
X77744Y-24539D03*
X76744Y-24539D03*
X75744Y-24539D03*
X74744Y-24539D03*
X73744Y-24539D03*
X72744Y-24539D03*
X71744Y-24539D03*
X90744Y-23539D03*
X89744Y-23539D03*
X88744Y-23539D03*
X87744Y-23539D03*
X86744Y-23539D03*
X85744Y-23539D03*
X84744Y-23539D03*
X83744Y-23539D03*
X82744Y-23539D03*
X81744Y-23539D03*
X80744Y-23539D03*
X79744Y-23539D03*
X78744Y-23539D03*
X77744Y-23539D03*
X76744Y-23539D03*
X75744Y-23539D03*
X74744Y-23539D03*
X73744Y-23539D03*
X72744Y-23539D03*
X71744Y-23539D03*
X71744Y-23539D03*
X72744Y-23539D03*
X73744Y-23539D03*
X74744Y-23539D03*
X75744Y-23539D03*
X76744Y-23539D03*
X77744Y-23539D03*
X78744Y-23539D03*
X79744Y-23539D03*
X80744Y-23539D03*
X81744Y-23539D03*
X82744Y-23539D03*
X83744Y-23539D03*
X84744Y-23539D03*
X85744Y-23539D03*
X86744Y-23539D03*
X87744Y-23539D03*
X88744Y-23539D03*
X89744Y-23539D03*
X90744Y-23539D03*
X71744Y-24539D03*
X72744Y-24539D03*
X73744Y-24539D03*
X74744Y-24539D03*
X75744Y-24539D03*
X76744Y-24539D03*
X77744Y-24539D03*
X78744Y-24539D03*
X79744Y-24539D03*
X80744Y-24539D03*
X81744Y-24539D03*
X82744Y-24539D03*
X83744Y-24539D03*
X84744Y-24539D03*
X85744Y-24539D03*
X88744Y-24539D03*
X89744Y-24539D03*
X90744Y-24539D03*
X86744Y-24539D03*
X87744Y-24539D03*
X87744Y-20539D03*
X86744Y-20539D03*
X90744Y-20539D03*
X89744Y-20539D03*
X88744Y-20539D03*
X85744Y-20539D03*
X84744Y-20539D03*
X83744Y-20539D03*
X82744Y-20539D03*
X81744Y-20539D03*
X80744Y-20539D03*
X79744Y-20539D03*
X78744Y-20539D03*
X77744Y-20539D03*
X76744Y-20539D03*
X75744Y-20539D03*
X74744Y-20539D03*
X73744Y-20539D03*
X72744Y-20539D03*
X71744Y-20539D03*
X90744Y-19539D03*
X89744Y-19539D03*
X88744Y-19539D03*
X87744Y-19539D03*
X86744Y-19539D03*
X85744Y-19539D03*
X84744Y-19539D03*
X83744Y-19539D03*
X82744Y-19539D03*
X81744Y-19539D03*
X80744Y-19539D03*
X79744Y-19539D03*
X78744Y-19539D03*
X77744Y-19539D03*
X76744Y-19539D03*
X75744Y-19539D03*
X74744Y-19539D03*
X73744Y-19539D03*
X72744Y-19539D03*
X71744Y-19539D03*
X71744Y-19539D03*
X72744Y-19539D03*
X73744Y-19539D03*
X74744Y-19539D03*
X75744Y-19539D03*
X76744Y-19539D03*
X77744Y-19539D03*
X78744Y-19539D03*
X79744Y-19539D03*
X80744Y-19539D03*
X81744Y-19539D03*
X82744Y-19539D03*
X83744Y-19539D03*
X84744Y-19539D03*
X85744Y-19539D03*
X86744Y-19539D03*
X87744Y-19539D03*
X88744Y-19539D03*
X89744Y-19539D03*
X90744Y-19539D03*
X71744Y-20539D03*
X72744Y-20539D03*
X73744Y-20539D03*
X74744Y-20539D03*
X75744Y-20539D03*
X76744Y-20539D03*
X77744Y-20539D03*
X78744Y-20539D03*
X79744Y-20539D03*
X80744Y-20539D03*
X81744Y-20539D03*
X82744Y-20539D03*
X83744Y-20539D03*
X84744Y-20539D03*
X85744Y-20539D03*
X88744Y-20539D03*
X89744Y-20539D03*
X90744Y-20539D03*
X86744Y-20539D03*
X87744Y-20539D03*
X87744Y-18539D03*
X86744Y-18539D03*
X90744Y-18539D03*
X89744Y-18539D03*
X88744Y-18539D03*
X85744Y-18539D03*
X84744Y-18539D03*
X83744Y-18539D03*
X82744Y-18539D03*
X81744Y-18539D03*
X80744Y-18539D03*
X79744Y-18539D03*
X78744Y-18539D03*
X77744Y-18539D03*
X76744Y-18539D03*
X75744Y-18539D03*
X74744Y-18539D03*
X73744Y-18539D03*
X72744Y-18539D03*
X71744Y-18539D03*
X90744Y-17539D03*
X89744Y-17539D03*
X88744Y-17539D03*
X87744Y-17539D03*
X86744Y-17539D03*
X85744Y-17539D03*
X84744Y-17539D03*
X83744Y-17539D03*
X82744Y-17539D03*
X81744Y-17539D03*
X80744Y-17539D03*
X79744Y-17539D03*
X78744Y-17539D03*
X77744Y-17539D03*
X76744Y-17539D03*
X75744Y-17539D03*
X74744Y-17539D03*
X73744Y-17539D03*
X72744Y-17539D03*
X71744Y-17539D03*
X71744Y-17539D03*
X72744Y-17539D03*
X73744Y-17539D03*
X74744Y-17539D03*
X75744Y-17539D03*
X76744Y-17539D03*
X77744Y-17539D03*
X78744Y-17539D03*
X79744Y-17539D03*
X80744Y-17539D03*
X81744Y-17539D03*
X82744Y-17539D03*
X83744Y-17539D03*
X84744Y-17539D03*
X85744Y-17539D03*
X86744Y-17539D03*
X87744Y-17539D03*
X88744Y-17539D03*
X89744Y-17539D03*
X90744Y-17539D03*
X71744Y-18539D03*
X72744Y-18539D03*
X73744Y-18539D03*
X74744Y-18539D03*
X75744Y-18539D03*
X76744Y-18539D03*
X77744Y-18539D03*
X78744Y-18539D03*
X79744Y-18539D03*
X80744Y-18539D03*
X81744Y-18539D03*
X82744Y-18539D03*
X83744Y-18539D03*
X84744Y-18539D03*
X85744Y-18539D03*
X88744Y-18539D03*
X89744Y-18539D03*
X90744Y-18539D03*
X86744Y-18539D03*
X87744Y-18539D03*
X87744Y-26539D03*
X86744Y-26539D03*
X90744Y-26539D03*
X89744Y-26539D03*
X88744Y-26539D03*
X85744Y-26539D03*
X84744Y-26539D03*
X83744Y-26539D03*
X82744Y-26539D03*
X81744Y-26539D03*
X80744Y-26539D03*
X79744Y-26539D03*
X78744Y-26539D03*
X77744Y-26539D03*
X76744Y-26539D03*
X75744Y-26539D03*
X74744Y-26539D03*
X73744Y-26539D03*
X72744Y-26539D03*
X71744Y-26539D03*
X90744Y-25539D03*
X89744Y-25539D03*
X88744Y-25539D03*
X87744Y-25539D03*
X86744Y-25539D03*
X85744Y-25539D03*
X84744Y-25539D03*
X83744Y-25539D03*
X82744Y-25539D03*
X81744Y-25539D03*
X80744Y-25539D03*
X79744Y-25539D03*
X78744Y-25539D03*
X77744Y-25539D03*
X76744Y-25539D03*
X75744Y-25539D03*
X74744Y-25539D03*
X73744Y-25539D03*
X72744Y-25539D03*
X71744Y-25539D03*
X71744Y-25539D03*
X72744Y-25539D03*
X73744Y-25539D03*
X74744Y-25539D03*
X75744Y-25539D03*
X76744Y-25539D03*
X77744Y-25539D03*
X78744Y-25539D03*
X79744Y-25539D03*
X80744Y-25539D03*
X81744Y-25539D03*
X82744Y-25539D03*
X83744Y-25539D03*
X84744Y-25539D03*
X85744Y-25539D03*
X86744Y-25539D03*
X87744Y-25539D03*
X88744Y-25539D03*
X89744Y-25539D03*
X90744Y-25539D03*
X71744Y-26539D03*
X72744Y-26539D03*
X73744Y-26539D03*
X74744Y-26539D03*
X75744Y-26539D03*
X76744Y-26539D03*
X77744Y-26539D03*
X78744Y-26539D03*
X79744Y-26539D03*
X80744Y-26539D03*
X81744Y-26539D03*
X82744Y-26539D03*
X83744Y-26539D03*
X84744Y-26539D03*
X85744Y-26539D03*
X88744Y-26539D03*
X89744Y-26539D03*
X90744Y-26539D03*
X86744Y-26539D03*
X87744Y-26539D03*
X87744Y-28539D03*
X86744Y-28539D03*
X90744Y-28539D03*
X89744Y-28539D03*
X88744Y-28539D03*
X85744Y-28539D03*
X84744Y-28539D03*
X83744Y-28539D03*
X82744Y-28539D03*
X81744Y-28539D03*
X80744Y-28539D03*
X79744Y-28539D03*
X78744Y-28539D03*
X77744Y-28539D03*
X76744Y-28539D03*
X75744Y-28539D03*
X74744Y-28539D03*
X73744Y-28539D03*
X72744Y-28539D03*
X71744Y-28539D03*
X90744Y-27539D03*
X89744Y-27539D03*
X88744Y-27539D03*
X87744Y-27539D03*
X86744Y-27539D03*
X85744Y-27539D03*
X84744Y-27539D03*
X83744Y-27539D03*
X82744Y-27539D03*
X81744Y-27539D03*
X80744Y-27539D03*
X79744Y-27539D03*
X78744Y-27539D03*
X77744Y-27539D03*
X76744Y-27539D03*
X75744Y-27539D03*
X74744Y-27539D03*
X73744Y-27539D03*
X72744Y-27539D03*
X71744Y-27539D03*
X71744Y-27539D03*
X72744Y-27539D03*
X73744Y-27539D03*
X74744Y-27539D03*
X75744Y-27539D03*
X76744Y-27539D03*
X77744Y-27539D03*
X78744Y-27539D03*
X79744Y-27539D03*
X80744Y-27539D03*
X81744Y-27539D03*
X82744Y-27539D03*
X83744Y-27539D03*
X84744Y-27539D03*
X85744Y-27539D03*
X86744Y-27539D03*
X87744Y-27539D03*
X88744Y-27539D03*
X89744Y-27539D03*
X90744Y-27539D03*
X71744Y-28539D03*
X72744Y-28539D03*
X73744Y-28539D03*
X74744Y-28539D03*
X75744Y-28539D03*
X76744Y-28539D03*
X77744Y-28539D03*
X78744Y-28539D03*
X79744Y-28539D03*
X80744Y-28539D03*
X81744Y-28539D03*
X82744Y-28539D03*
X83744Y-28539D03*
X84744Y-28539D03*
X85744Y-28539D03*
X88744Y-28539D03*
X89744Y-28539D03*
X90744Y-28539D03*
X86744Y-28539D03*
X87744Y-28539D03*
X87744Y-30539D03*
X86744Y-30539D03*
X90744Y-30539D03*
X89744Y-30539D03*
X88744Y-30539D03*
X85744Y-30539D03*
X84744Y-30539D03*
X83744Y-30539D03*
X82744Y-30539D03*
X81744Y-30539D03*
X80744Y-30539D03*
X79744Y-30539D03*
X78744Y-30539D03*
X77744Y-30539D03*
X76744Y-30539D03*
X75744Y-30539D03*
X74744Y-30539D03*
X73744Y-30539D03*
X72744Y-30539D03*
X71744Y-30539D03*
X90744Y-29539D03*
X89744Y-29539D03*
X88744Y-29539D03*
X87744Y-29539D03*
X86744Y-29539D03*
X85744Y-29539D03*
X84744Y-29539D03*
X83744Y-29539D03*
X82744Y-29539D03*
X81744Y-29539D03*
X80744Y-29539D03*
X79744Y-29539D03*
X78744Y-29539D03*
X77744Y-29539D03*
X76744Y-29539D03*
X75744Y-29539D03*
X74744Y-29539D03*
X73744Y-29539D03*
X72744Y-29539D03*
X71744Y-29539D03*
X71744Y-29539D03*
X72744Y-29539D03*
X73744Y-29539D03*
X74744Y-29539D03*
X75744Y-29539D03*
X76744Y-29539D03*
X77744Y-29539D03*
X78744Y-29539D03*
X79744Y-29539D03*
X80744Y-29539D03*
X81744Y-29539D03*
X82744Y-29539D03*
X83744Y-29539D03*
X84744Y-29539D03*
X85744Y-29539D03*
X86744Y-29539D03*
X87744Y-29539D03*
X88744Y-29539D03*
X89744Y-29539D03*
X90744Y-29539D03*
X71744Y-30539D03*
X72744Y-30539D03*
X73744Y-30539D03*
X74744Y-30539D03*
X75744Y-30539D03*
X76744Y-30539D03*
X77744Y-30539D03*
X78744Y-30539D03*
X79744Y-30539D03*
X80744Y-30539D03*
X81744Y-30539D03*
X82744Y-30539D03*
X83744Y-30539D03*
X84744Y-30539D03*
X85744Y-30539D03*
X88744Y-30539D03*
X89744Y-30539D03*
X90744Y-30539D03*
X86744Y-30539D03*
X87744Y-30539D03*
X87744Y-30539D03*
X86744Y-30539D03*
X90744Y-30539D03*
X89744Y-30539D03*
X88744Y-30539D03*
X85744Y-30539D03*
X84744Y-30539D03*
X83744Y-30539D03*
X82744Y-30539D03*
X81744Y-30539D03*
X80744Y-30539D03*
X79744Y-30539D03*
X78744Y-30539D03*
X77744Y-30539D03*
X76744Y-30539D03*
X75744Y-30539D03*
X74744Y-30539D03*
X73744Y-30539D03*
X72744Y-30539D03*
X71744Y-30539D03*
X90744Y-29539D03*
X89744Y-29539D03*
X88744Y-29539D03*
X87744Y-29539D03*
X86744Y-29539D03*
X85744Y-29539D03*
X84744Y-29539D03*
X83744Y-29539D03*
X82744Y-29539D03*
X81744Y-29539D03*
X80744Y-29539D03*
X79744Y-29539D03*
X78744Y-29539D03*
X77744Y-29539D03*
X76744Y-29539D03*
X75744Y-29539D03*
X74744Y-29539D03*
X73744Y-29539D03*
X72744Y-29539D03*
X71744Y-29539D03*
X71744Y-29539D03*
X72744Y-29539D03*
X73744Y-29539D03*
X74744Y-29539D03*
X75744Y-29539D03*
X76744Y-29539D03*
X77744Y-29539D03*
X78744Y-29539D03*
X79744Y-29539D03*
X80744Y-29539D03*
X81744Y-29539D03*
X82744Y-29539D03*
X83744Y-29539D03*
X84744Y-29539D03*
X85744Y-29539D03*
X86744Y-29539D03*
X87744Y-29539D03*
X88744Y-29539D03*
X89744Y-29539D03*
X90744Y-29539D03*
X71744Y-30539D03*
X72744Y-30539D03*
X73744Y-30539D03*
X74744Y-30539D03*
X75744Y-30539D03*
X76744Y-30539D03*
X77744Y-30539D03*
X78744Y-30539D03*
X79744Y-30539D03*
X80744Y-30539D03*
X81744Y-30539D03*
X82744Y-30539D03*
X83744Y-30539D03*
X84744Y-30539D03*
X85744Y-30539D03*
X88744Y-30539D03*
X89744Y-30539D03*
X90744Y-30539D03*
X86744Y-30539D03*
X87744Y-30539D03*
X87744Y-28539D03*
X86744Y-28539D03*
X90744Y-28539D03*
X89744Y-28539D03*
X88744Y-28539D03*
X85744Y-28539D03*
X84744Y-28539D03*
X83744Y-28539D03*
X82744Y-28539D03*
X81744Y-28539D03*
X80744Y-28539D03*
X79744Y-28539D03*
X78744Y-28539D03*
X77744Y-28539D03*
X76744Y-28539D03*
X75744Y-28539D03*
X74744Y-28539D03*
X73744Y-28539D03*
X72744Y-28539D03*
X71744Y-28539D03*
X90744Y-27539D03*
X89744Y-27539D03*
X88744Y-27539D03*
X87744Y-27539D03*
X86744Y-27539D03*
X85744Y-27539D03*
X84744Y-27539D03*
X83744Y-27539D03*
X82744Y-27539D03*
X81744Y-27539D03*
X80744Y-27539D03*
X79744Y-27539D03*
X78744Y-27539D03*
X77744Y-27539D03*
X76744Y-27539D03*
X75744Y-27539D03*
X74744Y-27539D03*
X73744Y-27539D03*
X72744Y-27539D03*
X71744Y-27539D03*
X71744Y-27539D03*
X72744Y-27539D03*
X73744Y-27539D03*
X74744Y-27539D03*
X75744Y-27539D03*
X76744Y-27539D03*
X77744Y-27539D03*
X78744Y-27539D03*
X79744Y-27539D03*
X80744Y-27539D03*
X81744Y-27539D03*
X82744Y-27539D03*
X83744Y-27539D03*
X84744Y-27539D03*
X85744Y-27539D03*
X86744Y-27539D03*
X87744Y-27539D03*
X88744Y-27539D03*
X89744Y-27539D03*
X90744Y-27539D03*
X71744Y-28539D03*
X72744Y-28539D03*
X73744Y-28539D03*
X74744Y-28539D03*
X75744Y-28539D03*
X76744Y-28539D03*
X77744Y-28539D03*
X78744Y-28539D03*
X79744Y-28539D03*
X80744Y-28539D03*
X81744Y-28539D03*
X82744Y-28539D03*
X83744Y-28539D03*
X84744Y-28539D03*
X85744Y-28539D03*
X88744Y-28539D03*
X89744Y-28539D03*
X90744Y-28539D03*
X86744Y-28539D03*
X87744Y-28539D03*
X87744Y-26539D03*
X86744Y-26539D03*
X90744Y-26539D03*
X89744Y-26539D03*
X88744Y-26539D03*
X85744Y-26539D03*
X84744Y-26539D03*
X83744Y-26539D03*
X82744Y-26539D03*
X81744Y-26539D03*
X80744Y-26539D03*
X79744Y-26539D03*
X78744Y-26539D03*
X77744Y-26539D03*
X76744Y-26539D03*
X75744Y-26539D03*
X74744Y-26539D03*
X73744Y-26539D03*
X72744Y-26539D03*
X71744Y-26539D03*
X90744Y-25539D03*
X89744Y-25539D03*
X88744Y-25539D03*
X87744Y-25539D03*
X86744Y-25539D03*
X85744Y-25539D03*
X84744Y-25539D03*
X83744Y-25539D03*
X82744Y-25539D03*
X81744Y-25539D03*
X80744Y-25539D03*
X79744Y-25539D03*
X78744Y-25539D03*
X77744Y-25539D03*
X76744Y-25539D03*
X75744Y-25539D03*
X74744Y-25539D03*
X73744Y-25539D03*
X72744Y-25539D03*
X71744Y-25539D03*
X71744Y-25539D03*
X72744Y-25539D03*
X73744Y-25539D03*
X74744Y-25539D03*
X75744Y-25539D03*
X76744Y-25539D03*
X77744Y-25539D03*
X78744Y-25539D03*
X79744Y-25539D03*
X80744Y-25539D03*
X81744Y-25539D03*
X82744Y-25539D03*
X83744Y-25539D03*
X84744Y-25539D03*
X85744Y-25539D03*
X86744Y-25539D03*
X87744Y-25539D03*
X88744Y-25539D03*
X89744Y-25539D03*
X90744Y-25539D03*
X71744Y-26539D03*
X72744Y-26539D03*
X73744Y-26539D03*
X74744Y-26539D03*
X75744Y-26539D03*
X76744Y-26539D03*
X77744Y-26539D03*
X78744Y-26539D03*
X79744Y-26539D03*
X80744Y-26539D03*
X81744Y-26539D03*
X82744Y-26539D03*
X83744Y-26539D03*
X84744Y-26539D03*
X85744Y-26539D03*
X88744Y-26539D03*
X89744Y-26539D03*
X90744Y-26539D03*
X86744Y-26539D03*
X87744Y-26539D03*
X87744Y-26539D03*
X86744Y-26539D03*
X90744Y-26539D03*
X89744Y-26539D03*
X88744Y-26539D03*
X85744Y-26539D03*
X84744Y-26539D03*
X83744Y-26539D03*
X82744Y-26539D03*
X81744Y-26539D03*
X80744Y-26539D03*
X79744Y-26539D03*
X78744Y-26539D03*
X77744Y-26539D03*
X76744Y-26539D03*
X75744Y-26539D03*
X74744Y-26539D03*
X73744Y-26539D03*
X72744Y-26539D03*
X71744Y-26539D03*
X90744Y-25539D03*
X89744Y-25539D03*
X88744Y-25539D03*
X87744Y-25539D03*
X86744Y-25539D03*
X85744Y-25539D03*
X84744Y-25539D03*
X83744Y-25539D03*
X82744Y-25539D03*
X81744Y-25539D03*
X80744Y-25539D03*
X79744Y-25539D03*
X78744Y-25539D03*
X77744Y-25539D03*
X76744Y-25539D03*
X75744Y-25539D03*
X74744Y-25539D03*
X73744Y-25539D03*
X72744Y-25539D03*
X71744Y-25539D03*
X71744Y-25539D03*
X72744Y-25539D03*
X73744Y-25539D03*
X74744Y-25539D03*
X75744Y-25539D03*
X76744Y-25539D03*
X77744Y-25539D03*
X78744Y-25539D03*
X79744Y-25539D03*
X80744Y-25539D03*
X81744Y-25539D03*
X82744Y-25539D03*
X83744Y-25539D03*
X84744Y-25539D03*
X85744Y-25539D03*
X86744Y-25539D03*
X87744Y-25539D03*
X88744Y-25539D03*
X89744Y-25539D03*
X90744Y-25539D03*
X71744Y-26539D03*
X72744Y-26539D03*
X73744Y-26539D03*
X74744Y-26539D03*
X75744Y-26539D03*
X76744Y-26539D03*
X77744Y-26539D03*
X78744Y-26539D03*
X79744Y-26539D03*
X80744Y-26539D03*
X81744Y-26539D03*
X82744Y-26539D03*
X83744Y-26539D03*
X84744Y-26539D03*
X85744Y-26539D03*
X88744Y-26539D03*
X89744Y-26539D03*
X90744Y-26539D03*
X86744Y-26539D03*
X87744Y-26539D03*
X87744Y-28539D03*
X86744Y-28539D03*
X90744Y-28539D03*
X89744Y-28539D03*
X88744Y-28539D03*
X85744Y-28539D03*
X84744Y-28539D03*
X83744Y-28539D03*
X82744Y-28539D03*
X81744Y-28539D03*
X80744Y-28539D03*
X79744Y-28539D03*
X78744Y-28539D03*
X77744Y-28539D03*
X76744Y-28539D03*
X75744Y-28539D03*
X74744Y-28539D03*
X73744Y-28539D03*
X72744Y-28539D03*
X71744Y-28539D03*
X90744Y-27539D03*
X89744Y-27539D03*
X88744Y-27539D03*
X87744Y-27539D03*
X86744Y-27539D03*
X85744Y-27539D03*
X84744Y-27539D03*
X83744Y-27539D03*
X82744Y-27539D03*
X81744Y-27539D03*
X80744Y-27539D03*
X79744Y-27539D03*
X78744Y-27539D03*
X77744Y-27539D03*
X76744Y-27539D03*
X75744Y-27539D03*
X74744Y-27539D03*
X73744Y-27539D03*
X72744Y-27539D03*
X71744Y-27539D03*
X71744Y-27539D03*
X72744Y-27539D03*
X73744Y-27539D03*
X74744Y-27539D03*
X75744Y-27539D03*
X76744Y-27539D03*
X77744Y-27539D03*
X78744Y-27539D03*
X79744Y-27539D03*
X80744Y-27539D03*
X81744Y-27539D03*
X82744Y-27539D03*
X83744Y-27539D03*
X84744Y-27539D03*
X85744Y-27539D03*
X86744Y-27539D03*
X87744Y-27539D03*
X88744Y-27539D03*
X89744Y-27539D03*
X90744Y-27539D03*
X71744Y-28539D03*
X72744Y-28539D03*
X73744Y-28539D03*
X74744Y-28539D03*
X75744Y-28539D03*
X76744Y-28539D03*
X77744Y-28539D03*
X78744Y-28539D03*
X79744Y-28539D03*
X80744Y-28539D03*
X81744Y-28539D03*
X82744Y-28539D03*
X83744Y-28539D03*
X84744Y-28539D03*
X85744Y-28539D03*
X88744Y-28539D03*
X89744Y-28539D03*
X90744Y-28539D03*
X86744Y-28539D03*
X87744Y-28539D03*
X87744Y-30539D03*
X86744Y-30539D03*
X90744Y-30539D03*
X89744Y-30539D03*
X88744Y-30539D03*
X85744Y-30539D03*
X84744Y-30539D03*
X83744Y-30539D03*
X82744Y-30539D03*
X81744Y-30539D03*
X80744Y-30539D03*
X79744Y-30539D03*
X78744Y-30539D03*
X77744Y-30539D03*
X76744Y-30539D03*
X75744Y-30539D03*
X74744Y-30539D03*
X73744Y-30539D03*
X72744Y-30539D03*
X71744Y-30539D03*
X90744Y-29539D03*
X89744Y-29539D03*
X88744Y-29539D03*
X87744Y-29539D03*
X86744Y-29539D03*
X85744Y-29539D03*
X84744Y-29539D03*
X83744Y-29539D03*
X82744Y-29539D03*
X81744Y-29539D03*
X80744Y-29539D03*
X79744Y-29539D03*
X78744Y-29539D03*
X77744Y-29539D03*
X76744Y-29539D03*
X75744Y-29539D03*
X74744Y-29539D03*
X73744Y-29539D03*
X72744Y-29539D03*
X71744Y-29539D03*
X71744Y-29539D03*
X72744Y-29539D03*
X73744Y-29539D03*
X74744Y-29539D03*
X75744Y-29539D03*
X76744Y-29539D03*
X77744Y-29539D03*
X78744Y-29539D03*
X79744Y-29539D03*
X80744Y-29539D03*
X81744Y-29539D03*
X82744Y-29539D03*
X83744Y-29539D03*
X84744Y-29539D03*
X85744Y-29539D03*
X86744Y-29539D03*
X87744Y-29539D03*
X88744Y-29539D03*
X89744Y-29539D03*
X90744Y-29539D03*
X71744Y-30539D03*
X72744Y-30539D03*
X73744Y-30539D03*
X74744Y-30539D03*
X75744Y-30539D03*
X76744Y-30539D03*
X77744Y-30539D03*
X78744Y-30539D03*
X79744Y-30539D03*
X80744Y-30539D03*
X81744Y-30539D03*
X82744Y-30539D03*
X83744Y-30539D03*
X84744Y-30539D03*
X85744Y-30539D03*
X88744Y-30539D03*
X89744Y-30539D03*
X90744Y-30539D03*
X86744Y-30539D03*
X87744Y-30539D03*
X87744Y-30539D03*
X86744Y-30539D03*
X90744Y-30539D03*
X89744Y-30539D03*
X88744Y-30539D03*
X85744Y-30539D03*
X84744Y-30539D03*
X83744Y-30539D03*
X82744Y-30539D03*
X81744Y-30539D03*
X80744Y-30539D03*
X79744Y-30539D03*
X78744Y-30539D03*
X77744Y-30539D03*
X76744Y-30539D03*
X75744Y-30539D03*
X74744Y-30539D03*
X73744Y-30539D03*
X72744Y-30539D03*
X71744Y-30539D03*
X90744Y-29539D03*
X89744Y-29539D03*
X88744Y-29539D03*
X87744Y-29539D03*
X86744Y-29539D03*
X85744Y-29539D03*
X84744Y-29539D03*
X83744Y-29539D03*
X82744Y-29539D03*
X81744Y-29539D03*
X80744Y-29539D03*
X79744Y-29539D03*
X78744Y-29539D03*
X77744Y-29539D03*
X76744Y-29539D03*
X75744Y-29539D03*
X74744Y-29539D03*
X73744Y-29539D03*
X72744Y-29539D03*
X71744Y-29539D03*
X71744Y-29539D03*
X72744Y-29539D03*
X73744Y-29539D03*
X74744Y-29539D03*
X75744Y-29539D03*
X76744Y-29539D03*
X77744Y-29539D03*
X78744Y-29539D03*
X79744Y-29539D03*
X80744Y-29539D03*
X81744Y-29539D03*
X82744Y-29539D03*
X83744Y-29539D03*
X84744Y-29539D03*
X85744Y-29539D03*
X86744Y-29539D03*
X87744Y-29539D03*
X88744Y-29539D03*
X89744Y-29539D03*
X90744Y-29539D03*
X71744Y-30539D03*
X72744Y-30539D03*
X73744Y-30539D03*
X74744Y-30539D03*
X75744Y-30539D03*
X76744Y-30539D03*
X77744Y-30539D03*
X78744Y-30539D03*
X79744Y-30539D03*
X80744Y-30539D03*
X81744Y-30539D03*
X82744Y-30539D03*
X83744Y-30539D03*
X84744Y-30539D03*
X85744Y-30539D03*
X88744Y-30539D03*
X89744Y-30539D03*
X90744Y-30539D03*
X86744Y-30539D03*
X87744Y-30539D03*
X87744Y-28539D03*
X86744Y-28539D03*
X90744Y-28539D03*
X89744Y-28539D03*
X88744Y-28539D03*
X85744Y-28539D03*
X84744Y-28539D03*
X83744Y-28539D03*
X82744Y-28539D03*
X81744Y-28539D03*
X80744Y-28539D03*
X79744Y-28539D03*
X78744Y-28539D03*
X77744Y-28539D03*
X76744Y-28539D03*
X75744Y-28539D03*
X74744Y-28539D03*
X73744Y-28539D03*
X72744Y-28539D03*
X71744Y-28539D03*
X90744Y-27539D03*
X89744Y-27539D03*
X88744Y-27539D03*
X87744Y-27539D03*
X86744Y-27539D03*
X85744Y-27539D03*
X84744Y-27539D03*
X83744Y-27539D03*
X82744Y-27539D03*
X81744Y-27539D03*
X80744Y-27539D03*
X79744Y-27539D03*
X78744Y-27539D03*
X77744Y-27539D03*
X76744Y-27539D03*
X75744Y-27539D03*
X74744Y-27539D03*
X73744Y-27539D03*
X72744Y-27539D03*
X71744Y-27539D03*
X71744Y-27539D03*
X72744Y-27539D03*
X73744Y-27539D03*
X74744Y-27539D03*
X75744Y-27539D03*
X76744Y-27539D03*
X77744Y-27539D03*
X78744Y-27539D03*
X79744Y-27539D03*
X80744Y-27539D03*
X81744Y-27539D03*
X82744Y-27539D03*
X83744Y-27539D03*
X84744Y-27539D03*
X85744Y-27539D03*
X86744Y-27539D03*
X87744Y-27539D03*
X88744Y-27539D03*
X89744Y-27539D03*
X90744Y-27539D03*
X71744Y-28539D03*
X72744Y-28539D03*
X73744Y-28539D03*
X74744Y-28539D03*
X75744Y-28539D03*
X76744Y-28539D03*
X77744Y-28539D03*
X78744Y-28539D03*
X79744Y-28539D03*
X80744Y-28539D03*
X81744Y-28539D03*
X82744Y-28539D03*
X83744Y-28539D03*
X84744Y-28539D03*
X85744Y-28539D03*
X88744Y-28539D03*
X89744Y-28539D03*
X90744Y-28539D03*
X86744Y-28539D03*
X87744Y-28539D03*
X87744Y-26539D03*
X86744Y-26539D03*
X90744Y-26539D03*
X89744Y-26539D03*
X88744Y-26539D03*
X85744Y-26539D03*
X84744Y-26539D03*
X83744Y-26539D03*
X82744Y-26539D03*
X81744Y-26539D03*
X80744Y-26539D03*
X79744Y-26539D03*
X78744Y-26539D03*
X77744Y-26539D03*
X76744Y-26539D03*
X75744Y-26539D03*
X74744Y-26539D03*
X73744Y-26539D03*
X72744Y-26539D03*
X71744Y-26539D03*
X90744Y-25539D03*
X89744Y-25539D03*
X88744Y-25539D03*
X87744Y-25539D03*
X86744Y-25539D03*
X85744Y-25539D03*
X84744Y-25539D03*
X83744Y-25539D03*
X82744Y-25539D03*
X81744Y-25539D03*
X80744Y-25539D03*
X79744Y-25539D03*
X78744Y-25539D03*
X77744Y-25539D03*
X76744Y-25539D03*
X75744Y-25539D03*
X74744Y-25539D03*
X73744Y-25539D03*
X72744Y-25539D03*
X71744Y-25539D03*
X71744Y-25539D03*
X72744Y-25539D03*
X73744Y-25539D03*
X74744Y-25539D03*
X75744Y-25539D03*
X76744Y-25539D03*
X77744Y-25539D03*
X78744Y-25539D03*
X79744Y-25539D03*
X80744Y-25539D03*
X81744Y-25539D03*
X82744Y-25539D03*
X83744Y-25539D03*
X84744Y-25539D03*
X85744Y-25539D03*
X86744Y-25539D03*
X87744Y-25539D03*
X88744Y-25539D03*
X89744Y-25539D03*
X90744Y-25539D03*
X71744Y-26539D03*
X72744Y-26539D03*
X73744Y-26539D03*
X74744Y-26539D03*
X75744Y-26539D03*
X76744Y-26539D03*
X77744Y-26539D03*
X78744Y-26539D03*
X79744Y-26539D03*
X80744Y-26539D03*
X81744Y-26539D03*
X82744Y-26539D03*
X83744Y-26539D03*
X84744Y-26539D03*
X85744Y-26539D03*
X88744Y-26539D03*
X89744Y-26539D03*
X90744Y-26539D03*
X86744Y-26539D03*
X87744Y-26539D03*
X87744Y-18539D03*
X86744Y-18539D03*
X90744Y-18539D03*
X89744Y-18539D03*
X88744Y-18539D03*
X85744Y-18539D03*
X84744Y-18539D03*
X83744Y-18539D03*
X82744Y-18539D03*
X81744Y-18539D03*
X80744Y-18539D03*
X79744Y-18539D03*
X78744Y-18539D03*
X77744Y-18539D03*
X76744Y-18539D03*
X75744Y-18539D03*
X74744Y-18539D03*
X73744Y-18539D03*
X72744Y-18539D03*
X71744Y-18539D03*
X90744Y-17539D03*
X89744Y-17539D03*
X88744Y-17539D03*
X87744Y-17539D03*
X86744Y-17539D03*
X85744Y-17539D03*
X84744Y-17539D03*
X83744Y-17539D03*
X82744Y-17539D03*
X81744Y-17539D03*
X80744Y-17539D03*
X79744Y-17539D03*
X78744Y-17539D03*
X77744Y-17539D03*
X76744Y-17539D03*
X75744Y-17539D03*
X74744Y-17539D03*
X73744Y-17539D03*
X72744Y-17539D03*
X71744Y-17539D03*
X71744Y-17539D03*
X72744Y-17539D03*
X73744Y-17539D03*
X74744Y-17539D03*
X75744Y-17539D03*
X76744Y-17539D03*
X77744Y-17539D03*
X78744Y-17539D03*
X79744Y-17539D03*
X80744Y-17539D03*
X81744Y-17539D03*
X82744Y-17539D03*
X83744Y-17539D03*
X84744Y-17539D03*
X85744Y-17539D03*
X86744Y-17539D03*
X87744Y-17539D03*
X88744Y-17539D03*
X89744Y-17539D03*
X90744Y-17539D03*
X71744Y-18539D03*
X72744Y-18539D03*
X73744Y-18539D03*
X74744Y-18539D03*
X75744Y-18539D03*
X76744Y-18539D03*
X77744Y-18539D03*
X78744Y-18539D03*
X79744Y-18539D03*
X80744Y-18539D03*
X81744Y-18539D03*
X82744Y-18539D03*
X83744Y-18539D03*
X84744Y-18539D03*
X85744Y-18539D03*
X88744Y-18539D03*
X89744Y-18539D03*
X90744Y-18539D03*
X86744Y-18539D03*
X87744Y-18539D03*
X87744Y-20539D03*
X86744Y-20539D03*
X90744Y-20539D03*
X89744Y-20539D03*
X88744Y-20539D03*
X85744Y-20539D03*
X84744Y-20539D03*
X83744Y-20539D03*
X82744Y-20539D03*
X81744Y-20539D03*
X80744Y-20539D03*
X79744Y-20539D03*
X78744Y-20539D03*
X77744Y-20539D03*
X76744Y-20539D03*
X75744Y-20539D03*
X74744Y-20539D03*
X73744Y-20539D03*
X72744Y-20539D03*
X71744Y-20539D03*
X90744Y-19539D03*
X89744Y-19539D03*
X88744Y-19539D03*
X87744Y-19539D03*
X86744Y-19539D03*
X85744Y-19539D03*
X84744Y-19539D03*
X83744Y-19539D03*
X82744Y-19539D03*
X81744Y-19539D03*
X80744Y-19539D03*
X79744Y-19539D03*
X78744Y-19539D03*
X77744Y-19539D03*
X76744Y-19539D03*
X75744Y-19539D03*
X74744Y-19539D03*
X73744Y-19539D03*
X72744Y-19539D03*
X71744Y-19539D03*
X71744Y-19539D03*
X72744Y-19539D03*
X73744Y-19539D03*
X74744Y-19539D03*
X75744Y-19539D03*
X76744Y-19539D03*
X77744Y-19539D03*
X78744Y-19539D03*
X79744Y-19539D03*
X80744Y-19539D03*
X81744Y-19539D03*
X82744Y-19539D03*
X83744Y-19539D03*
X84744Y-19539D03*
X85744Y-19539D03*
X86744Y-19539D03*
X87744Y-19539D03*
X88744Y-19539D03*
X89744Y-19539D03*
X90744Y-19539D03*
X71744Y-20539D03*
X72744Y-20539D03*
X73744Y-20539D03*
X74744Y-20539D03*
X75744Y-20539D03*
X76744Y-20539D03*
X77744Y-20539D03*
X78744Y-20539D03*
X79744Y-20539D03*
X80744Y-20539D03*
X81744Y-20539D03*
X82744Y-20539D03*
X83744Y-20539D03*
X84744Y-20539D03*
X85744Y-20539D03*
X88744Y-20539D03*
X89744Y-20539D03*
X90744Y-20539D03*
X86744Y-20539D03*
X87744Y-20539D03*
X87744Y-24539D03*
X86744Y-24539D03*
X90744Y-24539D03*
X89744Y-24539D03*
X88744Y-24539D03*
X85744Y-24539D03*
X84744Y-24539D03*
X83744Y-24539D03*
X82744Y-24539D03*
X81744Y-24539D03*
X80744Y-24539D03*
X79744Y-24539D03*
X78744Y-24539D03*
X77744Y-24539D03*
X76744Y-24539D03*
X75744Y-24539D03*
X74744Y-24539D03*
X73744Y-24539D03*
X72744Y-24539D03*
X71744Y-24539D03*
X90744Y-23539D03*
X89744Y-23539D03*
X88744Y-23539D03*
X87744Y-23539D03*
X86744Y-23539D03*
X85744Y-23539D03*
X84744Y-23539D03*
X83744Y-23539D03*
X82744Y-23539D03*
X81744Y-23539D03*
X80744Y-23539D03*
X79744Y-23539D03*
X78744Y-23539D03*
X77744Y-23539D03*
X76744Y-23539D03*
X75744Y-23539D03*
X74744Y-23539D03*
X73744Y-23539D03*
X72744Y-23539D03*
X71744Y-23539D03*
X71744Y-23539D03*
X72744Y-23539D03*
X73744Y-23539D03*
X74744Y-23539D03*
X75744Y-23539D03*
X76744Y-23539D03*
X77744Y-23539D03*
X78744Y-23539D03*
X79744Y-23539D03*
X80744Y-23539D03*
X81744Y-23539D03*
X82744Y-23539D03*
X83744Y-23539D03*
X84744Y-23539D03*
X85744Y-23539D03*
X86744Y-23539D03*
X87744Y-23539D03*
X88744Y-23539D03*
X89744Y-23539D03*
X90744Y-23539D03*
X71744Y-24539D03*
X72744Y-24539D03*
X73744Y-24539D03*
X74744Y-24539D03*
X75744Y-24539D03*
X76744Y-24539D03*
X77744Y-24539D03*
X78744Y-24539D03*
X79744Y-24539D03*
X80744Y-24539D03*
X81744Y-24539D03*
X82744Y-24539D03*
X83744Y-24539D03*
X84744Y-24539D03*
X85744Y-24539D03*
X88744Y-24539D03*
X89744Y-24539D03*
X90744Y-24539D03*
X86744Y-24539D03*
X87744Y-24539D03*
X87744Y-22539D03*
X86744Y-22539D03*
X90744Y-22539D03*
X89744Y-22539D03*
X88744Y-22539D03*
X85744Y-22539D03*
X84744Y-22539D03*
X83744Y-22539D03*
X82744Y-22539D03*
X81744Y-22539D03*
X80744Y-22539D03*
X79744Y-22539D03*
X78744Y-22539D03*
X77744Y-22539D03*
X76744Y-22539D03*
X75744Y-22539D03*
X74744Y-22539D03*
X73744Y-22539D03*
X72744Y-22539D03*
X71744Y-22539D03*
X90744Y-21539D03*
X89744Y-21539D03*
X88744Y-21539D03*
X87744Y-21539D03*
X86744Y-21539D03*
X85744Y-21539D03*
X84744Y-21539D03*
X83744Y-21539D03*
X82744Y-21539D03*
X81744Y-21539D03*
X80744Y-21539D03*
X79744Y-21539D03*
X78744Y-21539D03*
X77744Y-21539D03*
X76744Y-21539D03*
X75744Y-21539D03*
X74744Y-21539D03*
X73744Y-21539D03*
X72744Y-21539D03*
X71744Y-21539D03*
X71744Y-21539D03*
X72744Y-21539D03*
X73744Y-21539D03*
X74744Y-21539D03*
X75744Y-21539D03*
X76744Y-21539D03*
X77744Y-21539D03*
X78744Y-21539D03*
X79744Y-21539D03*
X80744Y-21539D03*
X81744Y-21539D03*
X82744Y-21539D03*
X83744Y-21539D03*
X84744Y-21539D03*
X85744Y-21539D03*
X86744Y-21539D03*
X87744Y-21539D03*
X88744Y-21539D03*
X89744Y-21539D03*
X90744Y-21539D03*
X71744Y-22539D03*
X72744Y-22539D03*
X73744Y-22539D03*
X74744Y-22539D03*
X75744Y-22539D03*
X76744Y-22539D03*
X77744Y-22539D03*
X78744Y-22539D03*
X79744Y-22539D03*
X80744Y-22539D03*
X81744Y-22539D03*
X82744Y-22539D03*
X83744Y-22539D03*
X84744Y-22539D03*
X85744Y-22539D03*
X88744Y-22539D03*
X89744Y-22539D03*
X90744Y-22539D03*
X86744Y-22539D03*
X87744Y-22539D03*
X87744Y-22539D03*
X86744Y-22539D03*
X90744Y-22539D03*
X89744Y-22539D03*
X88744Y-22539D03*
X85744Y-22539D03*
X84744Y-22539D03*
X83744Y-22539D03*
X82744Y-22539D03*
X81744Y-22539D03*
X80744Y-22539D03*
X79744Y-22539D03*
X78744Y-22539D03*
X77744Y-22539D03*
X76744Y-22539D03*
X75744Y-22539D03*
X74744Y-22539D03*
X73744Y-22539D03*
X72744Y-22539D03*
X71744Y-22539D03*
X90744Y-21539D03*
X89744Y-21539D03*
X88744Y-21539D03*
X87744Y-21539D03*
X86744Y-21539D03*
X85744Y-21539D03*
X84744Y-21539D03*
X83744Y-21539D03*
X82744Y-21539D03*
X81744Y-21539D03*
X80744Y-21539D03*
X79744Y-21539D03*
X78744Y-21539D03*
X77744Y-21539D03*
X76744Y-21539D03*
X75744Y-21539D03*
X74744Y-21539D03*
X73744Y-21539D03*
X72744Y-21539D03*
X71744Y-21539D03*
X71744Y-21539D03*
X72744Y-21539D03*
X73744Y-21539D03*
X74744Y-21539D03*
X75744Y-21539D03*
X76744Y-21539D03*
X77744Y-21539D03*
X78744Y-21539D03*
X79744Y-21539D03*
X80744Y-21539D03*
X81744Y-21539D03*
X82744Y-21539D03*
X83744Y-21539D03*
X84744Y-21539D03*
X85744Y-21539D03*
X86744Y-21539D03*
X87744Y-21539D03*
X88744Y-21539D03*
X89744Y-21539D03*
X90744Y-21539D03*
X71744Y-22539D03*
X72744Y-22539D03*
X73744Y-22539D03*
X74744Y-22539D03*
X75744Y-22539D03*
X76744Y-22539D03*
X77744Y-22539D03*
X78744Y-22539D03*
X79744Y-22539D03*
X80744Y-22539D03*
X81744Y-22539D03*
X82744Y-22539D03*
X83744Y-22539D03*
X84744Y-22539D03*
X85744Y-22539D03*
X88744Y-22539D03*
X89744Y-22539D03*
X90744Y-22539D03*
X86744Y-22539D03*
X87744Y-22539D03*
X87744Y-24539D03*
X86744Y-24539D03*
X90744Y-24539D03*
X89744Y-24539D03*
X88744Y-24539D03*
X85744Y-24539D03*
X84744Y-24539D03*
X83744Y-24539D03*
X82744Y-24539D03*
X81744Y-24539D03*
X80744Y-24539D03*
X79744Y-24539D03*
X78744Y-24539D03*
X77744Y-24539D03*
X76744Y-24539D03*
X75744Y-24539D03*
X74744Y-24539D03*
X73744Y-24539D03*
X72744Y-24539D03*
X71744Y-24539D03*
X90744Y-23539D03*
X89744Y-23539D03*
X88744Y-23539D03*
X87744Y-23539D03*
X86744Y-23539D03*
X85744Y-23539D03*
X84744Y-23539D03*
X83744Y-23539D03*
X82744Y-23539D03*
X81744Y-23539D03*
X80744Y-23539D03*
X79744Y-23539D03*
X78744Y-23539D03*
X77744Y-23539D03*
X76744Y-23539D03*
X75744Y-23539D03*
X74744Y-23539D03*
X73744Y-23539D03*
X72744Y-23539D03*
X71744Y-23539D03*
X71744Y-23539D03*
X72744Y-23539D03*
X73744Y-23539D03*
X74744Y-23539D03*
X75744Y-23539D03*
X76744Y-23539D03*
X77744Y-23539D03*
X78744Y-23539D03*
X79744Y-23539D03*
X80744Y-23539D03*
X81744Y-23539D03*
X82744Y-23539D03*
X83744Y-23539D03*
X84744Y-23539D03*
X85744Y-23539D03*
X86744Y-23539D03*
X87744Y-23539D03*
X88744Y-23539D03*
X89744Y-23539D03*
X90744Y-23539D03*
X71744Y-24539D03*
X72744Y-24539D03*
X73744Y-24539D03*
X74744Y-24539D03*
X75744Y-24539D03*
X76744Y-24539D03*
X77744Y-24539D03*
X78744Y-24539D03*
X79744Y-24539D03*
X80744Y-24539D03*
X81744Y-24539D03*
X82744Y-24539D03*
X83744Y-24539D03*
X84744Y-24539D03*
X85744Y-24539D03*
X88744Y-24539D03*
X89744Y-24539D03*
X90744Y-24539D03*
X86744Y-24539D03*
X87744Y-24539D03*
X87744Y-20539D03*
X86744Y-20539D03*
X90744Y-20539D03*
X89744Y-20539D03*
X88744Y-20539D03*
X85744Y-20539D03*
X84744Y-20539D03*
X83744Y-20539D03*
X82744Y-20539D03*
X81744Y-20539D03*
X80744Y-20539D03*
X79744Y-20539D03*
X78744Y-20539D03*
X77744Y-20539D03*
X76744Y-20539D03*
X75744Y-20539D03*
X74744Y-20539D03*
X73744Y-20539D03*
X72744Y-20539D03*
X71744Y-20539D03*
X90744Y-19539D03*
X89744Y-19539D03*
X88744Y-19539D03*
X87744Y-19539D03*
X86744Y-19539D03*
X85744Y-19539D03*
X84744Y-19539D03*
X83744Y-19539D03*
X82744Y-19539D03*
X81744Y-19539D03*
X80744Y-19539D03*
X79744Y-19539D03*
X78744Y-19539D03*
X77744Y-19539D03*
X76744Y-19539D03*
X75744Y-19539D03*
X74744Y-19539D03*
X73744Y-19539D03*
X72744Y-19539D03*
X71744Y-19539D03*
X71744Y-19539D03*
X72744Y-19539D03*
X73744Y-19539D03*
X74744Y-19539D03*
X75744Y-19539D03*
X76744Y-19539D03*
X77744Y-19539D03*
X78744Y-19539D03*
X79744Y-19539D03*
X80744Y-19539D03*
X81744Y-19539D03*
X82744Y-19539D03*
X83744Y-19539D03*
X84744Y-19539D03*
X85744Y-19539D03*
X86744Y-19539D03*
X87744Y-19539D03*
X88744Y-19539D03*
X89744Y-19539D03*
X90744Y-19539D03*
X71744Y-20539D03*
X72744Y-20539D03*
X73744Y-20539D03*
X74744Y-20539D03*
X75744Y-20539D03*
X76744Y-20539D03*
X77744Y-20539D03*
X78744Y-20539D03*
X79744Y-20539D03*
X80744Y-20539D03*
X81744Y-20539D03*
X82744Y-20539D03*
X83744Y-20539D03*
X84744Y-20539D03*
X85744Y-20539D03*
X88744Y-20539D03*
X89744Y-20539D03*
X90744Y-20539D03*
X86744Y-20539D03*
X87744Y-20539D03*
X87744Y-18539D03*
X86744Y-18539D03*
X90744Y-18539D03*
X89744Y-18539D03*
X88744Y-18539D03*
X85744Y-18539D03*
X84744Y-18539D03*
X83744Y-18539D03*
X82744Y-18539D03*
X81744Y-18539D03*
X80744Y-18539D03*
X79744Y-18539D03*
X78744Y-18539D03*
X77744Y-18539D03*
X76744Y-18539D03*
X75744Y-18539D03*
X74744Y-18539D03*
X73744Y-18539D03*
X72744Y-18539D03*
X71744Y-18539D03*
X90744Y-17539D03*
X89744Y-17539D03*
X88744Y-17539D03*
X87744Y-17539D03*
X86744Y-17539D03*
X85744Y-17539D03*
X84744Y-17539D03*
X83744Y-17539D03*
X82744Y-17539D03*
X81744Y-17539D03*
X80744Y-17539D03*
X79744Y-17539D03*
X78744Y-17539D03*
X77744Y-17539D03*
X76744Y-17539D03*
X75744Y-17539D03*
X74744Y-17539D03*
X73744Y-17539D03*
X72744Y-17539D03*
X71744Y-17539D03*
X71744Y-17539D03*
X72744Y-17539D03*
X73744Y-17539D03*
X74744Y-17539D03*
X75744Y-17539D03*
X76744Y-17539D03*
X77744Y-17539D03*
X78744Y-17539D03*
X79744Y-17539D03*
X80744Y-17539D03*
X81744Y-17539D03*
X82744Y-17539D03*
X83744Y-17539D03*
X84744Y-17539D03*
X85744Y-17539D03*
X86744Y-17539D03*
X87744Y-17539D03*
X88744Y-17539D03*
X89744Y-17539D03*
X90744Y-17539D03*
X71744Y-18539D03*
X72744Y-18539D03*
X73744Y-18539D03*
X74744Y-18539D03*
X75744Y-18539D03*
X76744Y-18539D03*
X77744Y-18539D03*
X78744Y-18539D03*
X79744Y-18539D03*
X80744Y-18539D03*
X81744Y-18539D03*
X82744Y-18539D03*
X83744Y-18539D03*
X84744Y-18539D03*
X85744Y-18539D03*
X88744Y-18539D03*
X89744Y-18539D03*
X90744Y-18539D03*
X86744Y-18539D03*
X87744Y-18539D03*
M02*
