M48
;DRILL file {Pcbnew (2013-jul-07)-stable} date Sat 01 Nov 2014 03:24:34 PM PDT
;FORMAT={-:-/ absolute / inch / decimal}
FMAT,2
INCH,TZ
T1C0.010
T2C0.012
T3C0.032
T4C0.040
%
G90
G05
M72
T1
X6.8346Y-4.437
X6.84Y-3.96
X6.88Y-3.68
X6.9429Y-4.1169
X6.96Y-3.4
X7.0157Y-3.4846
X7.0787Y-4.6772
X7.1299Y-3.6339
X7.1457Y-4.5748
X7.2Y-3.39
X7.2087Y-4.3504
X7.2126Y-5.0827
X7.2165Y-4.9921
X7.248Y-4.148
X7.3492Y-4.7039
X7.3984Y-4.1476
X7.4055Y-4.7165
X7.4134Y-4.6024
X7.4173Y-4.5709
X7.4688Y-4.2396
X7.6225Y-4.1225
X7.6239Y-4.6917
X7.647Y-4.04
X7.7184Y-3.8939
X7.7364Y-4.7184
X7.748Y-4.6457
X7.7559Y-4.6063
X7.766Y-4.388
X7.7932Y-5.242
X7.836Y-5.1423
X7.8705Y-4.3524
X7.88Y-4.0304
X7.9394Y-4.4666
X7.9587Y-4.0311
X7.9785Y-5.2007
X7.9791Y-4.6185
X7.9911Y-3.8718
X8.001Y-4.1571
X8.0042Y-5.2529
X8.0109Y-4.0604
X8.0395Y-4.6249
X8.0616Y-4.9677
X8.0616Y-5.166
X8.0675Y-4.18
X8.1032Y-3.85
X8.1147Y-5.0409
X8.1699Y-5.2761
X8.1765Y-4.025
X8.2034Y-3.8204
X8.271Y-5.0495
X8.3588Y-5.1309
X8.3624Y-4.7781
X8.3666Y-4.6354
X8.4291Y-4.9606
X8.4662Y-4.6258
X8.4685Y-4.9134
X8.4724Y-4.9567
X8.4726Y-5.2142
X8.4794Y-4.0775
X8.4803Y-4.7362
X8.4816Y-4.323
X8.4882Y-4.247
X8.4897Y-4.677
X8.491Y-4.282
X8.492Y-4.395
X8.4954Y-4.8498
X8.515Y-3.99
X8.6267Y-4.3775
X8.6286Y-4.2348
X8.6378Y-5.1858
X8.65Y-4.4476
X8.6598Y-4.4791
X8.6769Y-5.2461
X8.678Y-4.5539
X8.7181Y-4.55
X8.7982Y-4.24
X8.8705Y-4.5138
X8.8937Y-4.1339
X9.015Y-5.227
X9.0531Y-4.5268
X9.0945Y-3.9331
T2
X6.966Y-4.3696
X6.9675Y-4.458
X7.2Y-3.52
X7.238Y-5.1933
X7.284Y-3.417
X7.286Y-3.776
X7.3095Y-3.9633
X7.4448Y-4.1126
X7.4714Y-3.5501
X7.4753Y-3.83
X7.5105Y-4.1832
X7.6604Y-3.6437
X7.7144Y-3.5937
X7.721Y-5.196
X7.7316Y-4.3242
X7.7316Y-4.953
X7.7616Y-4.1265
X7.77Y-4.575
X7.774Y-4.202
X7.7806Y-4.3138
X7.7814Y-4.3554
X7.8068Y-4.0302
X7.8329Y-4.7865
X7.8342Y-4.1996
X7.8384Y-5.0106
X7.842Y-4.9196
X7.8701Y-4.7937
X7.8728Y-4.1558
X7.907Y-4.574
X7.9115Y-4.3855
X7.925Y-4.511
X7.9286Y-4.7406
X7.967Y-4.367
X8.0241Y-4.7761
X8.054Y-4.027
X8.086Y-4.767
X8.0964Y-4.0496
X8.127Y-4.179
X8.1297Y-4.7871
X8.1835Y-4.7305
X8.211Y-4.161
X8.2233Y-4.7822
X8.2238Y-4.0203
X8.3285Y-4.176
X8.3316Y-4.3384
X8.338Y-4.233
X8.3403Y-4.4493
X8.343Y-4.483
X8.351Y-4.2845
X8.352Y-4.554
X8.4069Y-3.896
X8.447Y-4.0218
X8.492Y-4.5575
X8.494Y-4.445
X8.5806Y-3.8511
X8.639Y-4.914
T3
X9.1588Y-3.944
X9.1588Y-4.204
X9.16Y-3.47
X9.16Y-3.73
X9.16Y-4.445
X9.16Y-4.705
X9.16Y-4.92
X9.16Y-5.18
X9.3388Y-3.944
X9.3388Y-4.204
X9.34Y-3.47
X9.34Y-3.73
X9.34Y-4.445
X9.34Y-4.705
X9.34Y-4.92
X9.34Y-5.18
T4
X6.904Y-4.756
X6.904Y-4.856
X6.904Y-4.956
X6.904Y-5.056
X6.904Y-5.156
X6.904Y-5.256
X6.904Y-5.356
X6.9094Y-3.198
X6.9094Y-3.298
X6.9217Y-1.7543
X6.9217Y-1.7543
X6.9217Y-1.7543
X6.9217Y-1.8543
X6.9217Y-1.8543
X6.9217Y-1.8543
X6.9217Y-1.9543
X6.9217Y-1.9543
X6.9217Y-1.9543
X6.9217Y-2.0543
X6.9217Y-2.0543
X6.9217Y-2.0543
X6.9217Y-2.148
X6.9217Y-2.148
X6.9217Y-2.148
X6.9217Y-2.148
X6.9217Y-2.248
X6.9217Y-2.248
X6.9217Y-2.248
X6.9217Y-2.248
X6.9217Y-2.348
X6.9217Y-2.348
X6.9217Y-2.348
X6.9217Y-2.348
X6.9217Y-2.448
X6.9217Y-2.448
X6.9217Y-2.448
X6.9217Y-2.448
X6.9217Y-2.548
X6.9217Y-2.648
X6.9217Y-2.748
X6.9217Y-2.848
X6.9217Y-2.948
X6.9217Y-3.048
X7.004Y-4.756
X7.004Y-4.856
X7.004Y-4.956
X7.004Y-5.056
X7.004Y-5.156
X7.004Y-5.256
X7.004Y-5.356
X7.0709Y-3.7358
X7.0709Y-3.8358
X7.0709Y-3.9358
X7.0709Y-4.0358
X7.15Y-3.2
X7.15Y-3.3
X7.15Y-5.34
X7.15Y-5.44
X7.1744Y-1.7539
X7.1744Y-1.7539
X7.1744Y-1.7539
X7.1744Y-1.7539
X7.1744Y-1.7539
X7.1744Y-1.7539
X7.1744Y-1.7539
X7.1744Y-1.7539
X7.1744Y-1.8539
X7.1744Y-1.8539
X7.1744Y-1.8539
X7.1744Y-1.8539
X7.1744Y-1.8539
X7.1744Y-1.8539
X7.1744Y-1.8539
X7.1744Y-1.8539
X7.1744Y-1.9539
X7.1744Y-1.9539
X7.1744Y-1.9539
X7.1744Y-1.9539
X7.1744Y-1.9539
X7.1744Y-1.9539
X7.1744Y-1.9539
X7.1744Y-1.9539
X7.1744Y-2.0539
X7.1744Y-2.0539
X7.1744Y-2.0539
X7.1744Y-2.0539
X7.1744Y-2.0539
X7.1744Y-2.0539
X7.1744Y-2.0539
X7.1744Y-2.0539
X7.1744Y-2.1539
X7.1744Y-2.1539
X7.1744Y-2.1539
X7.1744Y-2.1539
X7.1744Y-2.1539
X7.1744Y-2.1539
X7.1744Y-2.1539
X7.1744Y-2.1539
X7.1744Y-2.2539
X7.1744Y-2.2539
X7.1744Y-2.2539
X7.1744Y-2.2539
X7.1744Y-2.2539
X7.1744Y-2.2539
X7.1744Y-2.2539
X7.1744Y-2.2539
X7.1744Y-2.3539
X7.1744Y-2.3539
X7.1744Y-2.3539
X7.1744Y-2.3539
X7.1744Y-2.3539
X7.1744Y-2.3539
X7.1744Y-2.3539
X7.1744Y-2.3539
X7.1744Y-2.4539
X7.1744Y-2.4539
X7.1744Y-2.4539
X7.1744Y-2.4539
X7.1744Y-2.4539
X7.1744Y-2.4539
X7.1744Y-2.4539
X7.1744Y-2.4539
X7.1744Y-2.5539
X7.1744Y-2.5539
X7.1744Y-2.5539
X7.1744Y-2.5539
X7.1744Y-2.5539
X7.1744Y-2.5539
X7.1744Y-2.5539
X7.1744Y-2.5539
X7.1744Y-2.6539
X7.1744Y-2.6539
X7.1744Y-2.6539
X7.1744Y-2.6539
X7.1744Y-2.6539
X7.1744Y-2.6539
X7.1744Y-2.6539
X7.1744Y-2.6539
X7.1744Y-2.7539
X7.1744Y-2.7539
X7.1744Y-2.7539
X7.1744Y-2.7539
X7.1744Y-2.7539
X7.1744Y-2.7539
X7.1744Y-2.7539
X7.1744Y-2.7539
X7.1744Y-2.8539
X7.1744Y-2.8539
X7.1744Y-2.8539
X7.1744Y-2.8539
X7.1744Y-2.8539
X7.1744Y-2.8539
X7.1744Y-2.8539
X7.1744Y-2.8539
X7.1744Y-2.9539
X7.1744Y-2.9539
X7.1744Y-2.9539
X7.1744Y-2.9539
X7.1744Y-2.9539
X7.1744Y-2.9539
X7.1744Y-2.9539
X7.1744Y-2.9539
X7.1744Y-3.0539
X7.1744Y-3.0539
X7.1744Y-3.0539
X7.1744Y-3.0539
X7.1744Y-3.0539
X7.1744Y-3.0539
X7.1744Y-3.0539
X7.1744Y-3.0539
X7.25Y-3.2
X7.25Y-3.3
X7.25Y-5.34
X7.25Y-5.44
X7.2744Y-1.7539
X7.2744Y-1.7539
X7.2744Y-1.7539
X7.2744Y-1.7539
X7.2744Y-1.7539
X7.2744Y-1.7539
X7.2744Y-1.7539
X7.2744Y-1.7539
X7.2744Y-1.8539
X7.2744Y-1.8539
X7.2744Y-1.8539
X7.2744Y-1.8539
X7.2744Y-1.8539
X7.2744Y-1.8539
X7.2744Y-1.8539
X7.2744Y-1.8539
X7.2744Y-1.9539
X7.2744Y-1.9539
X7.2744Y-1.9539
X7.2744Y-1.9539
X7.2744Y-1.9539
X7.2744Y-1.9539
X7.2744Y-1.9539
X7.2744Y-1.9539
X7.2744Y-2.0539
X7.2744Y-2.0539
X7.2744Y-2.0539
X7.2744Y-2.0539
X7.2744Y-2.0539
X7.2744Y-2.0539
X7.2744Y-2.0539
X7.2744Y-2.0539
X7.2744Y-2.1539
X7.2744Y-2.1539
X7.2744Y-2.1539
X7.2744Y-2.1539
X7.2744Y-2.1539
X7.2744Y-2.1539
X7.2744Y-2.1539
X7.2744Y-2.1539
X7.2744Y-2.2539
X7.2744Y-2.2539
X7.2744Y-2.2539
X7.2744Y-2.2539
X7.2744Y-2.2539
X7.2744Y-2.2539
X7.2744Y-2.2539
X7.2744Y-2.2539
X7.2744Y-2.3539
X7.2744Y-2.3539
X7.2744Y-2.3539
X7.2744Y-2.3539
X7.2744Y-2.3539
X7.2744Y-2.3539
X7.2744Y-2.3539
X7.2744Y-2.3539
X7.2744Y-2.4539
X7.2744Y-2.4539
X7.2744Y-2.4539
X7.2744Y-2.4539
X7.2744Y-2.4539
X7.2744Y-2.4539
X7.2744Y-2.4539
X7.2744Y-2.4539
X7.2744Y-2.5539
X7.2744Y-2.5539
X7.2744Y-2.5539
X7.2744Y-2.5539
X7.2744Y-2.5539
X7.2744Y-2.5539
X7.2744Y-2.5539
X7.2744Y-2.5539
X7.2744Y-2.6539
X7.2744Y-2.6539
X7.2744Y-2.6539
X7.2744Y-2.6539
X7.2744Y-2.6539
X7.2744Y-2.6539
X7.2744Y-2.6539
X7.2744Y-2.6539
X7.2744Y-2.7539
X7.2744Y-2.7539
X7.2744Y-2.7539
X7.2744Y-2.7539
X7.2744Y-2.7539
X7.2744Y-2.7539
X7.2744Y-2.7539
X7.2744Y-2.7539
X7.2744Y-2.8539
X7.2744Y-2.8539
X7.2744Y-2.8539
X7.2744Y-2.8539
X7.2744Y-2.8539
X7.2744Y-2.8539
X7.2744Y-2.8539
X7.2744Y-2.8539
X7.2744Y-2.9539
X7.2744Y-2.9539
X7.2744Y-2.9539
X7.2744Y-2.9539
X7.2744Y-2.9539
X7.2744Y-2.9539
X7.2744Y-2.9539
X7.2744Y-2.9539
X7.2744Y-3.0539
X7.2744Y-3.0539
X7.2744Y-3.0539
X7.2744Y-3.0539
X7.2744Y-3.0539
X7.2744Y-3.0539
X7.2744Y-3.0539
X7.2744Y-3.0539
X7.35Y-3.2
X7.35Y-3.3
X7.35Y-5.34
X7.35Y-5.44
X7.3744Y-1.7539
X7.3744Y-1.7539
X7.3744Y-1.7539
X7.3744Y-1.7539
X7.3744Y-1.7539
X7.3744Y-1.7539
X7.3744Y-1.7539
X7.3744Y-1.7539
X7.3744Y-1.8539
X7.3744Y-1.8539
X7.3744Y-1.8539
X7.3744Y-1.8539
X7.3744Y-1.8539
X7.3744Y-1.8539
X7.3744Y-1.8539
X7.3744Y-1.8539
X7.3744Y-1.9539
X7.3744Y-1.9539
X7.3744Y-1.9539
X7.3744Y-1.9539
X7.3744Y-1.9539
X7.3744Y-1.9539
X7.3744Y-1.9539
X7.3744Y-1.9539
X7.3744Y-2.0539
X7.3744Y-2.0539
X7.3744Y-2.0539
X7.3744Y-2.0539
X7.3744Y-2.0539
X7.3744Y-2.0539
X7.3744Y-2.0539
X7.3744Y-2.0539
X7.3744Y-2.1539
X7.3744Y-2.1539
X7.3744Y-2.1539
X7.3744Y-2.1539
X7.3744Y-2.1539
X7.3744Y-2.1539
X7.3744Y-2.1539
X7.3744Y-2.1539
X7.3744Y-2.2539
X7.3744Y-2.2539
X7.3744Y-2.2539
X7.3744Y-2.2539
X7.3744Y-2.2539
X7.3744Y-2.2539
X7.3744Y-2.2539
X7.3744Y-2.2539
X7.3744Y-2.3539
X7.3744Y-2.3539
X7.3744Y-2.3539
X7.3744Y-2.3539
X7.3744Y-2.3539
X7.3744Y-2.3539
X7.3744Y-2.3539
X7.3744Y-2.3539
X7.3744Y-2.4539
X7.3744Y-2.4539
X7.3744Y-2.4539
X7.3744Y-2.4539
X7.3744Y-2.4539
X7.3744Y-2.4539
X7.3744Y-2.4539
X7.3744Y-2.4539
X7.3744Y-2.5539
X7.3744Y-2.5539
X7.3744Y-2.5539
X7.3744Y-2.5539
X7.3744Y-2.5539
X7.3744Y-2.5539
X7.3744Y-2.5539
X7.3744Y-2.5539
X7.3744Y-2.6539
X7.3744Y-2.6539
X7.3744Y-2.6539
X7.3744Y-2.6539
X7.3744Y-2.6539
X7.3744Y-2.6539
X7.3744Y-2.6539
X7.3744Y-2.6539
X7.3744Y-2.7539
X7.3744Y-2.7539
X7.3744Y-2.7539
X7.3744Y-2.7539
X7.3744Y-2.7539
X7.3744Y-2.7539
X7.3744Y-2.7539
X7.3744Y-2.7539
X7.3744Y-2.8539
X7.3744Y-2.8539
X7.3744Y-2.8539
X7.3744Y-2.8539
X7.3744Y-2.8539
X7.3744Y-2.8539
X7.3744Y-2.8539
X7.3744Y-2.8539
X7.3744Y-2.9539
X7.3744Y-2.9539
X7.3744Y-2.9539
X7.3744Y-2.9539
X7.3744Y-2.9539
X7.3744Y-2.9539
X7.3744Y-2.9539
X7.3744Y-2.9539
X7.3744Y-3.0539
X7.3744Y-3.0539
X7.3744Y-3.0539
X7.3744Y-3.0539
X7.3744Y-3.0539
X7.3744Y-3.0539
X7.3744Y-3.0539
X7.3744Y-3.0539
X7.45Y-3.2
X7.45Y-3.3
X7.45Y-5.34
X7.45Y-5.44
X7.4744Y-1.7539
X7.4744Y-1.7539
X7.4744Y-1.7539
X7.4744Y-1.7539
X7.4744Y-1.7539
X7.4744Y-1.7539
X7.4744Y-1.7539
X7.4744Y-1.7539
X7.4744Y-1.8539
X7.4744Y-1.8539
X7.4744Y-1.8539
X7.4744Y-1.8539
X7.4744Y-1.8539
X7.4744Y-1.8539
X7.4744Y-1.8539
X7.4744Y-1.8539
X7.4744Y-1.9539
X7.4744Y-1.9539
X7.4744Y-1.9539
X7.4744Y-1.9539
X7.4744Y-1.9539
X7.4744Y-1.9539
X7.4744Y-1.9539
X7.4744Y-1.9539
X7.4744Y-2.0539
X7.4744Y-2.0539
X7.4744Y-2.0539
X7.4744Y-2.0539
X7.4744Y-2.0539
X7.4744Y-2.0539
X7.4744Y-2.0539
X7.4744Y-2.0539
X7.4744Y-2.1539
X7.4744Y-2.1539
X7.4744Y-2.1539
X7.4744Y-2.1539
X7.4744Y-2.1539
X7.4744Y-2.1539
X7.4744Y-2.1539
X7.4744Y-2.1539
X7.4744Y-2.2539
X7.4744Y-2.2539
X7.4744Y-2.2539
X7.4744Y-2.2539
X7.4744Y-2.2539
X7.4744Y-2.2539
X7.4744Y-2.2539
X7.4744Y-2.2539
X7.4744Y-2.3539
X7.4744Y-2.3539
X7.4744Y-2.3539
X7.4744Y-2.3539
X7.4744Y-2.3539
X7.4744Y-2.3539
X7.4744Y-2.3539
X7.4744Y-2.3539
X7.4744Y-2.4539
X7.4744Y-2.4539
X7.4744Y-2.4539
X7.4744Y-2.4539
X7.4744Y-2.4539
X7.4744Y-2.4539
X7.4744Y-2.4539
X7.4744Y-2.4539
X7.4744Y-2.5539
X7.4744Y-2.5539
X7.4744Y-2.5539
X7.4744Y-2.5539
X7.4744Y-2.5539
X7.4744Y-2.5539
X7.4744Y-2.5539
X7.4744Y-2.5539
X7.4744Y-2.6539
X7.4744Y-2.6539
X7.4744Y-2.6539
X7.4744Y-2.6539
X7.4744Y-2.6539
X7.4744Y-2.6539
X7.4744Y-2.6539
X7.4744Y-2.6539
X7.4744Y-2.7539
X7.4744Y-2.7539
X7.4744Y-2.7539
X7.4744Y-2.7539
X7.4744Y-2.7539
X7.4744Y-2.7539
X7.4744Y-2.7539
X7.4744Y-2.7539
X7.4744Y-2.8539
X7.4744Y-2.8539
X7.4744Y-2.8539
X7.4744Y-2.8539
X7.4744Y-2.8539
X7.4744Y-2.8539
X7.4744Y-2.8539
X7.4744Y-2.8539
X7.4744Y-2.9539
X7.4744Y-2.9539
X7.4744Y-2.9539
X7.4744Y-2.9539
X7.4744Y-2.9539
X7.4744Y-2.9539
X7.4744Y-2.9539
X7.4744Y-2.9539
X7.4744Y-3.0539
X7.4744Y-3.0539
X7.4744Y-3.0539
X7.4744Y-3.0539
X7.4744Y-3.0539
X7.4744Y-3.0539
X7.4744Y-3.0539
X7.4744Y-3.0539
X7.55Y-3.2
X7.55Y-3.3
X7.55Y-5.34
X7.55Y-5.44
X7.5744Y-1.7539
X7.5744Y-1.7539
X7.5744Y-1.7539
X7.5744Y-1.7539
X7.5744Y-1.7539
X7.5744Y-1.7539
X7.5744Y-1.7539
X7.5744Y-1.7539
X7.5744Y-1.8539
X7.5744Y-1.8539
X7.5744Y-1.8539
X7.5744Y-1.8539
X7.5744Y-1.8539
X7.5744Y-1.8539
X7.5744Y-1.8539
X7.5744Y-1.8539
X7.5744Y-1.9539
X7.5744Y-1.9539
X7.5744Y-1.9539
X7.5744Y-1.9539
X7.5744Y-1.9539
X7.5744Y-1.9539
X7.5744Y-1.9539
X7.5744Y-1.9539
X7.5744Y-2.0539
X7.5744Y-2.0539
X7.5744Y-2.0539
X7.5744Y-2.0539
X7.5744Y-2.0539
X7.5744Y-2.0539
X7.5744Y-2.0539
X7.5744Y-2.0539
X7.5744Y-2.1539
X7.5744Y-2.1539
X7.5744Y-2.1539
X7.5744Y-2.1539
X7.5744Y-2.1539
X7.5744Y-2.1539
X7.5744Y-2.1539
X7.5744Y-2.1539
X7.5744Y-2.2539
X7.5744Y-2.2539
X7.5744Y-2.2539
X7.5744Y-2.2539
X7.5744Y-2.2539
X7.5744Y-2.2539
X7.5744Y-2.2539
X7.5744Y-2.2539
X7.5744Y-2.3539
X7.5744Y-2.3539
X7.5744Y-2.3539
X7.5744Y-2.3539
X7.5744Y-2.3539
X7.5744Y-2.3539
X7.5744Y-2.3539
X7.5744Y-2.3539
X7.5744Y-2.4539
X7.5744Y-2.4539
X7.5744Y-2.4539
X7.5744Y-2.4539
X7.5744Y-2.4539
X7.5744Y-2.4539
X7.5744Y-2.4539
X7.5744Y-2.4539
X7.5744Y-2.5539
X7.5744Y-2.5539
X7.5744Y-2.5539
X7.5744Y-2.5539
X7.5744Y-2.5539
X7.5744Y-2.5539
X7.5744Y-2.5539
X7.5744Y-2.5539
X7.5744Y-2.6539
X7.5744Y-2.6539
X7.5744Y-2.6539
X7.5744Y-2.6539
X7.5744Y-2.6539
X7.5744Y-2.6539
X7.5744Y-2.6539
X7.5744Y-2.6539
X7.5744Y-2.7539
X7.5744Y-2.7539
X7.5744Y-2.7539
X7.5744Y-2.7539
X7.5744Y-2.7539
X7.5744Y-2.7539
X7.5744Y-2.7539
X7.5744Y-2.7539
X7.5744Y-2.8539
X7.5744Y-2.8539
X7.5744Y-2.8539
X7.5744Y-2.8539
X7.5744Y-2.8539
X7.5744Y-2.8539
X7.5744Y-2.8539
X7.5744Y-2.8539
X7.5744Y-2.9539
X7.5744Y-2.9539
X7.5744Y-2.9539
X7.5744Y-2.9539
X7.5744Y-2.9539
X7.5744Y-2.9539
X7.5744Y-2.9539
X7.5744Y-2.9539
X7.5744Y-3.0539
X7.5744Y-3.0539
X7.5744Y-3.0539
X7.5744Y-3.0539
X7.5744Y-3.0539
X7.5744Y-3.0539
X7.5744Y-3.0539
X7.5744Y-3.0539
X7.65Y-3.2
X7.65Y-3.3
X7.65Y-5.34
X7.65Y-5.44
X7.6744Y-1.7539
X7.6744Y-1.7539
X7.6744Y-1.7539
X7.6744Y-1.7539
X7.6744Y-1.7539
X7.6744Y-1.7539
X7.6744Y-1.7539
X7.6744Y-1.7539
X7.6744Y-1.8539
X7.6744Y-1.8539
X7.6744Y-1.8539
X7.6744Y-1.8539
X7.6744Y-1.8539
X7.6744Y-1.8539
X7.6744Y-1.8539
X7.6744Y-1.8539
X7.6744Y-1.9539
X7.6744Y-1.9539
X7.6744Y-1.9539
X7.6744Y-1.9539
X7.6744Y-1.9539
X7.6744Y-1.9539
X7.6744Y-1.9539
X7.6744Y-1.9539
X7.6744Y-2.0539
X7.6744Y-2.0539
X7.6744Y-2.0539
X7.6744Y-2.0539
X7.6744Y-2.0539
X7.6744Y-2.0539
X7.6744Y-2.0539
X7.6744Y-2.0539
X7.6744Y-2.1539
X7.6744Y-2.1539
X7.6744Y-2.1539
X7.6744Y-2.1539
X7.6744Y-2.1539
X7.6744Y-2.1539
X7.6744Y-2.1539
X7.6744Y-2.1539
X7.6744Y-2.2539
X7.6744Y-2.2539
X7.6744Y-2.2539
X7.6744Y-2.2539
X7.6744Y-2.2539
X7.6744Y-2.2539
X7.6744Y-2.2539
X7.6744Y-2.2539
X7.6744Y-2.3539
X7.6744Y-2.3539
X7.6744Y-2.3539
X7.6744Y-2.3539
X7.6744Y-2.3539
X7.6744Y-2.3539
X7.6744Y-2.3539
X7.6744Y-2.3539
X7.6744Y-2.4539
X7.6744Y-2.4539
X7.6744Y-2.4539
X7.6744Y-2.4539
X7.6744Y-2.4539
X7.6744Y-2.4539
X7.6744Y-2.4539
X7.6744Y-2.4539
X7.6744Y-2.5539
X7.6744Y-2.5539
X7.6744Y-2.5539
X7.6744Y-2.5539
X7.6744Y-2.5539
X7.6744Y-2.5539
X7.6744Y-2.5539
X7.6744Y-2.5539
X7.6744Y-2.6539
X7.6744Y-2.6539
X7.6744Y-2.6539
X7.6744Y-2.6539
X7.6744Y-2.6539
X7.6744Y-2.6539
X7.6744Y-2.6539
X7.6744Y-2.6539
X7.6744Y-2.7539
X7.6744Y-2.7539
X7.6744Y-2.7539
X7.6744Y-2.7539
X7.6744Y-2.7539
X7.6744Y-2.7539
X7.6744Y-2.7539
X7.6744Y-2.7539
X7.6744Y-2.8539
X7.6744Y-2.8539
X7.6744Y-2.8539
X7.6744Y-2.8539
X7.6744Y-2.8539
X7.6744Y-2.8539
X7.6744Y-2.8539
X7.6744Y-2.8539
X7.6744Y-2.9539
X7.6744Y-2.9539
X7.6744Y-2.9539
X7.6744Y-2.9539
X7.6744Y-2.9539
X7.6744Y-2.9539
X7.6744Y-2.9539
X7.6744Y-2.9539
X7.6744Y-3.0539
X7.6744Y-3.0539
X7.6744Y-3.0539
X7.6744Y-3.0539
X7.6744Y-3.0539
X7.6744Y-3.0539
X7.6744Y-3.0539
X7.6744Y-3.0539
X7.75Y-3.2
X7.75Y-3.3
X7.75Y-5.34
X7.75Y-5.44
X7.7744Y-1.7539
X7.7744Y-1.7539
X7.7744Y-1.7539
X7.7744Y-1.7539
X7.7744Y-1.7539
X7.7744Y-1.7539
X7.7744Y-1.7539
X7.7744Y-1.7539
X7.7744Y-1.8539
X7.7744Y-1.8539
X7.7744Y-1.8539
X7.7744Y-1.8539
X7.7744Y-1.8539
X7.7744Y-1.8539
X7.7744Y-1.8539
X7.7744Y-1.8539
X7.7744Y-1.9539
X7.7744Y-1.9539
X7.7744Y-1.9539
X7.7744Y-1.9539
X7.7744Y-1.9539
X7.7744Y-1.9539
X7.7744Y-1.9539
X7.7744Y-1.9539
X7.7744Y-2.0539
X7.7744Y-2.0539
X7.7744Y-2.0539
X7.7744Y-2.0539
X7.7744Y-2.0539
X7.7744Y-2.0539
X7.7744Y-2.0539
X7.7744Y-2.0539
X7.7744Y-2.1539
X7.7744Y-2.1539
X7.7744Y-2.1539
X7.7744Y-2.1539
X7.7744Y-2.1539
X7.7744Y-2.1539
X7.7744Y-2.1539
X7.7744Y-2.1539
X7.7744Y-2.2539
X7.7744Y-2.2539
X7.7744Y-2.2539
X7.7744Y-2.2539
X7.7744Y-2.2539
X7.7744Y-2.2539
X7.7744Y-2.2539
X7.7744Y-2.2539
X7.7744Y-2.3539
X7.7744Y-2.3539
X7.7744Y-2.3539
X7.7744Y-2.3539
X7.7744Y-2.3539
X7.7744Y-2.3539
X7.7744Y-2.3539
X7.7744Y-2.3539
X7.7744Y-2.4539
X7.7744Y-2.4539
X7.7744Y-2.4539
X7.7744Y-2.4539
X7.7744Y-2.4539
X7.7744Y-2.4539
X7.7744Y-2.4539
X7.7744Y-2.4539
X7.7744Y-2.5539
X7.7744Y-2.5539
X7.7744Y-2.5539
X7.7744Y-2.5539
X7.7744Y-2.5539
X7.7744Y-2.5539
X7.7744Y-2.5539
X7.7744Y-2.5539
X7.7744Y-2.6539
X7.7744Y-2.6539
X7.7744Y-2.6539
X7.7744Y-2.6539
X7.7744Y-2.6539
X7.7744Y-2.6539
X7.7744Y-2.6539
X7.7744Y-2.6539
X7.7744Y-2.7539
X7.7744Y-2.7539
X7.7744Y-2.7539
X7.7744Y-2.7539
X7.7744Y-2.7539
X7.7744Y-2.7539
X7.7744Y-2.7539
X7.7744Y-2.7539
X7.7744Y-2.8539
X7.7744Y-2.8539
X7.7744Y-2.8539
X7.7744Y-2.8539
X7.7744Y-2.8539
X7.7744Y-2.8539
X7.7744Y-2.8539
X7.7744Y-2.8539
X7.7744Y-2.9539
X7.7744Y-2.9539
X7.7744Y-2.9539
X7.7744Y-2.9539
X7.7744Y-2.9539
X7.7744Y-2.9539
X7.7744Y-2.9539
X7.7744Y-2.9539
X7.7744Y-3.0539
X7.7744Y-3.0539
X7.7744Y-3.0539
X7.7744Y-3.0539
X7.7744Y-3.0539
X7.7744Y-3.0539
X7.7744Y-3.0539
X7.7744Y-3.0539
X7.85Y-3.2
X7.85Y-3.3
X7.85Y-5.34
X7.85Y-5.44
X7.8744Y-1.7539
X7.8744Y-1.7539
X7.8744Y-1.7539
X7.8744Y-1.7539
X7.8744Y-1.7539
X7.8744Y-1.7539
X7.8744Y-1.7539
X7.8744Y-1.7539
X7.8744Y-1.8539
X7.8744Y-1.8539
X7.8744Y-1.8539
X7.8744Y-1.8539
X7.8744Y-1.8539
X7.8744Y-1.8539
X7.8744Y-1.8539
X7.8744Y-1.8539
X7.8744Y-1.9539
X7.8744Y-1.9539
X7.8744Y-1.9539
X7.8744Y-1.9539
X7.8744Y-1.9539
X7.8744Y-1.9539
X7.8744Y-1.9539
X7.8744Y-1.9539
X7.8744Y-2.0539
X7.8744Y-2.0539
X7.8744Y-2.0539
X7.8744Y-2.0539
X7.8744Y-2.0539
X7.8744Y-2.0539
X7.8744Y-2.0539
X7.8744Y-2.0539
X7.8744Y-2.1539
X7.8744Y-2.1539
X7.8744Y-2.1539
X7.8744Y-2.1539
X7.8744Y-2.1539
X7.8744Y-2.1539
X7.8744Y-2.1539
X7.8744Y-2.1539
X7.8744Y-2.2539
X7.8744Y-2.2539
X7.8744Y-2.2539
X7.8744Y-2.2539
X7.8744Y-2.2539
X7.8744Y-2.2539
X7.8744Y-2.2539
X7.8744Y-2.2539
X7.8744Y-2.3539
X7.8744Y-2.3539
X7.8744Y-2.3539
X7.8744Y-2.3539
X7.8744Y-2.3539
X7.8744Y-2.3539
X7.8744Y-2.3539
X7.8744Y-2.3539
X7.8744Y-2.4539
X7.8744Y-2.4539
X7.8744Y-2.4539
X7.8744Y-2.4539
X7.8744Y-2.4539
X7.8744Y-2.4539
X7.8744Y-2.4539
X7.8744Y-2.4539
X7.8744Y-2.5539
X7.8744Y-2.5539
X7.8744Y-2.5539
X7.8744Y-2.5539
X7.8744Y-2.5539
X7.8744Y-2.5539
X7.8744Y-2.5539
X7.8744Y-2.5539
X7.8744Y-2.6539
X7.8744Y-2.6539
X7.8744Y-2.6539
X7.8744Y-2.6539
X7.8744Y-2.6539
X7.8744Y-2.6539
X7.8744Y-2.6539
X7.8744Y-2.6539
X7.8744Y-2.7539
X7.8744Y-2.7539
X7.8744Y-2.7539
X7.8744Y-2.7539
X7.8744Y-2.7539
X7.8744Y-2.7539
X7.8744Y-2.7539
X7.8744Y-2.7539
X7.8744Y-2.8539
X7.8744Y-2.8539
X7.8744Y-2.8539
X7.8744Y-2.8539
X7.8744Y-2.8539
X7.8744Y-2.8539
X7.8744Y-2.8539
X7.8744Y-2.8539
X7.8744Y-2.9539
X7.8744Y-2.9539
X7.8744Y-2.9539
X7.8744Y-2.9539
X7.8744Y-2.9539
X7.8744Y-2.9539
X7.8744Y-2.9539
X7.8744Y-2.9539
X7.8744Y-3.0539
X7.8744Y-3.0539
X7.8744Y-3.0539
X7.8744Y-3.0539
X7.8744Y-3.0539
X7.8744Y-3.0539
X7.8744Y-3.0539
X7.8744Y-3.0539
X7.95Y-3.2
X7.95Y-3.3
X7.95Y-5.34
X7.95Y-5.44
X7.9744Y-1.7539
X7.9744Y-1.7539
X7.9744Y-1.7539
X7.9744Y-1.7539
X7.9744Y-1.7539
X7.9744Y-1.7539
X7.9744Y-1.7539
X7.9744Y-1.7539
X7.9744Y-1.8539
X7.9744Y-1.8539
X7.9744Y-1.8539
X7.9744Y-1.8539
X7.9744Y-1.8539
X7.9744Y-1.8539
X7.9744Y-1.8539
X7.9744Y-1.8539
X7.9744Y-1.9539
X7.9744Y-1.9539
X7.9744Y-1.9539
X7.9744Y-1.9539
X7.9744Y-1.9539
X7.9744Y-1.9539
X7.9744Y-1.9539
X7.9744Y-1.9539
X7.9744Y-2.0539
X7.9744Y-2.0539
X7.9744Y-2.0539
X7.9744Y-2.0539
X7.9744Y-2.0539
X7.9744Y-2.0539
X7.9744Y-2.0539
X7.9744Y-2.0539
X7.9744Y-2.1539
X7.9744Y-2.1539
X7.9744Y-2.1539
X7.9744Y-2.1539
X7.9744Y-2.1539
X7.9744Y-2.1539
X7.9744Y-2.1539
X7.9744Y-2.1539
X7.9744Y-2.2539
X7.9744Y-2.2539
X7.9744Y-2.2539
X7.9744Y-2.2539
X7.9744Y-2.2539
X7.9744Y-2.2539
X7.9744Y-2.2539
X7.9744Y-2.2539
X7.9744Y-2.3539
X7.9744Y-2.3539
X7.9744Y-2.3539
X7.9744Y-2.3539
X7.9744Y-2.3539
X7.9744Y-2.3539
X7.9744Y-2.3539
X7.9744Y-2.3539
X7.9744Y-2.4539
X7.9744Y-2.4539
X7.9744Y-2.4539
X7.9744Y-2.4539
X7.9744Y-2.4539
X7.9744Y-2.4539
X7.9744Y-2.4539
X7.9744Y-2.4539
X7.9744Y-2.5539
X7.9744Y-2.5539
X7.9744Y-2.5539
X7.9744Y-2.5539
X7.9744Y-2.5539
X7.9744Y-2.5539
X7.9744Y-2.5539
X7.9744Y-2.5539
X7.9744Y-2.6539
X7.9744Y-2.6539
X7.9744Y-2.6539
X7.9744Y-2.6539
X7.9744Y-2.6539
X7.9744Y-2.6539
X7.9744Y-2.6539
X7.9744Y-2.6539
X7.9744Y-2.7539
X7.9744Y-2.7539
X7.9744Y-2.7539
X7.9744Y-2.7539
X7.9744Y-2.7539
X7.9744Y-2.7539
X7.9744Y-2.7539
X7.9744Y-2.7539
X7.9744Y-2.8539
X7.9744Y-2.8539
X7.9744Y-2.8539
X7.9744Y-2.8539
X7.9744Y-2.8539
X7.9744Y-2.8539
X7.9744Y-2.8539
X7.9744Y-2.8539
X7.9744Y-2.9539
X7.9744Y-2.9539
X7.9744Y-2.9539
X7.9744Y-2.9539
X7.9744Y-2.9539
X7.9744Y-2.9539
X7.9744Y-2.9539
X7.9744Y-2.9539
X7.9744Y-3.0539
X7.9744Y-3.0539
X7.9744Y-3.0539
X7.9744Y-3.0539
X7.9744Y-3.0539
X7.9744Y-3.0539
X7.9744Y-3.0539
X7.9744Y-3.0539
X8.05Y-3.2
X8.05Y-3.3
X8.05Y-5.34
X8.05Y-5.44
X8.0744Y-1.7539
X8.0744Y-1.7539
X8.0744Y-1.7539
X8.0744Y-1.7539
X8.0744Y-1.7539
X8.0744Y-1.7539
X8.0744Y-1.7539
X8.0744Y-1.7539
X8.0744Y-1.8539
X8.0744Y-1.8539
X8.0744Y-1.8539
X8.0744Y-1.8539
X8.0744Y-1.8539
X8.0744Y-1.8539
X8.0744Y-1.8539
X8.0744Y-1.8539
X8.0744Y-1.9539
X8.0744Y-1.9539
X8.0744Y-1.9539
X8.0744Y-1.9539
X8.0744Y-1.9539
X8.0744Y-1.9539
X8.0744Y-1.9539
X8.0744Y-1.9539
X8.0744Y-2.0539
X8.0744Y-2.0539
X8.0744Y-2.0539
X8.0744Y-2.0539
X8.0744Y-2.0539
X8.0744Y-2.0539
X8.0744Y-2.0539
X8.0744Y-2.0539
X8.0744Y-2.1539
X8.0744Y-2.1539
X8.0744Y-2.1539
X8.0744Y-2.1539
X8.0744Y-2.1539
X8.0744Y-2.1539
X8.0744Y-2.1539
X8.0744Y-2.1539
X8.0744Y-2.2539
X8.0744Y-2.2539
X8.0744Y-2.2539
X8.0744Y-2.2539
X8.0744Y-2.2539
X8.0744Y-2.2539
X8.0744Y-2.2539
X8.0744Y-2.2539
X8.0744Y-2.3539
X8.0744Y-2.3539
X8.0744Y-2.3539
X8.0744Y-2.3539
X8.0744Y-2.3539
X8.0744Y-2.3539
X8.0744Y-2.3539
X8.0744Y-2.3539
X8.0744Y-2.4539
X8.0744Y-2.4539
X8.0744Y-2.4539
X8.0744Y-2.4539
X8.0744Y-2.4539
X8.0744Y-2.4539
X8.0744Y-2.4539
X8.0744Y-2.4539
X8.0744Y-2.5539
X8.0744Y-2.5539
X8.0744Y-2.5539
X8.0744Y-2.5539
X8.0744Y-2.5539
X8.0744Y-2.5539
X8.0744Y-2.5539
X8.0744Y-2.5539
X8.0744Y-2.6539
X8.0744Y-2.6539
X8.0744Y-2.6539
X8.0744Y-2.6539
X8.0744Y-2.6539
X8.0744Y-2.6539
X8.0744Y-2.6539
X8.0744Y-2.6539
X8.0744Y-2.7539
X8.0744Y-2.7539
X8.0744Y-2.7539
X8.0744Y-2.7539
X8.0744Y-2.7539
X8.0744Y-2.7539
X8.0744Y-2.7539
X8.0744Y-2.7539
X8.0744Y-2.8539
X8.0744Y-2.8539
X8.0744Y-2.8539
X8.0744Y-2.8539
X8.0744Y-2.8539
X8.0744Y-2.8539
X8.0744Y-2.8539
X8.0744Y-2.8539
X8.0744Y-2.9539
X8.0744Y-2.9539
X8.0744Y-2.9539
X8.0744Y-2.9539
X8.0744Y-2.9539
X8.0744Y-2.9539
X8.0744Y-2.9539
X8.0744Y-2.9539
X8.0744Y-3.0539
X8.0744Y-3.0539
X8.0744Y-3.0539
X8.0744Y-3.0539
X8.0744Y-3.0539
X8.0744Y-3.0539
X8.0744Y-3.0539
X8.0744Y-3.0539
X8.15Y-3.2
X8.15Y-3.3
X8.15Y-5.34
X8.15Y-5.44
X8.1744Y-1.7539
X8.1744Y-1.7539
X8.1744Y-1.7539
X8.1744Y-1.7539
X8.1744Y-1.7539
X8.1744Y-1.7539
X8.1744Y-1.7539
X8.1744Y-1.7539
X8.1744Y-1.8539
X8.1744Y-1.8539
X8.1744Y-1.8539
X8.1744Y-1.8539
X8.1744Y-1.8539
X8.1744Y-1.8539
X8.1744Y-1.8539
X8.1744Y-1.8539
X8.1744Y-1.9539
X8.1744Y-1.9539
X8.1744Y-1.9539
X8.1744Y-1.9539
X8.1744Y-1.9539
X8.1744Y-1.9539
X8.1744Y-1.9539
X8.1744Y-1.9539
X8.1744Y-2.0539
X8.1744Y-2.0539
X8.1744Y-2.0539
X8.1744Y-2.0539
X8.1744Y-2.0539
X8.1744Y-2.0539
X8.1744Y-2.0539
X8.1744Y-2.0539
X8.1744Y-2.1539
X8.1744Y-2.1539
X8.1744Y-2.1539
X8.1744Y-2.1539
X8.1744Y-2.1539
X8.1744Y-2.1539
X8.1744Y-2.1539
X8.1744Y-2.1539
X8.1744Y-2.2539
X8.1744Y-2.2539
X8.1744Y-2.2539
X8.1744Y-2.2539
X8.1744Y-2.2539
X8.1744Y-2.2539
X8.1744Y-2.2539
X8.1744Y-2.2539
X8.1744Y-2.3539
X8.1744Y-2.3539
X8.1744Y-2.3539
X8.1744Y-2.3539
X8.1744Y-2.3539
X8.1744Y-2.3539
X8.1744Y-2.3539
X8.1744Y-2.3539
X8.1744Y-2.4539
X8.1744Y-2.4539
X8.1744Y-2.4539
X8.1744Y-2.4539
X8.1744Y-2.4539
X8.1744Y-2.4539
X8.1744Y-2.4539
X8.1744Y-2.4539
X8.1744Y-2.5539
X8.1744Y-2.5539
X8.1744Y-2.5539
X8.1744Y-2.5539
X8.1744Y-2.5539
X8.1744Y-2.5539
X8.1744Y-2.5539
X8.1744Y-2.5539
X8.1744Y-2.6539
X8.1744Y-2.6539
X8.1744Y-2.6539
X8.1744Y-2.6539
X8.1744Y-2.6539
X8.1744Y-2.6539
X8.1744Y-2.6539
X8.1744Y-2.6539
X8.1744Y-2.7539
X8.1744Y-2.7539
X8.1744Y-2.7539
X8.1744Y-2.7539
X8.1744Y-2.7539
X8.1744Y-2.7539
X8.1744Y-2.7539
X8.1744Y-2.7539
X8.1744Y-2.8539
X8.1744Y-2.8539
X8.1744Y-2.8539
X8.1744Y-2.8539
X8.1744Y-2.8539
X8.1744Y-2.8539
X8.1744Y-2.8539
X8.1744Y-2.8539
X8.1744Y-2.9539
X8.1744Y-2.9539
X8.1744Y-2.9539
X8.1744Y-2.9539
X8.1744Y-2.9539
X8.1744Y-2.9539
X8.1744Y-2.9539
X8.1744Y-2.9539
X8.1744Y-3.0539
X8.1744Y-3.0539
X8.1744Y-3.0539
X8.1744Y-3.0539
X8.1744Y-3.0539
X8.1744Y-3.0539
X8.1744Y-3.0539
X8.1744Y-3.0539
X8.25Y-3.2
X8.25Y-3.3
X8.25Y-5.34
X8.25Y-5.44
X8.2744Y-1.7539
X8.2744Y-1.7539
X8.2744Y-1.7539
X8.2744Y-1.7539
X8.2744Y-1.7539
X8.2744Y-1.7539
X8.2744Y-1.7539
X8.2744Y-1.7539
X8.2744Y-1.8539
X8.2744Y-1.8539
X8.2744Y-1.8539
X8.2744Y-1.8539
X8.2744Y-1.8539
X8.2744Y-1.8539
X8.2744Y-1.8539
X8.2744Y-1.8539
X8.2744Y-1.9539
X8.2744Y-1.9539
X8.2744Y-1.9539
X8.2744Y-1.9539
X8.2744Y-1.9539
X8.2744Y-1.9539
X8.2744Y-1.9539
X8.2744Y-1.9539
X8.2744Y-2.0539
X8.2744Y-2.0539
X8.2744Y-2.0539
X8.2744Y-2.0539
X8.2744Y-2.0539
X8.2744Y-2.0539
X8.2744Y-2.0539
X8.2744Y-2.0539
X8.2744Y-2.1539
X8.2744Y-2.1539
X8.2744Y-2.1539
X8.2744Y-2.1539
X8.2744Y-2.1539
X8.2744Y-2.1539
X8.2744Y-2.1539
X8.2744Y-2.1539
X8.2744Y-2.2539
X8.2744Y-2.2539
X8.2744Y-2.2539
X8.2744Y-2.2539
X8.2744Y-2.2539
X8.2744Y-2.2539
X8.2744Y-2.2539
X8.2744Y-2.2539
X8.2744Y-2.3539
X8.2744Y-2.3539
X8.2744Y-2.3539
X8.2744Y-2.3539
X8.2744Y-2.3539
X8.2744Y-2.3539
X8.2744Y-2.3539
X8.2744Y-2.3539
X8.2744Y-2.4539
X8.2744Y-2.4539
X8.2744Y-2.4539
X8.2744Y-2.4539
X8.2744Y-2.4539
X8.2744Y-2.4539
X8.2744Y-2.4539
X8.2744Y-2.4539
X8.2744Y-2.5539
X8.2744Y-2.5539
X8.2744Y-2.5539
X8.2744Y-2.5539
X8.2744Y-2.5539
X8.2744Y-2.5539
X8.2744Y-2.5539
X8.2744Y-2.5539
X8.2744Y-2.6539
X8.2744Y-2.6539
X8.2744Y-2.6539
X8.2744Y-2.6539
X8.2744Y-2.6539
X8.2744Y-2.6539
X8.2744Y-2.6539
X8.2744Y-2.6539
X8.2744Y-2.7539
X8.2744Y-2.7539
X8.2744Y-2.7539
X8.2744Y-2.7539
X8.2744Y-2.7539
X8.2744Y-2.7539
X8.2744Y-2.7539
X8.2744Y-2.7539
X8.2744Y-2.8539
X8.2744Y-2.8539
X8.2744Y-2.8539
X8.2744Y-2.8539
X8.2744Y-2.8539
X8.2744Y-2.8539
X8.2744Y-2.8539
X8.2744Y-2.8539
X8.2744Y-2.9539
X8.2744Y-2.9539
X8.2744Y-2.9539
X8.2744Y-2.9539
X8.2744Y-2.9539
X8.2744Y-2.9539
X8.2744Y-2.9539
X8.2744Y-2.9539
X8.2744Y-3.0539
X8.2744Y-3.0539
X8.2744Y-3.0539
X8.2744Y-3.0539
X8.2744Y-3.0539
X8.2744Y-3.0539
X8.2744Y-3.0539
X8.2744Y-3.0539
X8.35Y-3.2
X8.35Y-3.3
X8.35Y-5.34
X8.35Y-5.44
X8.3744Y-1.7539
X8.3744Y-1.7539
X8.3744Y-1.7539
X8.3744Y-1.7539
X8.3744Y-1.7539
X8.3744Y-1.7539
X8.3744Y-1.7539
X8.3744Y-1.7539
X8.3744Y-1.8539
X8.3744Y-1.8539
X8.3744Y-1.8539
X8.3744Y-1.8539
X8.3744Y-1.8539
X8.3744Y-1.8539
X8.3744Y-1.8539
X8.3744Y-1.8539
X8.3744Y-1.9539
X8.3744Y-1.9539
X8.3744Y-1.9539
X8.3744Y-1.9539
X8.3744Y-1.9539
X8.3744Y-1.9539
X8.3744Y-1.9539
X8.3744Y-1.9539
X8.3744Y-2.0539
X8.3744Y-2.0539
X8.3744Y-2.0539
X8.3744Y-2.0539
X8.3744Y-2.0539
X8.3744Y-2.0539
X8.3744Y-2.0539
X8.3744Y-2.0539
X8.3744Y-2.1539
X8.3744Y-2.1539
X8.3744Y-2.1539
X8.3744Y-2.1539
X8.3744Y-2.1539
X8.3744Y-2.1539
X8.3744Y-2.1539
X8.3744Y-2.1539
X8.3744Y-2.2539
X8.3744Y-2.2539
X8.3744Y-2.2539
X8.3744Y-2.2539
X8.3744Y-2.2539
X8.3744Y-2.2539
X8.3744Y-2.2539
X8.3744Y-2.2539
X8.3744Y-2.3539
X8.3744Y-2.3539
X8.3744Y-2.3539
X8.3744Y-2.3539
X8.3744Y-2.3539
X8.3744Y-2.3539
X8.3744Y-2.3539
X8.3744Y-2.3539
X8.3744Y-2.4539
X8.3744Y-2.4539
X8.3744Y-2.4539
X8.3744Y-2.4539
X8.3744Y-2.4539
X8.3744Y-2.4539
X8.3744Y-2.4539
X8.3744Y-2.4539
X8.3744Y-2.5539
X8.3744Y-2.5539
X8.3744Y-2.5539
X8.3744Y-2.5539
X8.3744Y-2.5539
X8.3744Y-2.5539
X8.3744Y-2.5539
X8.3744Y-2.5539
X8.3744Y-2.6539
X8.3744Y-2.6539
X8.3744Y-2.6539
X8.3744Y-2.6539
X8.3744Y-2.6539
X8.3744Y-2.6539
X8.3744Y-2.6539
X8.3744Y-2.6539
X8.3744Y-2.7539
X8.3744Y-2.7539
X8.3744Y-2.7539
X8.3744Y-2.7539
X8.3744Y-2.7539
X8.3744Y-2.7539
X8.3744Y-2.7539
X8.3744Y-2.7539
X8.3744Y-2.8539
X8.3744Y-2.8539
X8.3744Y-2.8539
X8.3744Y-2.8539
X8.3744Y-2.8539
X8.3744Y-2.8539
X8.3744Y-2.8539
X8.3744Y-2.8539
X8.3744Y-2.9539
X8.3744Y-2.9539
X8.3744Y-2.9539
X8.3744Y-2.9539
X8.3744Y-2.9539
X8.3744Y-2.9539
X8.3744Y-2.9539
X8.3744Y-2.9539
X8.3744Y-3.0539
X8.3744Y-3.0539
X8.3744Y-3.0539
X8.3744Y-3.0539
X8.3744Y-3.0539
X8.3744Y-3.0539
X8.3744Y-3.0539
X8.3744Y-3.0539
X8.45Y-3.2
X8.45Y-3.3
X8.45Y-5.34
X8.45Y-5.44
X8.4744Y-1.7539
X8.4744Y-1.7539
X8.4744Y-1.7539
X8.4744Y-1.7539
X8.4744Y-1.7539
X8.4744Y-1.7539
X8.4744Y-1.7539
X8.4744Y-1.7539
X8.4744Y-1.8539
X8.4744Y-1.8539
X8.4744Y-1.8539
X8.4744Y-1.8539
X8.4744Y-1.8539
X8.4744Y-1.8539
X8.4744Y-1.8539
X8.4744Y-1.8539
X8.4744Y-1.9539
X8.4744Y-1.9539
X8.4744Y-1.9539
X8.4744Y-1.9539
X8.4744Y-1.9539
X8.4744Y-1.9539
X8.4744Y-1.9539
X8.4744Y-1.9539
X8.4744Y-2.0539
X8.4744Y-2.0539
X8.4744Y-2.0539
X8.4744Y-2.0539
X8.4744Y-2.0539
X8.4744Y-2.0539
X8.4744Y-2.0539
X8.4744Y-2.0539
X8.4744Y-2.1539
X8.4744Y-2.1539
X8.4744Y-2.1539
X8.4744Y-2.1539
X8.4744Y-2.1539
X8.4744Y-2.1539
X8.4744Y-2.1539
X8.4744Y-2.1539
X8.4744Y-2.2539
X8.4744Y-2.2539
X8.4744Y-2.2539
X8.4744Y-2.2539
X8.4744Y-2.2539
X8.4744Y-2.2539
X8.4744Y-2.2539
X8.4744Y-2.2539
X8.4744Y-2.3539
X8.4744Y-2.3539
X8.4744Y-2.3539
X8.4744Y-2.3539
X8.4744Y-2.3539
X8.4744Y-2.3539
X8.4744Y-2.3539
X8.4744Y-2.3539
X8.4744Y-2.4539
X8.4744Y-2.4539
X8.4744Y-2.4539
X8.4744Y-2.4539
X8.4744Y-2.4539
X8.4744Y-2.4539
X8.4744Y-2.4539
X8.4744Y-2.4539
X8.4744Y-2.5539
X8.4744Y-2.5539
X8.4744Y-2.5539
X8.4744Y-2.5539
X8.4744Y-2.5539
X8.4744Y-2.5539
X8.4744Y-2.5539
X8.4744Y-2.5539
X8.4744Y-2.6539
X8.4744Y-2.6539
X8.4744Y-2.6539
X8.4744Y-2.6539
X8.4744Y-2.6539
X8.4744Y-2.6539
X8.4744Y-2.6539
X8.4744Y-2.6539
X8.4744Y-2.7539
X8.4744Y-2.7539
X8.4744Y-2.7539
X8.4744Y-2.7539
X8.4744Y-2.7539
X8.4744Y-2.7539
X8.4744Y-2.7539
X8.4744Y-2.7539
X8.4744Y-2.8539
X8.4744Y-2.8539
X8.4744Y-2.8539
X8.4744Y-2.8539
X8.4744Y-2.8539
X8.4744Y-2.8539
X8.4744Y-2.8539
X8.4744Y-2.8539
X8.4744Y-2.9539
X8.4744Y-2.9539
X8.4744Y-2.9539
X8.4744Y-2.9539
X8.4744Y-2.9539
X8.4744Y-2.9539
X8.4744Y-2.9539
X8.4744Y-2.9539
X8.4744Y-3.0539
X8.4744Y-3.0539
X8.4744Y-3.0539
X8.4744Y-3.0539
X8.4744Y-3.0539
X8.4744Y-3.0539
X8.4744Y-3.0539
X8.4744Y-3.0539
X8.55Y-3.2
X8.55Y-3.3
X8.55Y-5.34
X8.55Y-5.44
X8.5744Y-1.7539
X8.5744Y-1.7539
X8.5744Y-1.7539
X8.5744Y-1.7539
X8.5744Y-1.7539
X8.5744Y-1.7539
X8.5744Y-1.7539
X8.5744Y-1.7539
X8.5744Y-1.8539
X8.5744Y-1.8539
X8.5744Y-1.8539
X8.5744Y-1.8539
X8.5744Y-1.8539
X8.5744Y-1.8539
X8.5744Y-1.8539
X8.5744Y-1.8539
X8.5744Y-1.9539
X8.5744Y-1.9539
X8.5744Y-1.9539
X8.5744Y-1.9539
X8.5744Y-1.9539
X8.5744Y-1.9539
X8.5744Y-1.9539
X8.5744Y-1.9539
X8.5744Y-2.0539
X8.5744Y-2.0539
X8.5744Y-2.0539
X8.5744Y-2.0539
X8.5744Y-2.0539
X8.5744Y-2.0539
X8.5744Y-2.0539
X8.5744Y-2.0539
X8.5744Y-2.1539
X8.5744Y-2.1539
X8.5744Y-2.1539
X8.5744Y-2.1539
X8.5744Y-2.1539
X8.5744Y-2.1539
X8.5744Y-2.1539
X8.5744Y-2.1539
X8.5744Y-2.2539
X8.5744Y-2.2539
X8.5744Y-2.2539
X8.5744Y-2.2539
X8.5744Y-2.2539
X8.5744Y-2.2539
X8.5744Y-2.2539
X8.5744Y-2.2539
X8.5744Y-2.3539
X8.5744Y-2.3539
X8.5744Y-2.3539
X8.5744Y-2.3539
X8.5744Y-2.3539
X8.5744Y-2.3539
X8.5744Y-2.3539
X8.5744Y-2.3539
X8.5744Y-2.4539
X8.5744Y-2.4539
X8.5744Y-2.4539
X8.5744Y-2.4539
X8.5744Y-2.4539
X8.5744Y-2.4539
X8.5744Y-2.4539
X8.5744Y-2.4539
X8.5744Y-2.5539
X8.5744Y-2.5539
X8.5744Y-2.5539
X8.5744Y-2.5539
X8.5744Y-2.5539
X8.5744Y-2.5539
X8.5744Y-2.5539
X8.5744Y-2.5539
X8.5744Y-2.6539
X8.5744Y-2.6539
X8.5744Y-2.6539
X8.5744Y-2.6539
X8.5744Y-2.6539
X8.5744Y-2.6539
X8.5744Y-2.6539
X8.5744Y-2.6539
X8.5744Y-2.7539
X8.5744Y-2.7539
X8.5744Y-2.7539
X8.5744Y-2.7539
X8.5744Y-2.7539
X8.5744Y-2.7539
X8.5744Y-2.7539
X8.5744Y-2.7539
X8.5744Y-2.8539
X8.5744Y-2.8539
X8.5744Y-2.8539
X8.5744Y-2.8539
X8.5744Y-2.8539
X8.5744Y-2.8539
X8.5744Y-2.8539
X8.5744Y-2.8539
X8.5744Y-2.9539
X8.5744Y-2.9539
X8.5744Y-2.9539
X8.5744Y-2.9539
X8.5744Y-2.9539
X8.5744Y-2.9539
X8.5744Y-2.9539
X8.5744Y-2.9539
X8.5744Y-3.0539
X8.5744Y-3.0539
X8.5744Y-3.0539
X8.5744Y-3.0539
X8.5744Y-3.0539
X8.5744Y-3.0539
X8.5744Y-3.0539
X8.5744Y-3.0539
X8.65Y-3.2
X8.65Y-3.3
X8.65Y-5.34
X8.65Y-5.44
X8.6744Y-1.7539
X8.6744Y-1.7539
X8.6744Y-1.7539
X8.6744Y-1.7539
X8.6744Y-1.7539
X8.6744Y-1.7539
X8.6744Y-1.7539
X8.6744Y-1.7539
X8.6744Y-1.8539
X8.6744Y-1.8539
X8.6744Y-1.8539
X8.6744Y-1.8539
X8.6744Y-1.8539
X8.6744Y-1.8539
X8.6744Y-1.8539
X8.6744Y-1.8539
X8.6744Y-1.9539
X8.6744Y-1.9539
X8.6744Y-1.9539
X8.6744Y-1.9539
X8.6744Y-1.9539
X8.6744Y-1.9539
X8.6744Y-1.9539
X8.6744Y-1.9539
X8.6744Y-2.0539
X8.6744Y-2.0539
X8.6744Y-2.0539
X8.6744Y-2.0539
X8.6744Y-2.0539
X8.6744Y-2.0539
X8.6744Y-2.0539
X8.6744Y-2.0539
X8.6744Y-2.1539
X8.6744Y-2.1539
X8.6744Y-2.1539
X8.6744Y-2.1539
X8.6744Y-2.1539
X8.6744Y-2.1539
X8.6744Y-2.1539
X8.6744Y-2.1539
X8.6744Y-2.2539
X8.6744Y-2.2539
X8.6744Y-2.2539
X8.6744Y-2.2539
X8.6744Y-2.2539
X8.6744Y-2.2539
X8.6744Y-2.2539
X8.6744Y-2.2539
X8.6744Y-2.3539
X8.6744Y-2.3539
X8.6744Y-2.3539
X8.6744Y-2.3539
X8.6744Y-2.3539
X8.6744Y-2.3539
X8.6744Y-2.3539
X8.6744Y-2.3539
X8.6744Y-2.4539
X8.6744Y-2.4539
X8.6744Y-2.4539
X8.6744Y-2.4539
X8.6744Y-2.4539
X8.6744Y-2.4539
X8.6744Y-2.4539
X8.6744Y-2.4539
X8.6744Y-2.5539
X8.6744Y-2.5539
X8.6744Y-2.5539
X8.6744Y-2.5539
X8.6744Y-2.5539
X8.6744Y-2.5539
X8.6744Y-2.5539
X8.6744Y-2.5539
X8.6744Y-2.6539
X8.6744Y-2.6539
X8.6744Y-2.6539
X8.6744Y-2.6539
X8.6744Y-2.6539
X8.6744Y-2.6539
X8.6744Y-2.6539
X8.6744Y-2.6539
X8.6744Y-2.7539
X8.6744Y-2.7539
X8.6744Y-2.7539
X8.6744Y-2.7539
X8.6744Y-2.7539
X8.6744Y-2.7539
X8.6744Y-2.7539
X8.6744Y-2.7539
X8.6744Y-2.8539
X8.6744Y-2.8539
X8.6744Y-2.8539
X8.6744Y-2.8539
X8.6744Y-2.8539
X8.6744Y-2.8539
X8.6744Y-2.8539
X8.6744Y-2.8539
X8.6744Y-2.9539
X8.6744Y-2.9539
X8.6744Y-2.9539
X8.6744Y-2.9539
X8.6744Y-2.9539
X8.6744Y-2.9539
X8.6744Y-2.9539
X8.6744Y-2.9539
X8.6744Y-3.0539
X8.6744Y-3.0539
X8.6744Y-3.0539
X8.6744Y-3.0539
X8.6744Y-3.0539
X8.6744Y-3.0539
X8.6744Y-3.0539
X8.6744Y-3.0539
X8.75Y-3.2
X8.75Y-3.3
X8.75Y-5.34
X8.75Y-5.44
X8.7744Y-1.7539
X8.7744Y-1.7539
X8.7744Y-1.7539
X8.7744Y-1.7539
X8.7744Y-1.7539
X8.7744Y-1.7539
X8.7744Y-1.7539
X8.7744Y-1.7539
X8.7744Y-1.8539
X8.7744Y-1.8539
X8.7744Y-1.8539
X8.7744Y-1.8539
X8.7744Y-1.8539
X8.7744Y-1.8539
X8.7744Y-1.8539
X8.7744Y-1.8539
X8.7744Y-1.9539
X8.7744Y-1.9539
X8.7744Y-1.9539
X8.7744Y-1.9539
X8.7744Y-1.9539
X8.7744Y-1.9539
X8.7744Y-1.9539
X8.7744Y-1.9539
X8.7744Y-2.0539
X8.7744Y-2.0539
X8.7744Y-2.0539
X8.7744Y-2.0539
X8.7744Y-2.0539
X8.7744Y-2.0539
X8.7744Y-2.0539
X8.7744Y-2.0539
X8.7744Y-2.1539
X8.7744Y-2.1539
X8.7744Y-2.1539
X8.7744Y-2.1539
X8.7744Y-2.1539
X8.7744Y-2.1539
X8.7744Y-2.1539
X8.7744Y-2.1539
X8.7744Y-2.2539
X8.7744Y-2.2539
X8.7744Y-2.2539
X8.7744Y-2.2539
X8.7744Y-2.2539
X8.7744Y-2.2539
X8.7744Y-2.2539
X8.7744Y-2.2539
X8.7744Y-2.3539
X8.7744Y-2.3539
X8.7744Y-2.3539
X8.7744Y-2.3539
X8.7744Y-2.3539
X8.7744Y-2.3539
X8.7744Y-2.3539
X8.7744Y-2.3539
X8.7744Y-2.4539
X8.7744Y-2.4539
X8.7744Y-2.4539
X8.7744Y-2.4539
X8.7744Y-2.4539
X8.7744Y-2.4539
X8.7744Y-2.4539
X8.7744Y-2.4539
X8.7744Y-2.5539
X8.7744Y-2.5539
X8.7744Y-2.5539
X8.7744Y-2.5539
X8.7744Y-2.5539
X8.7744Y-2.5539
X8.7744Y-2.5539
X8.7744Y-2.5539
X8.7744Y-2.6539
X8.7744Y-2.6539
X8.7744Y-2.6539
X8.7744Y-2.6539
X8.7744Y-2.6539
X8.7744Y-2.6539
X8.7744Y-2.6539
X8.7744Y-2.6539
X8.7744Y-2.7539
X8.7744Y-2.7539
X8.7744Y-2.7539
X8.7744Y-2.7539
X8.7744Y-2.7539
X8.7744Y-2.7539
X8.7744Y-2.7539
X8.7744Y-2.7539
X8.7744Y-2.8539
X8.7744Y-2.8539
X8.7744Y-2.8539
X8.7744Y-2.8539
X8.7744Y-2.8539
X8.7744Y-2.8539
X8.7744Y-2.8539
X8.7744Y-2.8539
X8.7744Y-2.9539
X8.7744Y-2.9539
X8.7744Y-2.9539
X8.7744Y-2.9539
X8.7744Y-2.9539
X8.7744Y-2.9539
X8.7744Y-2.9539
X8.7744Y-2.9539
X8.7744Y-3.0539
X8.7744Y-3.0539
X8.7744Y-3.0539
X8.7744Y-3.0539
X8.7744Y-3.0539
X8.7744Y-3.0539
X8.7744Y-3.0539
X8.7744Y-3.0539
X8.85Y-3.2
X8.85Y-3.3
X8.85Y-5.34
X8.85Y-5.44
X8.8744Y-1.7539
X8.8744Y-1.7539
X8.8744Y-1.7539
X8.8744Y-1.7539
X8.8744Y-1.7539
X8.8744Y-1.7539
X8.8744Y-1.7539
X8.8744Y-1.7539
X8.8744Y-1.8539
X8.8744Y-1.8539
X8.8744Y-1.8539
X8.8744Y-1.8539
X8.8744Y-1.8539
X8.8744Y-1.8539
X8.8744Y-1.8539
X8.8744Y-1.8539
X8.8744Y-1.9539
X8.8744Y-1.9539
X8.8744Y-1.9539
X8.8744Y-1.9539
X8.8744Y-1.9539
X8.8744Y-1.9539
X8.8744Y-1.9539
X8.8744Y-1.9539
X8.8744Y-2.0539
X8.8744Y-2.0539
X8.8744Y-2.0539
X8.8744Y-2.0539
X8.8744Y-2.0539
X8.8744Y-2.0539
X8.8744Y-2.0539
X8.8744Y-2.0539
X8.8744Y-2.1539
X8.8744Y-2.1539
X8.8744Y-2.1539
X8.8744Y-2.1539
X8.8744Y-2.1539
X8.8744Y-2.1539
X8.8744Y-2.1539
X8.8744Y-2.1539
X8.8744Y-2.2539
X8.8744Y-2.2539
X8.8744Y-2.2539
X8.8744Y-2.2539
X8.8744Y-2.2539
X8.8744Y-2.2539
X8.8744Y-2.2539
X8.8744Y-2.2539
X8.8744Y-2.3539
X8.8744Y-2.3539
X8.8744Y-2.3539
X8.8744Y-2.3539
X8.8744Y-2.3539
X8.8744Y-2.3539
X8.8744Y-2.3539
X8.8744Y-2.3539
X8.8744Y-2.4539
X8.8744Y-2.4539
X8.8744Y-2.4539
X8.8744Y-2.4539
X8.8744Y-2.4539
X8.8744Y-2.4539
X8.8744Y-2.4539
X8.8744Y-2.4539
X8.8744Y-2.5539
X8.8744Y-2.5539
X8.8744Y-2.5539
X8.8744Y-2.5539
X8.8744Y-2.5539
X8.8744Y-2.5539
X8.8744Y-2.5539
X8.8744Y-2.5539
X8.8744Y-2.6539
X8.8744Y-2.6539
X8.8744Y-2.6539
X8.8744Y-2.6539
X8.8744Y-2.6539
X8.8744Y-2.6539
X8.8744Y-2.6539
X8.8744Y-2.6539
X8.8744Y-2.7539
X8.8744Y-2.7539
X8.8744Y-2.7539
X8.8744Y-2.7539
X8.8744Y-2.7539
X8.8744Y-2.7539
X8.8744Y-2.7539
X8.8744Y-2.7539
X8.8744Y-2.8539
X8.8744Y-2.8539
X8.8744Y-2.8539
X8.8744Y-2.8539
X8.8744Y-2.8539
X8.8744Y-2.8539
X8.8744Y-2.8539
X8.8744Y-2.8539
X8.8744Y-2.9539
X8.8744Y-2.9539
X8.8744Y-2.9539
X8.8744Y-2.9539
X8.8744Y-2.9539
X8.8744Y-2.9539
X8.8744Y-2.9539
X8.8744Y-2.9539
X8.8744Y-3.0539
X8.8744Y-3.0539
X8.8744Y-3.0539
X8.8744Y-3.0539
X8.8744Y-3.0539
X8.8744Y-3.0539
X8.8744Y-3.0539
X8.8744Y-3.0539
X8.95Y-3.2
X8.95Y-3.3
X8.95Y-5.34
X8.95Y-5.44
X8.9744Y-1.7539
X8.9744Y-1.7539
X8.9744Y-1.7539
X8.9744Y-1.7539
X8.9744Y-1.7539
X8.9744Y-1.7539
X8.9744Y-1.7539
X8.9744Y-1.7539
X8.9744Y-1.8539
X8.9744Y-1.8539
X8.9744Y-1.8539
X8.9744Y-1.8539
X8.9744Y-1.8539
X8.9744Y-1.8539
X8.9744Y-1.8539
X8.9744Y-1.8539
X8.9744Y-1.9539
X8.9744Y-1.9539
X8.9744Y-1.9539
X8.9744Y-1.9539
X8.9744Y-1.9539
X8.9744Y-1.9539
X8.9744Y-1.9539
X8.9744Y-1.9539
X8.9744Y-2.0539
X8.9744Y-2.0539
X8.9744Y-2.0539
X8.9744Y-2.0539
X8.9744Y-2.0539
X8.9744Y-2.0539
X8.9744Y-2.0539
X8.9744Y-2.0539
X8.9744Y-2.1539
X8.9744Y-2.1539
X8.9744Y-2.1539
X8.9744Y-2.1539
X8.9744Y-2.1539
X8.9744Y-2.1539
X8.9744Y-2.1539
X8.9744Y-2.1539
X8.9744Y-2.2539
X8.9744Y-2.2539
X8.9744Y-2.2539
X8.9744Y-2.2539
X8.9744Y-2.2539
X8.9744Y-2.2539
X8.9744Y-2.2539
X8.9744Y-2.2539
X8.9744Y-2.3539
X8.9744Y-2.3539
X8.9744Y-2.3539
X8.9744Y-2.3539
X8.9744Y-2.3539
X8.9744Y-2.3539
X8.9744Y-2.3539
X8.9744Y-2.3539
X8.9744Y-2.4539
X8.9744Y-2.4539
X8.9744Y-2.4539
X8.9744Y-2.4539
X8.9744Y-2.4539
X8.9744Y-2.4539
X8.9744Y-2.4539
X8.9744Y-2.4539
X8.9744Y-2.5539
X8.9744Y-2.5539
X8.9744Y-2.5539
X8.9744Y-2.5539
X8.9744Y-2.5539
X8.9744Y-2.5539
X8.9744Y-2.5539
X8.9744Y-2.5539
X8.9744Y-2.6539
X8.9744Y-2.6539
X8.9744Y-2.6539
X8.9744Y-2.6539
X8.9744Y-2.6539
X8.9744Y-2.6539
X8.9744Y-2.6539
X8.9744Y-2.6539
X8.9744Y-2.7539
X8.9744Y-2.7539
X8.9744Y-2.7539
X8.9744Y-2.7539
X8.9744Y-2.7539
X8.9744Y-2.7539
X8.9744Y-2.7539
X8.9744Y-2.7539
X8.9744Y-2.8539
X8.9744Y-2.8539
X8.9744Y-2.8539
X8.9744Y-2.8539
X8.9744Y-2.8539
X8.9744Y-2.8539
X8.9744Y-2.8539
X8.9744Y-2.8539
X8.9744Y-2.9539
X8.9744Y-2.9539
X8.9744Y-2.9539
X8.9744Y-2.9539
X8.9744Y-2.9539
X8.9744Y-2.9539
X8.9744Y-2.9539
X8.9744Y-2.9539
X8.9744Y-3.0539
X8.9744Y-3.0539
X8.9744Y-3.0539
X8.9744Y-3.0539
X8.9744Y-3.0539
X8.9744Y-3.0539
X8.9744Y-3.0539
X8.9744Y-3.0539
X9.05Y-3.2
X9.05Y-3.3
X9.05Y-5.34
X9.05Y-5.44
X9.0744Y-1.7539
X9.0744Y-1.7539
X9.0744Y-1.7539
X9.0744Y-1.7539
X9.0744Y-1.7539
X9.0744Y-1.7539
X9.0744Y-1.7539
X9.0744Y-1.7539
X9.0744Y-1.8539
X9.0744Y-1.8539
X9.0744Y-1.8539
X9.0744Y-1.8539
X9.0744Y-1.8539
X9.0744Y-1.8539
X9.0744Y-1.8539
X9.0744Y-1.8539
X9.0744Y-1.9539
X9.0744Y-1.9539
X9.0744Y-1.9539
X9.0744Y-1.9539
X9.0744Y-1.9539
X9.0744Y-1.9539
X9.0744Y-1.9539
X9.0744Y-1.9539
X9.0744Y-2.0539
X9.0744Y-2.0539
X9.0744Y-2.0539
X9.0744Y-2.0539
X9.0744Y-2.0539
X9.0744Y-2.0539
X9.0744Y-2.0539
X9.0744Y-2.0539
X9.0744Y-2.1539
X9.0744Y-2.1539
X9.0744Y-2.1539
X9.0744Y-2.1539
X9.0744Y-2.1539
X9.0744Y-2.1539
X9.0744Y-2.1539
X9.0744Y-2.1539
X9.0744Y-2.2539
X9.0744Y-2.2539
X9.0744Y-2.2539
X9.0744Y-2.2539
X9.0744Y-2.2539
X9.0744Y-2.2539
X9.0744Y-2.2539
X9.0744Y-2.2539
X9.0744Y-2.3539
X9.0744Y-2.3539
X9.0744Y-2.3539
X9.0744Y-2.3539
X9.0744Y-2.3539
X9.0744Y-2.3539
X9.0744Y-2.3539
X9.0744Y-2.3539
X9.0744Y-2.4539
X9.0744Y-2.4539
X9.0744Y-2.4539
X9.0744Y-2.4539
X9.0744Y-2.4539
X9.0744Y-2.4539
X9.0744Y-2.4539
X9.0744Y-2.4539
X9.0744Y-2.5539
X9.0744Y-2.5539
X9.0744Y-2.5539
X9.0744Y-2.5539
X9.0744Y-2.5539
X9.0744Y-2.5539
X9.0744Y-2.5539
X9.0744Y-2.5539
X9.0744Y-2.6539
X9.0744Y-2.6539
X9.0744Y-2.6539
X9.0744Y-2.6539
X9.0744Y-2.6539
X9.0744Y-2.6539
X9.0744Y-2.6539
X9.0744Y-2.6539
X9.0744Y-2.7539
X9.0744Y-2.7539
X9.0744Y-2.7539
X9.0744Y-2.7539
X9.0744Y-2.7539
X9.0744Y-2.7539
X9.0744Y-2.7539
X9.0744Y-2.7539
X9.0744Y-2.8539
X9.0744Y-2.8539
X9.0744Y-2.8539
X9.0744Y-2.8539
X9.0744Y-2.8539
X9.0744Y-2.8539
X9.0744Y-2.8539
X9.0744Y-2.8539
X9.0744Y-2.9539
X9.0744Y-2.9539
X9.0744Y-2.9539
X9.0744Y-2.9539
X9.0744Y-2.9539
X9.0744Y-2.9539
X9.0744Y-2.9539
X9.0744Y-2.9539
X9.0744Y-3.0539
X9.0744Y-3.0539
X9.0744Y-3.0539
X9.0744Y-3.0539
X9.0744Y-3.0539
X9.0744Y-3.0539
X9.0744Y-3.0539
X9.0744Y-3.0539
X9.2693Y-1.7543
X9.2693Y-1.7543
X9.2693Y-1.7543
X9.2693Y-1.8543
X9.2693Y-1.8543
X9.2693Y-1.8543
X9.2693Y-1.9543
X9.2693Y-1.9543
X9.2693Y-1.9543
X9.2693Y-2.0543
X9.2693Y-2.0543
X9.2693Y-2.0543
X9.2693Y-2.148
X9.2693Y-2.148
X9.2693Y-2.148
X9.2693Y-2.148
X9.2693Y-2.248
X9.2693Y-2.248
X9.2693Y-2.248
X9.2693Y-2.248
X9.2693Y-2.348
X9.2693Y-2.348
X9.2693Y-2.348
X9.2693Y-2.348
X9.2693Y-2.448
X9.2693Y-2.448
X9.2693Y-2.448
X9.2693Y-2.448
X9.2693Y-2.548
X9.2693Y-2.648
X9.2693Y-2.748
X9.2693Y-2.848
X9.2693Y-2.948
X9.2693Y-3.048
T0
M30
